G75*
G70*
%OFA0B0*%
%FSLAX24Y24*%
%IPPOS*%
%LPD*%
%AMOC8*
5,1,8,0,0,1.08239X$1,22.5*
%
%ADD10C,0.1261*%
%ADD11R,0.0340X0.0880*%
%ADD12R,0.0474X0.0513*%
%ADD13R,0.1055X0.1055*%
%ADD14R,0.0552X0.0552*%
%ADD15OC8,0.1055*%
%ADD16C,0.0674*%
%ADD17C,0.1070*%
%ADD18C,0.0476*%
D10*
X008070Y002114D03*
X004880Y019720D03*
X011260Y019720D03*
D11*
X010055Y006680D03*
X009555Y006680D03*
X009055Y006680D03*
X008555Y006680D03*
X007555Y006680D03*
X007055Y006680D03*
X006555Y006680D03*
X006055Y006680D03*
X006055Y004260D03*
X006555Y004260D03*
X007055Y004260D03*
X007555Y004260D03*
X008555Y004260D03*
X009055Y004260D03*
X009555Y004260D03*
X010055Y004260D03*
D12*
X009743Y003242D03*
X009743Y002573D03*
X010805Y005135D03*
X010805Y005805D03*
X012595Y009720D03*
X013265Y009720D03*
X006430Y003242D03*
X006430Y002573D03*
X005305Y005135D03*
X005305Y005805D03*
X004315Y007195D03*
X003645Y007195D03*
X003515Y009720D03*
X002845Y009720D03*
D13*
X003945Y015395D03*
X003945Y017045D03*
X005595Y017045D03*
X005595Y015395D03*
X007245Y015395D03*
X007245Y017045D03*
X008895Y017045D03*
X008895Y015395D03*
X010545Y015395D03*
X010545Y017045D03*
X012195Y017045D03*
X012195Y015395D03*
D14*
X011843Y009720D03*
X011017Y009720D03*
X005093Y009720D03*
X004267Y009720D03*
X002793Y007195D03*
X001967Y007195D03*
D15*
X007245Y010145D03*
X007245Y011795D03*
X008895Y011795D03*
X008895Y010145D03*
D16*
X013383Y008205D02*
X013977Y008205D01*
X013977Y007205D02*
X013383Y007205D01*
X013383Y019220D02*
X013977Y019220D01*
X013977Y020220D02*
X013383Y020220D01*
X009570Y019892D02*
X009570Y019298D01*
X008570Y019298D02*
X008570Y019892D01*
X007570Y019892D02*
X007570Y019298D01*
X006570Y019298D02*
X006570Y019892D01*
X002727Y020220D02*
X002133Y020220D01*
X002133Y019220D02*
X002727Y019220D01*
D17*
X003175Y003440D02*
X002185Y003440D01*
X002185Y005000D02*
X003175Y005000D01*
X003310Y011190D02*
X004300Y011190D01*
X004300Y012750D02*
X003310Y012750D01*
X011810Y012750D02*
X012800Y012750D01*
X012800Y011190D02*
X011810Y011190D01*
X012935Y005000D02*
X013925Y005000D01*
X013925Y003440D02*
X012935Y003440D01*
D18*
X010680Y003720D03*
X008055Y003720D03*
X005493Y003720D03*
X006555Y007720D03*
X007555Y008220D03*
X008070Y009220D03*
X009055Y007720D03*
X010055Y008220D03*
X014070Y014720D03*
X003180Y008720D03*
X002180Y008220D03*
X001680Y016220D03*
M02*
