G75*
G70*
%OFA0B0*%
%FSLAX24Y24*%
%IPPOS*%
%LPD*%
%AMOC8*
5,1,8,0,0,1.08239X$1,22.5*
%
%ADD10R,0.0260X0.0800*%
%ADD11R,0.0394X0.0433*%
%ADD12R,0.0975X0.0975*%
%ADD13R,0.0472X0.0472*%
%ADD14OC8,0.0975*%
%ADD15C,0.0594*%
%ADD16C,0.0990*%
%ADD17C,0.0240*%
%ADD18C,0.0396*%
%ADD19C,0.0120*%
%ADD20C,0.0860*%
D10*
X006055Y004260D03*
X006555Y004260D03*
X007055Y004260D03*
X007555Y004260D03*
X008555Y004260D03*
X009055Y004260D03*
X009555Y004260D03*
X010055Y004260D03*
X010055Y006680D03*
X009555Y006680D03*
X009055Y006680D03*
X008555Y006680D03*
X007555Y006680D03*
X007055Y006680D03*
X006555Y006680D03*
X006055Y006680D03*
D11*
X005305Y005805D03*
X005305Y005135D03*
X006430Y003242D03*
X006430Y002573D03*
X009743Y002573D03*
X009743Y003242D03*
X010805Y005135D03*
X010805Y005805D03*
X012595Y009720D03*
X013265Y009720D03*
X004315Y007195D03*
X003645Y007195D03*
X003515Y009720D03*
X002845Y009720D03*
D12*
X003945Y015395D03*
X003945Y017045D03*
X005595Y017045D03*
X005595Y015395D03*
X007245Y015395D03*
X007245Y017045D03*
X008895Y017045D03*
X008895Y015395D03*
X010545Y015395D03*
X010545Y017045D03*
X012195Y017045D03*
X012195Y015395D03*
D13*
X011843Y009720D03*
X011017Y009720D03*
X005093Y009720D03*
X004267Y009720D03*
X002793Y007195D03*
X001967Y007195D03*
D14*
X007245Y010145D03*
X007245Y011795D03*
X008895Y011795D03*
X008895Y010145D03*
D15*
X013383Y008205D02*
X013977Y008205D01*
X013977Y007205D02*
X013383Y007205D01*
X013383Y019220D02*
X013977Y019220D01*
X013977Y020220D02*
X013383Y020220D01*
X009570Y019892D02*
X009570Y019298D01*
X008570Y019298D02*
X008570Y019892D01*
X007570Y019892D02*
X007570Y019298D01*
X006570Y019298D02*
X006570Y019892D01*
X002727Y020220D02*
X002133Y020220D01*
X002133Y019220D02*
X002727Y019220D01*
D16*
X003175Y003440D02*
X002185Y003440D01*
X002185Y005000D02*
X003175Y005000D01*
X003310Y011190D02*
X004300Y011190D01*
X004300Y012750D02*
X003310Y012750D01*
X011810Y012750D02*
X012800Y012750D01*
X012800Y011190D02*
X011810Y011190D01*
X012935Y005000D02*
X013925Y005000D01*
X013925Y003440D02*
X012935Y003440D01*
D17*
X013430Y003440D02*
X012563Y002573D01*
X009743Y002573D01*
X009327Y002573D01*
X009055Y002845D01*
X009055Y004260D01*
X009555Y004260D02*
X009555Y003845D01*
X009743Y003658D01*
X009743Y003242D01*
X011452Y003242D01*
X011930Y003720D01*
X011930Y004750D01*
X012180Y005000D01*
X013430Y005000D01*
X013680Y008205D02*
X013680Y009220D01*
X014180Y009720D01*
X014180Y013220D01*
X013180Y014220D01*
X008618Y014220D01*
X008118Y014720D01*
X008118Y016795D01*
X008368Y017045D01*
X008895Y017045D01*
X009743Y017720D02*
X009493Y017970D01*
X007820Y017970D01*
X007570Y018220D01*
X007570Y019595D01*
X009570Y019595D02*
X009570Y018720D01*
X009820Y018470D01*
X011180Y018470D01*
X011430Y018220D01*
X011430Y015645D01*
X011680Y015395D01*
X012195Y015395D01*
X010545Y015395D02*
X009993Y015395D01*
X009743Y015645D01*
X009743Y017720D01*
X005055Y007720D02*
X004680Y007720D01*
X004315Y007720D01*
X004315Y007195D01*
X004315Y007720D02*
X001930Y007720D01*
X001680Y007970D01*
X001680Y016220D01*
X005055Y007720D02*
X005305Y007470D01*
X005305Y005805D01*
X007305Y005805D01*
X007555Y005555D01*
X007555Y005135D01*
X010055Y005135D01*
X010805Y005135D01*
X010055Y005135D02*
X010055Y004260D01*
X007555Y004260D02*
X007555Y005135D01*
X007055Y004260D02*
X007055Y002845D01*
X006783Y002573D01*
X006430Y002573D01*
X003547Y002573D01*
X002680Y003440D01*
X002680Y005000D02*
X003930Y005000D01*
X004180Y004750D01*
X004180Y003720D01*
X004658Y003242D01*
X006430Y003242D01*
X006430Y003720D01*
X006555Y003845D01*
X006555Y004260D01*
X006055Y004885D02*
X005805Y005135D01*
X005305Y005135D01*
X003645Y007195D02*
X002793Y007195D01*
D18*
X002180Y008220D03*
X003180Y008720D03*
X006555Y007720D03*
X007555Y008220D03*
X008070Y009220D03*
X009055Y007720D03*
X010055Y008220D03*
X010680Y003720D03*
X008055Y003720D03*
X005493Y003720D03*
X014070Y014720D03*
X001680Y016220D03*
D19*
X001940Y016495D02*
X001894Y016541D01*
X001755Y016598D01*
X001640Y016598D01*
X001640Y019909D01*
X001646Y020003D01*
X001683Y020141D01*
X001688Y020113D01*
X001710Y020045D01*
X001742Y019981D01*
X001785Y019922D01*
X001836Y019872D01*
X001894Y019829D01*
X001958Y019797D01*
X002026Y019774D01*
X002097Y019763D01*
X002392Y019763D01*
X002392Y020182D01*
X002468Y020182D01*
X002468Y020258D01*
X003183Y020258D01*
X003172Y020327D01*
X003150Y020395D01*
X003118Y020459D01*
X003075Y020518D01*
X003024Y020568D01*
X002966Y020611D01*
X002928Y020630D01*
X004355Y020630D01*
X004235Y020561D01*
X004039Y020365D01*
X003901Y020125D01*
X003829Y019858D01*
X003829Y019582D01*
X003901Y019315D01*
X004039Y019075D01*
X004235Y018879D01*
X004475Y018741D01*
X004742Y018669D01*
X005018Y018669D01*
X005285Y018741D01*
X005525Y018879D01*
X005721Y019075D01*
X005859Y019315D01*
X005931Y019582D01*
X005931Y019858D01*
X005859Y020125D01*
X005721Y020365D01*
X005525Y020561D01*
X005405Y020630D01*
X010735Y020630D01*
X010615Y020561D01*
X010419Y020365D01*
X010281Y020125D01*
X010209Y019858D01*
X010209Y019582D01*
X010281Y019315D01*
X010419Y019075D01*
X010615Y018879D01*
X010804Y018770D01*
X009944Y018770D01*
X009870Y018844D01*
X009870Y018924D01*
X009974Y019028D01*
X010047Y019203D01*
X010047Y019987D01*
X009974Y020162D01*
X009840Y020296D01*
X009665Y020369D01*
X009475Y020369D01*
X009300Y020296D01*
X009166Y020162D01*
X009093Y019987D01*
X009093Y019203D01*
X009166Y019028D01*
X009270Y018924D01*
X009270Y018660D01*
X009315Y018550D01*
X009626Y018239D01*
X009552Y018270D01*
X007944Y018270D01*
X007870Y018344D01*
X007870Y018924D01*
X007974Y019028D01*
X008047Y019203D01*
X008047Y019987D01*
X007974Y020162D01*
X007840Y020296D01*
X007665Y020369D01*
X007475Y020369D01*
X007300Y020296D01*
X007166Y020162D01*
X007093Y019987D01*
X007093Y019203D01*
X007166Y019028D01*
X007270Y018924D01*
X007270Y018160D01*
X007315Y018050D01*
X007400Y017966D01*
X007565Y017800D01*
X007650Y017716D01*
X007657Y017712D01*
X006683Y017712D01*
X006577Y017607D01*
X006577Y016483D01*
X006683Y016378D01*
X007807Y016378D01*
X007818Y016388D01*
X007818Y016018D01*
X007794Y016032D01*
X007753Y016042D01*
X007305Y016042D01*
X007305Y015455D01*
X007185Y015455D01*
X007185Y016042D01*
X006736Y016042D01*
X006696Y016032D01*
X006659Y016011D01*
X006629Y015981D01*
X006608Y015944D01*
X006597Y015904D01*
X006597Y015455D01*
X007185Y015455D01*
X007185Y015335D01*
X007305Y015335D01*
X007305Y014748D01*
X007753Y014748D01*
X007794Y014758D01*
X007818Y014772D01*
X007818Y014660D01*
X007863Y014550D01*
X008363Y014050D01*
X008448Y013966D01*
X008558Y013920D01*
X013056Y013920D01*
X013880Y013096D01*
X013880Y012639D01*
X013816Y012703D01*
X013566Y012953D01*
X013478Y012990D01*
X013431Y012990D01*
X013372Y013132D01*
X013182Y013322D01*
X012934Y013425D01*
X011676Y013425D01*
X011519Y013360D01*
X010589Y013360D01*
X010364Y013267D01*
X009834Y012737D01*
X009663Y012566D01*
X009570Y012341D01*
X009570Y011683D01*
X009562Y011675D01*
X009562Y012071D01*
X009171Y012462D01*
X008618Y012462D01*
X008227Y012071D01*
X008227Y011519D01*
X008618Y011128D01*
X009015Y011128D01*
X008700Y010812D01*
X008618Y010812D01*
X008227Y010421D01*
X008227Y009869D01*
X008618Y009478D01*
X009171Y009478D01*
X009562Y009869D01*
X009562Y009950D01*
X010697Y011085D01*
X010790Y011309D01*
X010790Y011967D01*
X010963Y012140D01*
X011519Y012140D01*
X011676Y012075D01*
X012934Y012075D01*
X013182Y012178D01*
X013372Y012368D01*
X013402Y012439D01*
X013440Y012401D01*
X013440Y011409D01*
X013372Y011572D01*
X013182Y011762D01*
X012934Y011865D01*
X011676Y011865D01*
X011428Y011762D01*
X011238Y011572D01*
X011137Y011329D01*
X010813Y011005D01*
X010777Y010917D01*
X010777Y010136D01*
X010706Y010136D01*
X010600Y010031D01*
X010600Y009409D01*
X010706Y009304D01*
X011327Y009304D01*
X011430Y009406D01*
X011533Y009304D01*
X012154Y009304D01*
X012249Y009399D01*
X012324Y009323D01*
X012867Y009323D01*
X012930Y009387D01*
X012993Y009323D01*
X013398Y009323D01*
X013380Y009280D01*
X013380Y008682D01*
X013288Y008682D01*
X013113Y008609D01*
X012979Y008475D01*
X012906Y008300D01*
X012906Y008110D01*
X012979Y007935D01*
X013113Y007801D01*
X013288Y007728D01*
X014072Y007728D01*
X014247Y007801D01*
X014381Y007935D01*
X014454Y008110D01*
X014454Y008300D01*
X014381Y008475D01*
X014247Y008609D01*
X014072Y008682D01*
X013980Y008682D01*
X013980Y009096D01*
X014434Y009550D01*
X014480Y009660D01*
X014480Y013280D01*
X014434Y013390D01*
X014350Y013474D01*
X013350Y014474D01*
X013240Y014520D01*
X008742Y014520D01*
X008534Y014728D01*
X009457Y014728D01*
X009562Y014833D01*
X009562Y015401D01*
X009573Y015391D01*
X009823Y015141D01*
X009877Y015118D01*
X009877Y014833D01*
X009983Y014728D01*
X011107Y014728D01*
X011212Y014833D01*
X011212Y015438D01*
X011260Y015391D01*
X011510Y015141D01*
X011527Y015134D01*
X011527Y014833D01*
X011633Y014728D01*
X012757Y014728D01*
X012862Y014833D01*
X012862Y015957D01*
X012757Y016062D01*
X011730Y016062D01*
X011730Y016378D01*
X012757Y016378D01*
X012862Y016483D01*
X012862Y017607D01*
X012757Y017712D01*
X011730Y017712D01*
X011730Y018280D01*
X011684Y018390D01*
X011403Y018671D01*
X011665Y018741D01*
X011905Y018879D01*
X012101Y019075D01*
X012239Y019315D01*
X012311Y019582D01*
X012311Y019858D01*
X012239Y020125D01*
X012101Y020365D01*
X011905Y020561D01*
X011785Y020630D01*
X013127Y020630D01*
X013113Y020624D01*
X012979Y020490D01*
X012906Y020315D01*
X012906Y020125D01*
X012979Y019950D01*
X013113Y019816D01*
X013288Y019743D01*
X014072Y019743D01*
X014247Y019816D01*
X014381Y019950D01*
X014454Y020125D01*
X014454Y020151D01*
X014493Y020003D01*
X014500Y019909D01*
X014500Y005377D01*
X014497Y005382D01*
X014307Y005572D01*
X014059Y005675D01*
X012801Y005675D01*
X012553Y005572D01*
X012363Y005382D01*
X012329Y005300D01*
X012120Y005300D01*
X012010Y005254D01*
X011760Y005004D01*
X011676Y004920D01*
X011630Y004810D01*
X011630Y003844D01*
X011328Y003542D01*
X010110Y003542D01*
X010042Y003610D01*
X010042Y003680D01*
X010260Y003680D01*
X010365Y003785D01*
X010365Y004735D01*
X010355Y004745D01*
X010355Y004835D01*
X010437Y004835D01*
X010534Y004739D01*
X011076Y004739D01*
X011182Y004844D01*
X011182Y005426D01*
X011124Y005484D01*
X011130Y005490D01*
X011151Y005526D01*
X011162Y005567D01*
X011162Y005766D01*
X010843Y005766D01*
X010843Y005843D01*
X010767Y005843D01*
X010767Y006181D01*
X010587Y006181D01*
X010546Y006170D01*
X010510Y006149D01*
X010480Y006119D01*
X010459Y006083D01*
X010448Y006042D01*
X010448Y005843D01*
X010767Y005843D01*
X010767Y005766D01*
X010448Y005766D01*
X010448Y005567D01*
X010459Y005526D01*
X010480Y005490D01*
X010486Y005484D01*
X010437Y005435D01*
X007855Y005435D01*
X007855Y005614D01*
X007809Y005725D01*
X007725Y005809D01*
X007475Y006059D01*
X007376Y006100D01*
X007760Y006100D01*
X007865Y006205D01*
X007865Y007155D01*
X007795Y007225D01*
X007795Y007925D01*
X007876Y008006D01*
X007933Y008145D01*
X007933Y008295D01*
X007876Y008434D01*
X007830Y008480D01*
X009206Y008480D01*
X009315Y008371D01*
X009315Y007995D01*
X009269Y008041D01*
X009130Y008098D01*
X008980Y008098D01*
X008841Y008041D01*
X008734Y007934D01*
X008677Y007795D01*
X008677Y007645D01*
X007795Y007645D01*
X007795Y007527D02*
X008726Y007527D01*
X008734Y007506D02*
X008815Y007425D01*
X008815Y007225D01*
X008805Y007215D01*
X008760Y007260D01*
X008350Y007260D01*
X008245Y007155D01*
X008245Y006205D01*
X008350Y006100D01*
X008760Y006100D01*
X008805Y006145D01*
X008850Y006100D01*
X009260Y006100D01*
X009305Y006145D01*
X009350Y006100D01*
X009760Y006100D01*
X009805Y006145D01*
X009850Y006100D01*
X010260Y006100D01*
X010365Y006205D01*
X010365Y007155D01*
X010295Y007225D01*
X010295Y007925D01*
X010376Y008006D01*
X010433Y008145D01*
X010433Y008295D01*
X010376Y008434D01*
X010269Y008541D01*
X010130Y008598D01*
X009980Y008598D01*
X009841Y008541D01*
X009795Y008495D01*
X009795Y008518D01*
X009758Y008606D01*
X009691Y008673D01*
X009441Y008923D01*
X009353Y008960D01*
X003475Y008960D01*
X003394Y009041D01*
X003255Y009098D01*
X003105Y009098D01*
X002966Y009041D01*
X002859Y008934D01*
X002802Y008795D01*
X002802Y008688D01*
X002670Y008819D01*
X002670Y009323D01*
X003117Y009323D01*
X003180Y009387D01*
X003243Y009323D01*
X003786Y009323D01*
X003861Y009399D01*
X003956Y009304D01*
X004577Y009304D01*
X004680Y009406D01*
X004783Y009304D01*
X005404Y009304D01*
X005510Y009409D01*
X005510Y009480D01*
X006868Y009480D01*
X006937Y009509D01*
X006968Y009478D01*
X007521Y009478D01*
X007912Y009869D01*
X007912Y010421D01*
X007521Y010812D01*
X007125Y010812D01*
X007440Y011128D01*
X007521Y011128D01*
X007912Y011519D01*
X007912Y012071D01*
X007521Y012462D01*
X006968Y012462D01*
X006577Y012071D01*
X006577Y011990D01*
X006387Y011800D01*
X004591Y011800D01*
X004434Y011865D01*
X003176Y011865D01*
X002928Y011762D01*
X002738Y011572D01*
X002670Y011409D01*
X002670Y012531D01*
X002738Y012368D01*
X002928Y012178D01*
X003176Y012075D01*
X004434Y012075D01*
X004682Y012178D01*
X004872Y012368D01*
X004975Y012616D01*
X004975Y012884D01*
X004872Y013132D01*
X004682Y013322D01*
X004434Y013425D01*
X003176Y013425D01*
X002928Y013322D01*
X002738Y013132D01*
X002670Y012969D01*
X002670Y015621D01*
X003029Y015980D01*
X003300Y015980D01*
X003277Y015957D01*
X003277Y014833D01*
X003383Y014728D01*
X004507Y014728D01*
X004612Y014833D01*
X004612Y015957D01*
X004589Y015980D01*
X004728Y015980D01*
X004816Y016017D01*
X004883Y016084D01*
X005177Y016378D01*
X006157Y016378D01*
X006262Y016483D01*
X006262Y017607D01*
X006157Y017712D01*
X005033Y017712D01*
X004927Y017607D01*
X004927Y016807D01*
X004612Y016492D01*
X004612Y017607D01*
X004507Y017712D01*
X003383Y017712D01*
X003277Y017607D01*
X003277Y017285D01*
X002457Y017285D01*
X002369Y017248D01*
X001977Y016856D01*
X001940Y016768D01*
X001940Y016495D01*
X001940Y016533D02*
X001902Y016533D01*
X001940Y016651D02*
X001640Y016651D01*
X001640Y016770D02*
X001941Y016770D01*
X002009Y016888D02*
X001640Y016888D01*
X001640Y017007D02*
X002127Y017007D01*
X002246Y017125D02*
X001640Y017125D01*
X001640Y017244D02*
X002364Y017244D01*
X002505Y017045D02*
X002180Y016720D01*
X002180Y008220D01*
X002430Y008720D02*
X002930Y008220D01*
X006680Y008220D01*
X007055Y007845D01*
X007055Y006680D01*
X006555Y006680D02*
X006555Y007720D01*
X007555Y008220D02*
X007555Y006680D01*
X007865Y006697D02*
X008245Y006697D01*
X008245Y006579D02*
X007865Y006579D01*
X007865Y006460D02*
X008245Y006460D01*
X008245Y006342D02*
X007865Y006342D01*
X007865Y006223D02*
X008245Y006223D01*
X008346Y006105D02*
X007764Y006105D01*
X007666Y005868D02*
X010448Y005868D01*
X010448Y005986D02*
X007548Y005986D01*
X007785Y005749D02*
X010448Y005749D01*
X010448Y005631D02*
X007848Y005631D01*
X007855Y005512D02*
X010467Y005512D01*
X010767Y005868D02*
X010843Y005868D01*
X010843Y005843D02*
X010843Y006181D01*
X011023Y006181D01*
X011064Y006170D01*
X011100Y006149D01*
X011130Y006119D01*
X011151Y006083D01*
X011162Y006042D01*
X011162Y005843D01*
X010843Y005843D01*
X010843Y005986D02*
X010767Y005986D01*
X010767Y006105D02*
X010843Y006105D01*
X011138Y006105D02*
X014500Y006105D01*
X014500Y006223D02*
X010365Y006223D01*
X010365Y006342D02*
X014500Y006342D01*
X014500Y006460D02*
X010365Y006460D01*
X010365Y006579D02*
X014500Y006579D01*
X014500Y006697D02*
X010365Y006697D01*
X010365Y006816D02*
X013142Y006816D01*
X013144Y006815D02*
X013208Y006782D01*
X013276Y006760D01*
X013347Y006748D01*
X013642Y006748D01*
X013642Y007167D01*
X013718Y007167D01*
X013718Y006748D01*
X014013Y006748D01*
X014084Y006760D01*
X014152Y006782D01*
X014216Y006815D01*
X014274Y006857D01*
X014325Y006908D01*
X014368Y006966D01*
X014400Y007030D01*
X014422Y007098D01*
X014433Y007167D01*
X013718Y007167D01*
X013718Y007244D01*
X013642Y007244D01*
X013642Y007662D01*
X013347Y007662D01*
X013276Y007651D01*
X013208Y007629D01*
X013144Y007596D01*
X013086Y007554D01*
X013035Y007503D01*
X012992Y007445D01*
X012960Y007381D01*
X012938Y007312D01*
X012927Y007244D01*
X013642Y007244D01*
X013642Y007167D01*
X012927Y007167D01*
X012938Y007098D01*
X012960Y007030D01*
X012992Y006966D01*
X013035Y006908D01*
X013086Y006857D01*
X013144Y006815D01*
X013016Y006934D02*
X010365Y006934D01*
X010365Y007053D02*
X012952Y007053D01*
X012934Y007290D02*
X010295Y007290D01*
X010295Y007408D02*
X012974Y007408D01*
X013058Y007527D02*
X010295Y007527D01*
X010295Y007645D02*
X013258Y007645D01*
X013203Y007764D02*
X010295Y007764D01*
X010295Y007882D02*
X013032Y007882D01*
X012952Y008001D02*
X010370Y008001D01*
X010422Y008119D02*
X012906Y008119D01*
X012906Y008238D02*
X010433Y008238D01*
X010408Y008356D02*
X012929Y008356D01*
X012979Y008475D02*
X010335Y008475D01*
X010143Y008593D02*
X013097Y008593D01*
X013380Y008712D02*
X009653Y008712D01*
X009691Y008673D02*
X009691Y008673D01*
X009764Y008593D02*
X009967Y008593D01*
X010055Y008220D02*
X010055Y006680D01*
X010349Y007171D02*
X013642Y007171D01*
X013718Y007171D02*
X014500Y007171D01*
X014433Y007244D02*
X014422Y007312D01*
X014400Y007381D01*
X014368Y007445D01*
X014325Y007503D01*
X014274Y007554D01*
X014216Y007596D01*
X014152Y007629D01*
X014084Y007651D01*
X014013Y007662D01*
X013718Y007662D01*
X013718Y007244D01*
X014433Y007244D01*
X014426Y007290D02*
X014500Y007290D01*
X014500Y007408D02*
X014386Y007408D01*
X014302Y007527D02*
X014500Y007527D01*
X014500Y007645D02*
X014102Y007645D01*
X014157Y007764D02*
X014500Y007764D01*
X014500Y007882D02*
X014328Y007882D01*
X014408Y008001D02*
X014500Y008001D01*
X014500Y008119D02*
X014454Y008119D01*
X014454Y008238D02*
X014500Y008238D01*
X014500Y008356D02*
X014431Y008356D01*
X014381Y008475D02*
X014500Y008475D01*
X014500Y008593D02*
X014263Y008593D01*
X014500Y008712D02*
X013980Y008712D01*
X013980Y008830D02*
X014500Y008830D01*
X014500Y008949D02*
X013980Y008949D01*
X013980Y009067D02*
X014500Y009067D01*
X014500Y009186D02*
X014070Y009186D01*
X014188Y009304D02*
X014500Y009304D01*
X014500Y009423D02*
X014307Y009423D01*
X014425Y009541D02*
X014500Y009541D01*
X014500Y009660D02*
X014480Y009660D01*
X014480Y009778D02*
X014500Y009778D01*
X014500Y009897D02*
X014480Y009897D01*
X014480Y010015D02*
X014500Y010015D01*
X014500Y010134D02*
X014480Y010134D01*
X014480Y010252D02*
X014500Y010252D01*
X014500Y010371D02*
X014480Y010371D01*
X014480Y010489D02*
X014500Y010489D01*
X014500Y010608D02*
X014480Y010608D01*
X014480Y010726D02*
X014500Y010726D01*
X014500Y010845D02*
X014480Y010845D01*
X014480Y010963D02*
X014500Y010963D01*
X014500Y011082D02*
X014480Y011082D01*
X014480Y011200D02*
X014500Y011200D01*
X014500Y011319D02*
X014480Y011319D01*
X014480Y011437D02*
X014500Y011437D01*
X014500Y011556D02*
X014480Y011556D01*
X014480Y011674D02*
X014500Y011674D01*
X014500Y011793D02*
X014480Y011793D01*
X014480Y011911D02*
X014500Y011911D01*
X014500Y012030D02*
X014480Y012030D01*
X014480Y012148D02*
X014500Y012148D01*
X014500Y012267D02*
X014480Y012267D01*
X014480Y012385D02*
X014500Y012385D01*
X014500Y012504D02*
X014480Y012504D01*
X014480Y012622D02*
X014500Y012622D01*
X014500Y012741D02*
X014480Y012741D01*
X014480Y012859D02*
X014500Y012859D01*
X014500Y012978D02*
X014480Y012978D01*
X014480Y013096D02*
X014500Y013096D01*
X014500Y013215D02*
X014480Y013215D01*
X014500Y013333D02*
X014458Y013333D01*
X014500Y013452D02*
X014373Y013452D01*
X014254Y013570D02*
X014500Y013570D01*
X014500Y013689D02*
X014136Y013689D01*
X014017Y013807D02*
X014500Y013807D01*
X014500Y013926D02*
X013899Y013926D01*
X013780Y014044D02*
X014500Y014044D01*
X014500Y014163D02*
X013662Y014163D01*
X013543Y014281D02*
X014500Y014281D01*
X014500Y014400D02*
X013425Y014400D01*
X013244Y014518D02*
X014500Y014518D01*
X014500Y014637D02*
X008625Y014637D01*
X008251Y014163D02*
X002670Y014163D01*
X002670Y014281D02*
X008132Y014281D01*
X008014Y014400D02*
X002670Y014400D01*
X002670Y014518D02*
X007895Y014518D01*
X007827Y014637D02*
X002670Y014637D01*
X002670Y014755D02*
X003355Y014755D01*
X003277Y014874D02*
X002670Y014874D01*
X002670Y014992D02*
X003277Y014992D01*
X003277Y015111D02*
X002670Y015111D01*
X002670Y015229D02*
X003277Y015229D01*
X003277Y015348D02*
X002670Y015348D01*
X002670Y015466D02*
X003277Y015466D01*
X003277Y015585D02*
X002670Y015585D01*
X002752Y015703D02*
X003277Y015703D01*
X003277Y015822D02*
X002871Y015822D01*
X002989Y015940D02*
X003277Y015940D01*
X002930Y016220D02*
X002430Y015720D01*
X002430Y008720D01*
X002670Y008830D02*
X002816Y008830D01*
X002802Y008712D02*
X002778Y008712D01*
X002874Y008949D02*
X002670Y008949D01*
X002670Y009067D02*
X003030Y009067D01*
X003330Y009067D02*
X013380Y009067D01*
X013380Y008949D02*
X009380Y008949D01*
X009534Y008830D02*
X013380Y008830D01*
X013380Y009186D02*
X002670Y009186D01*
X002670Y009304D02*
X003956Y009304D01*
X004267Y009720D02*
X003515Y009720D01*
X002845Y009720D02*
X002845Y010940D01*
X003095Y011190D01*
X003805Y011190D01*
X003001Y011793D02*
X002670Y011793D01*
X002670Y011911D02*
X006498Y011911D01*
X006577Y012030D02*
X002670Y012030D01*
X002670Y012148D02*
X002999Y012148D01*
X002839Y012267D02*
X002670Y012267D01*
X002670Y012385D02*
X002731Y012385D01*
X002681Y012504D02*
X002670Y012504D01*
X002670Y012978D02*
X002674Y012978D01*
X002670Y013096D02*
X002723Y013096D01*
X002670Y013215D02*
X002820Y013215D01*
X002954Y013333D02*
X002670Y013333D01*
X002670Y013452D02*
X013524Y013452D01*
X013406Y013570D02*
X002670Y013570D01*
X002670Y013689D02*
X013287Y013689D01*
X013169Y013807D02*
X002670Y013807D01*
X002670Y013926D02*
X008544Y013926D01*
X008369Y014044D02*
X002670Y014044D01*
X002930Y016220D02*
X004680Y016220D01*
X005505Y017045D01*
X005595Y017045D01*
X005095Y016296D02*
X007818Y016296D01*
X007818Y016177D02*
X004976Y016177D01*
X005033Y016062D02*
X004927Y015957D01*
X004927Y014833D01*
X005033Y014728D01*
X006157Y014728D01*
X006262Y014833D01*
X006262Y015957D01*
X006157Y016062D01*
X005033Y016062D01*
X005029Y016059D02*
X004858Y016059D01*
X004883Y016084D02*
X004883Y016084D01*
X004927Y015940D02*
X004612Y015940D01*
X004612Y015822D02*
X004927Y015822D01*
X004927Y015703D02*
X004612Y015703D01*
X004612Y015585D02*
X004927Y015585D01*
X004927Y015466D02*
X004612Y015466D01*
X004612Y015348D02*
X004927Y015348D01*
X004927Y015229D02*
X004612Y015229D01*
X004612Y015111D02*
X004927Y015111D01*
X004927Y014992D02*
X004612Y014992D01*
X004612Y014874D02*
X004927Y014874D01*
X005005Y014755D02*
X004534Y014755D01*
X004656Y013333D02*
X010524Y013333D01*
X010312Y013215D02*
X004790Y013215D01*
X004887Y013096D02*
X010193Y013096D01*
X010075Y012978D02*
X004936Y012978D01*
X004975Y012859D02*
X009956Y012859D01*
X009838Y012741D02*
X004975Y012741D01*
X004975Y012622D02*
X009719Y012622D01*
X009637Y012504D02*
X004929Y012504D01*
X004879Y012385D02*
X006891Y012385D01*
X006772Y012267D02*
X004771Y012267D01*
X004611Y012148D02*
X006654Y012148D01*
X007394Y011082D02*
X008969Y011082D01*
X008850Y010963D02*
X007275Y010963D01*
X007157Y010845D02*
X008732Y010845D01*
X008532Y010726D02*
X007608Y010726D01*
X007726Y010608D02*
X008413Y010608D01*
X008295Y010489D02*
X007845Y010489D01*
X007912Y010371D02*
X008227Y010371D01*
X008227Y010252D02*
X007912Y010252D01*
X007912Y010134D02*
X008227Y010134D01*
X008227Y010015D02*
X007912Y010015D01*
X007912Y009897D02*
X008227Y009897D01*
X008318Y009778D02*
X007822Y009778D01*
X007703Y009660D02*
X008436Y009660D01*
X008555Y009541D02*
X007585Y009541D01*
X007245Y010145D02*
X006820Y009720D01*
X005093Y009720D01*
X004782Y009304D02*
X004578Y009304D01*
X005404Y009304D02*
X010706Y009304D01*
X010600Y009423D02*
X005510Y009423D01*
X004931Y007420D02*
X004691Y007420D01*
X004691Y006904D01*
X004586Y006798D01*
X004043Y006798D01*
X003980Y006862D01*
X003917Y006798D01*
X003374Y006798D01*
X003277Y006895D01*
X003210Y006895D01*
X003210Y006884D01*
X003104Y006779D01*
X002483Y006779D01*
X002377Y006884D01*
X002377Y007420D01*
X002363Y007420D01*
X002363Y007253D01*
X002025Y007253D01*
X002025Y007137D01*
X002363Y007137D01*
X002363Y006938D01*
X002352Y006897D01*
X002331Y006861D01*
X002301Y006831D01*
X002265Y006810D01*
X002224Y006799D01*
X002025Y006799D01*
X002025Y007137D01*
X001909Y007137D01*
X001909Y006799D01*
X001709Y006799D01*
X001669Y006810D01*
X001640Y006826D01*
X001640Y005410D01*
X001803Y005572D01*
X002051Y005675D01*
X003309Y005675D01*
X003557Y005572D01*
X003747Y005382D01*
X003781Y005300D01*
X003990Y005300D01*
X004100Y005254D01*
X004350Y005004D01*
X004434Y004920D01*
X004480Y004810D01*
X004480Y003844D01*
X004782Y003542D01*
X006062Y003542D01*
X006130Y003610D01*
X006130Y003700D01*
X006060Y003700D01*
X006060Y004255D01*
X006245Y004255D01*
X006245Y004265D01*
X006060Y004265D01*
X006050Y004265D01*
X006050Y004820D01*
X005904Y004820D01*
X005863Y004809D01*
X005827Y004788D01*
X005797Y004758D01*
X005776Y004722D01*
X005765Y004681D01*
X005765Y004265D01*
X006050Y004265D01*
X006050Y004255D01*
X006060Y004255D01*
X006060Y004265D01*
X006060Y004820D01*
X006206Y004820D01*
X006247Y004809D01*
X006283Y004788D01*
X006291Y004780D01*
X006350Y004840D01*
X006760Y004840D01*
X006805Y004795D01*
X006850Y004840D01*
X007255Y004840D01*
X007255Y005430D01*
X007181Y005505D01*
X005673Y005505D01*
X005624Y005456D01*
X005630Y005450D01*
X005651Y005414D01*
X005662Y005373D01*
X005662Y005174D01*
X005343Y005174D01*
X005343Y005097D01*
X005343Y004759D01*
X005523Y004759D01*
X005564Y004770D01*
X005600Y004791D01*
X005630Y004821D01*
X005651Y004857D01*
X005662Y004898D01*
X005662Y005097D01*
X005343Y005097D01*
X005267Y005097D01*
X005267Y004759D01*
X005087Y004759D01*
X005046Y004770D01*
X005010Y004791D01*
X004980Y004821D01*
X004959Y004857D01*
X004948Y004898D01*
X004948Y005097D01*
X005267Y005097D01*
X005267Y005174D01*
X004948Y005174D01*
X004948Y005373D01*
X004959Y005414D01*
X004980Y005450D01*
X004986Y005456D01*
X004928Y005514D01*
X004928Y006096D01*
X005005Y006173D01*
X005005Y007346D01*
X004931Y007420D01*
X004943Y007408D02*
X004691Y007408D01*
X004691Y007290D02*
X005005Y007290D01*
X005005Y007171D02*
X004691Y007171D01*
X004691Y007053D02*
X005005Y007053D01*
X005005Y006934D02*
X004691Y006934D01*
X004603Y006816D02*
X005005Y006816D01*
X005005Y006697D02*
X001640Y006697D01*
X001640Y006579D02*
X005005Y006579D01*
X005005Y006460D02*
X001640Y006460D01*
X001640Y006342D02*
X005005Y006342D01*
X005005Y006223D02*
X001640Y006223D01*
X001640Y006105D02*
X004937Y006105D01*
X004928Y005986D02*
X001640Y005986D01*
X001640Y005868D02*
X004928Y005868D01*
X004928Y005749D02*
X001640Y005749D01*
X001640Y005631D02*
X001943Y005631D01*
X001742Y005512D02*
X001640Y005512D01*
X001640Y006816D02*
X001659Y006816D01*
X001909Y006816D02*
X002025Y006816D01*
X002025Y006934D02*
X001909Y006934D01*
X001909Y007053D02*
X002025Y007053D01*
X002025Y007171D02*
X002377Y007171D01*
X002363Y007053D02*
X002377Y007053D01*
X002362Y006934D02*
X002377Y006934D01*
X002446Y006816D02*
X002275Y006816D01*
X002363Y007290D02*
X002377Y007290D01*
X002363Y007408D02*
X002377Y007408D01*
X003141Y006816D02*
X003357Y006816D01*
X003934Y006816D02*
X004026Y006816D01*
X003417Y005631D02*
X004928Y005631D01*
X004930Y005512D02*
X003618Y005512D01*
X003736Y005394D02*
X004954Y005394D01*
X004948Y005275D02*
X004050Y005275D01*
X004198Y005157D02*
X005267Y005157D01*
X005343Y005157D02*
X007255Y005157D01*
X007255Y005275D02*
X005662Y005275D01*
X005656Y005394D02*
X007255Y005394D01*
X007255Y005038D02*
X005662Y005038D01*
X005662Y004920D02*
X007255Y004920D01*
X006811Y004801D02*
X006799Y004801D01*
X006311Y004801D02*
X006261Y004801D01*
X006060Y004801D02*
X006050Y004801D01*
X006050Y004683D02*
X006060Y004683D01*
X006050Y004564D02*
X006060Y004564D01*
X006050Y004446D02*
X006060Y004446D01*
X006050Y004327D02*
X006060Y004327D01*
X006050Y004255D02*
X005765Y004255D01*
X005765Y003839D01*
X005776Y003798D01*
X005797Y003762D01*
X005827Y003732D01*
X005863Y003711D01*
X005904Y003700D01*
X006050Y003700D01*
X006050Y004255D01*
X006050Y004209D02*
X006060Y004209D01*
X006050Y004090D02*
X006060Y004090D01*
X006050Y003972D02*
X006060Y003972D01*
X006050Y003853D02*
X006060Y003853D01*
X006050Y003735D02*
X006060Y003735D01*
X006130Y003616D02*
X004708Y003616D01*
X004590Y003735D02*
X005824Y003735D01*
X005765Y003853D02*
X004480Y003853D01*
X004480Y003972D02*
X005765Y003972D01*
X005765Y004090D02*
X004480Y004090D01*
X004480Y004209D02*
X005765Y004209D01*
X005765Y004327D02*
X004480Y004327D01*
X004480Y004446D02*
X005765Y004446D01*
X005765Y004564D02*
X004480Y004564D01*
X004480Y004683D02*
X005765Y004683D01*
X005849Y004801D02*
X005610Y004801D01*
X005343Y004801D02*
X005267Y004801D01*
X005267Y004920D02*
X005343Y004920D01*
X005343Y005038D02*
X005267Y005038D01*
X005000Y004801D02*
X004480Y004801D01*
X004435Y004920D02*
X004948Y004920D01*
X004948Y005038D02*
X004316Y005038D01*
X003180Y008720D02*
X009305Y008720D01*
X009555Y008470D01*
X009555Y006680D01*
X009055Y006680D02*
X009055Y007720D01*
X009309Y008001D02*
X009315Y008001D01*
X009315Y008119D02*
X007922Y008119D01*
X007933Y008238D02*
X009315Y008238D01*
X009315Y008356D02*
X007908Y008356D01*
X007835Y008475D02*
X009211Y008475D01*
X008801Y008001D02*
X007870Y008001D01*
X007795Y007882D02*
X008713Y007882D01*
X008677Y007764D02*
X007795Y007764D01*
X007795Y007408D02*
X008815Y007408D01*
X008815Y007290D02*
X007795Y007290D01*
X007849Y007171D02*
X008261Y007171D01*
X008245Y007053D02*
X007865Y007053D01*
X007865Y006934D02*
X008245Y006934D01*
X008245Y006816D02*
X007865Y006816D01*
X008734Y007506D02*
X008677Y007645D01*
X008764Y006105D02*
X008846Y006105D01*
X009264Y006105D02*
X009346Y006105D01*
X009764Y006105D02*
X009846Y006105D01*
X010264Y006105D02*
X010472Y006105D01*
X011162Y005986D02*
X014500Y005986D01*
X014500Y005868D02*
X011162Y005868D01*
X011162Y005749D02*
X014500Y005749D01*
X014500Y005631D02*
X014167Y005631D01*
X014368Y005512D02*
X014500Y005512D01*
X014486Y005394D02*
X014500Y005394D01*
X014500Y006816D02*
X014218Y006816D01*
X014344Y006934D02*
X014500Y006934D01*
X014500Y007053D02*
X014408Y007053D01*
X013718Y007053D02*
X013642Y007053D01*
X013642Y006934D02*
X013718Y006934D01*
X013718Y006816D02*
X013642Y006816D01*
X013642Y007290D02*
X013718Y007290D01*
X013718Y007408D02*
X013642Y007408D01*
X013642Y007527D02*
X013718Y007527D01*
X013718Y007645D02*
X013642Y007645D01*
X013390Y009304D02*
X012154Y009304D01*
X011843Y009720D02*
X012595Y009720D01*
X013265Y009720D02*
X013430Y009720D01*
X013680Y009970D01*
X013680Y012500D01*
X013430Y012750D01*
X012305Y012750D01*
X013111Y012148D02*
X013440Y012148D01*
X013440Y012030D02*
X010852Y012030D01*
X010790Y011911D02*
X013440Y011911D01*
X013440Y011793D02*
X013109Y011793D01*
X013271Y011674D02*
X013440Y011674D01*
X013440Y011556D02*
X013379Y011556D01*
X013428Y011437D02*
X013440Y011437D01*
X013440Y012267D02*
X013271Y012267D01*
X013379Y012385D02*
X013440Y012385D01*
X013779Y012741D02*
X013880Y012741D01*
X013880Y012859D02*
X013660Y012859D01*
X013508Y012978D02*
X013880Y012978D01*
X013880Y013096D02*
X013387Y013096D01*
X013290Y013215D02*
X013761Y013215D01*
X013643Y013333D02*
X013156Y013333D01*
X012784Y014755D02*
X014500Y014755D01*
X014500Y014874D02*
X012862Y014874D01*
X012862Y014992D02*
X014500Y014992D01*
X014500Y015111D02*
X012862Y015111D01*
X012862Y015229D02*
X014500Y015229D01*
X014500Y015348D02*
X012862Y015348D01*
X012862Y015466D02*
X014500Y015466D01*
X014500Y015585D02*
X012862Y015585D01*
X012862Y015703D02*
X014500Y015703D01*
X014500Y015822D02*
X012862Y015822D01*
X012862Y015940D02*
X014500Y015940D01*
X014500Y016059D02*
X012761Y016059D01*
X012793Y016414D02*
X014500Y016414D01*
X014500Y016296D02*
X011730Y016296D01*
X011730Y016177D02*
X014500Y016177D01*
X014500Y016533D02*
X012862Y016533D01*
X012862Y016651D02*
X014500Y016651D01*
X014500Y016770D02*
X012862Y016770D01*
X012862Y016888D02*
X014500Y016888D01*
X014500Y017007D02*
X012862Y017007D01*
X012862Y017125D02*
X014500Y017125D01*
X014500Y017244D02*
X012862Y017244D01*
X012862Y017362D02*
X014500Y017362D01*
X014500Y017481D02*
X012862Y017481D01*
X012862Y017599D02*
X014500Y017599D01*
X014500Y017718D02*
X011730Y017718D01*
X011730Y017836D02*
X014500Y017836D01*
X014500Y017955D02*
X011730Y017955D01*
X011730Y018073D02*
X014500Y018073D01*
X014500Y018192D02*
X011730Y018192D01*
X011717Y018310D02*
X014500Y018310D01*
X014500Y018429D02*
X011646Y018429D01*
X011527Y018547D02*
X014500Y018547D01*
X014500Y018666D02*
X011409Y018666D01*
X011740Y018784D02*
X013247Y018784D01*
X013276Y018774D02*
X013347Y018763D01*
X013642Y018763D01*
X013642Y019182D01*
X013718Y019182D01*
X013718Y019258D01*
X014500Y019258D01*
X014433Y019258D02*
X014422Y019327D01*
X014400Y019395D01*
X014368Y019459D01*
X014325Y019518D01*
X014274Y019568D01*
X014216Y019611D01*
X014152Y019643D01*
X014084Y019666D01*
X014013Y019677D01*
X013718Y019677D01*
X013718Y019258D01*
X013642Y019258D01*
X012206Y019258D01*
X012256Y019377D02*
X012954Y019377D01*
X012960Y019395D02*
X012938Y019327D01*
X012927Y019258D01*
X013642Y019258D01*
X013642Y019677D01*
X013347Y019677D01*
X013276Y019666D01*
X013208Y019643D01*
X013144Y019611D01*
X013086Y019568D01*
X013035Y019518D01*
X012992Y019459D01*
X012960Y019395D01*
X013018Y019495D02*
X012287Y019495D01*
X012311Y019614D02*
X013149Y019614D01*
X013078Y019851D02*
X012311Y019851D01*
X012311Y019732D02*
X014500Y019732D01*
X014500Y019614D02*
X014211Y019614D01*
X014342Y019495D02*
X014500Y019495D01*
X014500Y019377D02*
X014406Y019377D01*
X014433Y019258D02*
X013718Y019258D01*
X013718Y019182D02*
X014433Y019182D01*
X014422Y019113D01*
X014400Y019045D01*
X014368Y018981D01*
X014325Y018922D01*
X014274Y018872D01*
X014216Y018829D01*
X014152Y018797D01*
X014084Y018774D01*
X014013Y018763D01*
X013718Y018763D01*
X013718Y019182D01*
X013718Y019140D02*
X013642Y019140D01*
X013642Y019182D02*
X012927Y019182D01*
X012938Y019113D01*
X012960Y019045D01*
X012992Y018981D01*
X013035Y018922D01*
X013086Y018872D01*
X013144Y018829D01*
X013208Y018797D01*
X013276Y018774D01*
X013055Y018903D02*
X011928Y018903D01*
X012047Y019021D02*
X012972Y019021D01*
X012933Y019140D02*
X012138Y019140D01*
X012281Y019969D02*
X012971Y019969D01*
X012922Y020088D02*
X012249Y020088D01*
X012192Y020206D02*
X012906Y020206D01*
X012910Y020325D02*
X012124Y020325D01*
X012023Y020443D02*
X012959Y020443D01*
X013050Y020562D02*
X011904Y020562D01*
X010616Y020562D02*
X005524Y020562D01*
X005643Y020443D02*
X010497Y020443D01*
X010396Y020325D02*
X009771Y020325D01*
X009930Y020206D02*
X010328Y020206D01*
X010271Y020088D02*
X010005Y020088D01*
X010047Y019969D02*
X010239Y019969D01*
X010209Y019851D02*
X010047Y019851D01*
X010047Y019732D02*
X010209Y019732D01*
X010209Y019614D02*
X010047Y019614D01*
X010047Y019495D02*
X010233Y019495D01*
X010264Y019377D02*
X010047Y019377D01*
X010047Y019258D02*
X010314Y019258D01*
X010382Y019140D02*
X010020Y019140D01*
X009967Y019021D02*
X010473Y019021D01*
X010592Y018903D02*
X009870Y018903D01*
X009930Y018784D02*
X010780Y018784D01*
X009555Y018310D02*
X007904Y018310D01*
X007870Y018429D02*
X009437Y018429D01*
X009318Y018547D02*
X007870Y018547D01*
X007870Y018666D02*
X009270Y018666D01*
X009270Y018784D02*
X007870Y018784D01*
X007870Y018903D02*
X008291Y018903D01*
X008300Y018894D02*
X008475Y018821D01*
X008665Y018821D01*
X008840Y018894D01*
X008974Y019028D01*
X009047Y019203D01*
X009047Y019987D01*
X008974Y020162D01*
X008840Y020296D01*
X008665Y020369D01*
X008475Y020369D01*
X008300Y020296D01*
X008166Y020162D01*
X008093Y019987D01*
X008093Y019203D01*
X008166Y019028D01*
X008300Y018894D01*
X008173Y019021D02*
X007967Y019021D01*
X008020Y019140D02*
X008119Y019140D01*
X008093Y019258D02*
X008047Y019258D01*
X008047Y019377D02*
X008093Y019377D01*
X008093Y019495D02*
X008047Y019495D01*
X008047Y019614D02*
X008093Y019614D01*
X008093Y019732D02*
X008047Y019732D01*
X008047Y019851D02*
X008093Y019851D01*
X008093Y019969D02*
X008047Y019969D01*
X008005Y020088D02*
X008135Y020088D01*
X008210Y020206D02*
X007930Y020206D01*
X007771Y020325D02*
X008368Y020325D01*
X008771Y020325D02*
X009368Y020325D01*
X009210Y020206D02*
X008930Y020206D01*
X009005Y020088D02*
X009135Y020088D01*
X009093Y019969D02*
X009047Y019969D01*
X009047Y019851D02*
X009093Y019851D01*
X009093Y019732D02*
X009047Y019732D01*
X009047Y019614D02*
X009093Y019614D01*
X009093Y019495D02*
X009047Y019495D01*
X009047Y019377D02*
X009093Y019377D01*
X009093Y019258D02*
X009047Y019258D01*
X009020Y019140D02*
X009119Y019140D01*
X009173Y019021D02*
X008967Y019021D01*
X008849Y018903D02*
X009270Y018903D01*
X007648Y017718D02*
X001640Y017718D01*
X001640Y017836D02*
X007529Y017836D01*
X007565Y017800D02*
X007565Y017800D01*
X007411Y017955D02*
X001640Y017955D01*
X001640Y018073D02*
X007306Y018073D01*
X007270Y018192D02*
X001640Y018192D01*
X001640Y018310D02*
X007270Y018310D01*
X007270Y018429D02*
X001640Y018429D01*
X001640Y018547D02*
X007270Y018547D01*
X007270Y018666D02*
X001640Y018666D01*
X001640Y018784D02*
X001940Y018784D01*
X001863Y018816D02*
X002038Y018743D01*
X002822Y018743D01*
X002997Y018816D01*
X003131Y018950D01*
X003204Y019125D01*
X003204Y019315D01*
X003131Y019490D01*
X002997Y019624D01*
X002822Y019697D01*
X002038Y019697D01*
X001863Y019624D01*
X001729Y019490D01*
X001656Y019315D01*
X001656Y019125D01*
X001729Y018950D01*
X001863Y018816D01*
X001776Y018903D02*
X001640Y018903D01*
X001640Y019021D02*
X001699Y019021D01*
X001656Y019140D02*
X001640Y019140D01*
X001640Y019258D02*
X001656Y019258D01*
X001640Y019377D02*
X001682Y019377D01*
X001640Y019495D02*
X001734Y019495D01*
X001640Y019614D02*
X001852Y019614D01*
X001864Y019851D02*
X001640Y019851D01*
X001644Y019969D02*
X001751Y019969D01*
X001696Y020088D02*
X001669Y020088D01*
X001640Y019732D02*
X003829Y019732D01*
X003829Y019614D02*
X003008Y019614D01*
X003126Y019495D02*
X003853Y019495D01*
X003884Y019377D02*
X003178Y019377D01*
X003204Y019258D02*
X003934Y019258D01*
X004002Y019140D02*
X003204Y019140D01*
X003161Y019021D02*
X004093Y019021D01*
X004212Y018903D02*
X003084Y018903D01*
X002920Y018784D02*
X004400Y018784D01*
X004612Y017599D02*
X004927Y017599D01*
X004927Y017481D02*
X004612Y017481D01*
X004612Y017362D02*
X004927Y017362D01*
X004927Y017244D02*
X004612Y017244D01*
X004612Y017125D02*
X004927Y017125D01*
X004927Y017007D02*
X004612Y017007D01*
X004612Y016888D02*
X004927Y016888D01*
X004890Y016770D02*
X004612Y016770D01*
X004612Y016651D02*
X004772Y016651D01*
X004653Y016533D02*
X004612Y016533D01*
X003945Y017045D02*
X002505Y017045D01*
X003277Y017362D02*
X001640Y017362D01*
X001640Y017481D02*
X003277Y017481D01*
X003277Y017599D02*
X001640Y017599D01*
X002468Y019763D02*
X002763Y019763D01*
X002834Y019774D01*
X002902Y019797D01*
X002966Y019829D01*
X003024Y019872D01*
X003075Y019922D01*
X003118Y019981D01*
X003150Y020045D01*
X003172Y020113D01*
X003183Y020182D01*
X002468Y020182D01*
X002468Y019763D01*
X002468Y019851D02*
X002392Y019851D01*
X002392Y019969D02*
X002468Y019969D01*
X002468Y020088D02*
X002392Y020088D01*
X002468Y020206D02*
X003948Y020206D01*
X003891Y020088D02*
X003164Y020088D01*
X003109Y019969D02*
X003859Y019969D01*
X003829Y019851D02*
X002996Y019851D01*
X003173Y020325D02*
X004016Y020325D01*
X004117Y020443D02*
X003126Y020443D01*
X003031Y020562D02*
X004236Y020562D01*
X005360Y018784D02*
X007270Y018784D01*
X007270Y018903D02*
X006849Y018903D01*
X006840Y018894D02*
X006974Y019028D01*
X007047Y019203D01*
X007047Y019987D01*
X006974Y020162D01*
X006840Y020296D01*
X006665Y020369D01*
X006475Y020369D01*
X006300Y020296D01*
X006166Y020162D01*
X006093Y019987D01*
X006093Y019203D01*
X006166Y019028D01*
X006300Y018894D01*
X006475Y018821D01*
X006665Y018821D01*
X006840Y018894D01*
X006967Y019021D02*
X007173Y019021D01*
X007119Y019140D02*
X007020Y019140D01*
X007047Y019258D02*
X007093Y019258D01*
X007093Y019377D02*
X007047Y019377D01*
X007047Y019495D02*
X007093Y019495D01*
X007093Y019614D02*
X007047Y019614D01*
X007047Y019732D02*
X007093Y019732D01*
X007093Y019851D02*
X007047Y019851D01*
X007047Y019969D02*
X007093Y019969D01*
X007135Y020088D02*
X007005Y020088D01*
X006930Y020206D02*
X007210Y020206D01*
X007368Y020325D02*
X006771Y020325D01*
X006368Y020325D02*
X005744Y020325D01*
X005812Y020206D02*
X006210Y020206D01*
X006135Y020088D02*
X005869Y020088D01*
X005901Y019969D02*
X006093Y019969D01*
X006093Y019851D02*
X005931Y019851D01*
X005931Y019732D02*
X006093Y019732D01*
X006093Y019614D02*
X005931Y019614D01*
X005907Y019495D02*
X006093Y019495D01*
X006093Y019377D02*
X005876Y019377D01*
X005826Y019258D02*
X006093Y019258D01*
X006119Y019140D02*
X005758Y019140D01*
X005667Y019021D02*
X006173Y019021D01*
X006291Y018903D02*
X005548Y018903D01*
X006262Y017599D02*
X006577Y017599D01*
X006577Y017481D02*
X006262Y017481D01*
X006262Y017362D02*
X006577Y017362D01*
X006577Y017244D02*
X006262Y017244D01*
X006262Y017125D02*
X006577Y017125D01*
X006577Y017007D02*
X006262Y017007D01*
X006262Y016888D02*
X006577Y016888D01*
X006577Y016770D02*
X006262Y016770D01*
X006262Y016651D02*
X006577Y016651D01*
X006577Y016533D02*
X006262Y016533D01*
X006193Y016414D02*
X006646Y016414D01*
X006607Y015940D02*
X006262Y015940D01*
X006262Y015822D02*
X006597Y015822D01*
X006597Y015703D02*
X006262Y015703D01*
X006262Y015585D02*
X006597Y015585D01*
X006597Y015466D02*
X006262Y015466D01*
X006262Y015348D02*
X007185Y015348D01*
X007185Y015335D02*
X006597Y015335D01*
X006597Y014886D01*
X006608Y014846D01*
X006629Y014809D01*
X006659Y014779D01*
X006696Y014758D01*
X006736Y014748D01*
X007185Y014748D01*
X007185Y015335D01*
X007185Y015229D02*
X007305Y015229D01*
X007305Y015111D02*
X007185Y015111D01*
X007185Y014992D02*
X007305Y014992D01*
X007305Y014874D02*
X007185Y014874D01*
X007185Y014755D02*
X007305Y014755D01*
X007781Y014755D02*
X007818Y014755D01*
X007305Y015466D02*
X007185Y015466D01*
X007185Y015585D02*
X007305Y015585D01*
X007305Y015703D02*
X007185Y015703D01*
X007185Y015822D02*
X007305Y015822D01*
X007305Y015940D02*
X007185Y015940D01*
X007818Y016059D02*
X006161Y016059D01*
X006262Y015229D02*
X006597Y015229D01*
X006597Y015111D02*
X006262Y015111D01*
X006262Y014992D02*
X006597Y014992D01*
X006601Y014874D02*
X006262Y014874D01*
X006184Y014755D02*
X006708Y014755D01*
X007599Y012385D02*
X008541Y012385D01*
X008422Y012267D02*
X007717Y012267D01*
X007836Y012148D02*
X008304Y012148D01*
X008227Y012030D02*
X007912Y012030D01*
X007912Y011911D02*
X008227Y011911D01*
X008227Y011793D02*
X007912Y011793D01*
X007912Y011674D02*
X008227Y011674D01*
X008227Y011556D02*
X007912Y011556D01*
X007831Y011437D02*
X008309Y011437D01*
X008427Y011319D02*
X007712Y011319D01*
X007594Y011200D02*
X008546Y011200D01*
X009486Y012148D02*
X009570Y012148D01*
X009562Y012030D02*
X009570Y012030D01*
X009562Y011911D02*
X009570Y011911D01*
X009562Y011793D02*
X009570Y011793D01*
X009570Y012267D02*
X009367Y012267D01*
X009249Y012385D02*
X009588Y012385D01*
X010790Y011793D02*
X011501Y011793D01*
X011339Y011674D02*
X010790Y011674D01*
X010790Y011556D02*
X011231Y011556D01*
X011182Y011437D02*
X010790Y011437D01*
X010790Y011319D02*
X011127Y011319D01*
X011008Y011200D02*
X010745Y011200D01*
X010694Y011082D02*
X010890Y011082D01*
X010796Y010963D02*
X010575Y010963D01*
X010457Y010845D02*
X010777Y010845D01*
X010777Y010726D02*
X010338Y010726D01*
X010220Y010608D02*
X010777Y010608D01*
X010777Y010489D02*
X010101Y010489D01*
X009983Y010371D02*
X010777Y010371D01*
X010777Y010252D02*
X009864Y010252D01*
X009746Y010134D02*
X010703Y010134D01*
X010600Y010015D02*
X009627Y010015D01*
X009562Y009897D02*
X010600Y009897D01*
X010600Y009778D02*
X009472Y009778D01*
X009353Y009660D02*
X010600Y009660D01*
X010600Y009541D02*
X009235Y009541D01*
X011017Y009720D02*
X011017Y010869D01*
X011338Y011190D01*
X012305Y011190D01*
X011532Y009304D02*
X011328Y009304D01*
X011162Y005631D02*
X012693Y005631D01*
X012492Y005512D02*
X011143Y005512D01*
X011182Y005394D02*
X012374Y005394D01*
X012060Y005275D02*
X011182Y005275D01*
X011182Y005157D02*
X011912Y005157D01*
X011794Y005038D02*
X011182Y005038D01*
X011182Y004920D02*
X011675Y004920D01*
X011630Y004801D02*
X011139Y004801D01*
X011630Y004683D02*
X010365Y004683D01*
X010355Y004801D02*
X010471Y004801D01*
X010365Y004564D02*
X011630Y004564D01*
X011630Y004446D02*
X010365Y004446D01*
X010365Y004327D02*
X011630Y004327D01*
X011630Y004209D02*
X010365Y004209D01*
X010365Y004090D02*
X011630Y004090D01*
X011630Y003972D02*
X010365Y003972D01*
X010365Y003853D02*
X011630Y003853D01*
X011520Y003735D02*
X010314Y003735D01*
X010042Y003616D02*
X011402Y003616D01*
X008755Y003616D02*
X007355Y003616D01*
X007355Y003680D02*
X007760Y003680D01*
X007865Y003785D01*
X007865Y004735D01*
X007855Y004745D01*
X007855Y004835D01*
X008846Y004835D01*
X008791Y004780D01*
X008783Y004788D01*
X008747Y004809D01*
X008706Y004820D01*
X008560Y004820D01*
X008560Y004265D01*
X008550Y004265D01*
X008550Y004820D01*
X008404Y004820D01*
X008363Y004809D01*
X008327Y004788D01*
X008297Y004758D01*
X008276Y004722D01*
X008265Y004681D01*
X008265Y004265D01*
X008550Y004265D01*
X008550Y004255D01*
X008560Y004255D01*
X008560Y003700D01*
X008706Y003700D01*
X008747Y003711D01*
X008755Y003716D01*
X008755Y002914D01*
X008715Y002954D01*
X008475Y003093D01*
X008208Y003164D01*
X007931Y003164D01*
X007664Y003093D01*
X007425Y002954D01*
X007355Y002885D01*
X007355Y003680D01*
X007355Y003498D02*
X008755Y003498D01*
X008755Y003379D02*
X007355Y003379D01*
X007355Y003261D02*
X008755Y003261D01*
X008755Y003142D02*
X008291Y003142D01*
X008595Y003024D02*
X008755Y003024D01*
X008550Y003700D02*
X008404Y003700D01*
X008363Y003711D01*
X008327Y003732D01*
X008297Y003762D01*
X008276Y003798D01*
X008265Y003839D01*
X008265Y004255D01*
X008550Y004255D01*
X008550Y003700D01*
X008550Y003735D02*
X008560Y003735D01*
X008550Y003853D02*
X008560Y003853D01*
X008550Y003972D02*
X008560Y003972D01*
X008550Y004090D02*
X008560Y004090D01*
X008550Y004209D02*
X008560Y004209D01*
X008550Y004327D02*
X008560Y004327D01*
X008550Y004446D02*
X008560Y004446D01*
X008550Y004564D02*
X008560Y004564D01*
X008550Y004683D02*
X008560Y004683D01*
X008550Y004801D02*
X008560Y004801D01*
X008761Y004801D02*
X008811Y004801D01*
X008349Y004801D02*
X007855Y004801D01*
X007865Y004683D02*
X008265Y004683D01*
X008265Y004564D02*
X007865Y004564D01*
X007865Y004446D02*
X008265Y004446D01*
X008265Y004327D02*
X007865Y004327D01*
X007865Y004209D02*
X008265Y004209D01*
X008265Y004090D02*
X007865Y004090D01*
X007865Y003972D02*
X008265Y003972D01*
X008265Y003853D02*
X007865Y003853D01*
X007814Y003735D02*
X008324Y003735D01*
X007848Y003142D02*
X007355Y003142D01*
X007355Y003024D02*
X007544Y003024D01*
X007375Y002905D02*
X007355Y002905D01*
X002682Y011437D02*
X002670Y011437D01*
X002670Y011556D02*
X002731Y011556D01*
X002670Y011674D02*
X002839Y011674D01*
X007400Y017966D02*
X007400Y017966D01*
X009562Y015348D02*
X009616Y015348D01*
X009562Y015229D02*
X009734Y015229D01*
X009877Y015111D02*
X009562Y015111D01*
X009562Y014992D02*
X009877Y014992D01*
X009877Y014874D02*
X009562Y014874D01*
X009484Y014755D02*
X009955Y014755D01*
X011134Y014755D02*
X011605Y014755D01*
X011527Y014874D02*
X011212Y014874D01*
X011212Y014992D02*
X011527Y014992D01*
X011527Y015111D02*
X011212Y015111D01*
X011212Y015229D02*
X011422Y015229D01*
X011303Y015348D02*
X011212Y015348D01*
X013642Y018784D02*
X013718Y018784D01*
X013718Y018903D02*
X013642Y018903D01*
X013642Y019021D02*
X013718Y019021D01*
X013642Y019182D02*
X013642Y019258D01*
X013642Y019377D02*
X013718Y019377D01*
X013718Y019495D02*
X013642Y019495D01*
X013642Y019614D02*
X013718Y019614D01*
X014282Y019851D02*
X014500Y019851D01*
X014496Y019969D02*
X014389Y019969D01*
X014438Y020088D02*
X014471Y020088D01*
X014500Y019140D02*
X014427Y019140D01*
X014388Y019021D02*
X014500Y019021D01*
X014500Y018903D02*
X014305Y018903D01*
X014113Y018784D02*
X014500Y018784D01*
D20*
X012305Y012750D02*
X010710Y012750D01*
X010180Y012220D01*
X010180Y011430D01*
X008895Y010145D01*
X007245Y011795D02*
X006640Y011190D01*
X003805Y011190D01*
M02*
