G75*
G70*
%OFA0B0*%
%FSLAX24Y24*%
%IPPOS*%
%LPD*%
%AMOC8*
5,1,8,0,0,1.08239X$1,22.5*
%
%ADD10C,0.0000*%
%ADD11C,0.0030*%
%ADD12C,0.0010*%
%ADD13C,0.0100*%
%ADD14C,0.0060*%
%ADD15C,0.0020*%
%ADD16C,0.0040*%
%ADD17C,0.0050*%
%ADD18R,0.0118X0.0059*%
%ADD19R,0.0118X0.0118*%
%ADD20C,0.0160*%
%ADD21C,0.0120*%
%ADD22R,0.0400X0.0400*%
D10*
X001180Y002114D02*
X001180Y019909D01*
X001182Y019975D01*
X001187Y020041D01*
X001197Y020107D01*
X001210Y020172D01*
X001226Y020236D01*
X001246Y020299D01*
X001270Y020361D01*
X001297Y020421D01*
X001327Y020480D01*
X001361Y020537D01*
X001398Y020592D01*
X001438Y020645D01*
X001480Y020696D01*
X001526Y020744D01*
X001574Y020790D01*
X001625Y020832D01*
X001678Y020872D01*
X001733Y020909D01*
X001790Y020943D01*
X001849Y020973D01*
X001909Y021000D01*
X001971Y021024D01*
X002034Y021044D01*
X002098Y021060D01*
X002163Y021073D01*
X002229Y021083D01*
X002295Y021088D01*
X002361Y021090D01*
X013778Y021090D01*
X013844Y021088D01*
X013910Y021083D01*
X013976Y021073D01*
X014041Y021060D01*
X014105Y021044D01*
X014168Y021024D01*
X014230Y021000D01*
X014290Y020973D01*
X014349Y020943D01*
X014406Y020909D01*
X014461Y020872D01*
X014514Y020832D01*
X014565Y020790D01*
X014613Y020744D01*
X014659Y020696D01*
X014701Y020645D01*
X014741Y020592D01*
X014778Y020537D01*
X014812Y020480D01*
X014842Y020421D01*
X014869Y020361D01*
X014893Y020299D01*
X014913Y020236D01*
X014929Y020172D01*
X014942Y020107D01*
X014952Y020041D01*
X014957Y019975D01*
X014959Y019909D01*
X014960Y019909D02*
X014960Y002114D01*
X014959Y002114D02*
X014957Y002048D01*
X014952Y001982D01*
X014942Y001916D01*
X014929Y001851D01*
X014913Y001787D01*
X014893Y001724D01*
X014869Y001662D01*
X014842Y001602D01*
X014812Y001543D01*
X014778Y001486D01*
X014741Y001431D01*
X014701Y001378D01*
X014659Y001327D01*
X014613Y001279D01*
X014565Y001233D01*
X014514Y001191D01*
X014461Y001151D01*
X014406Y001114D01*
X014349Y001080D01*
X014290Y001050D01*
X014230Y001023D01*
X014168Y000999D01*
X014105Y000979D01*
X014041Y000963D01*
X013976Y000950D01*
X013910Y000940D01*
X013844Y000935D01*
X013778Y000933D01*
X011810Y000933D01*
X011810Y001326D01*
X012400Y001326D01*
X012400Y001917D01*
X010432Y001917D01*
X010432Y001326D01*
X011023Y001326D01*
X011023Y000933D01*
X005117Y000933D01*
X005117Y001326D01*
X005708Y001326D01*
X005708Y001917D01*
X003739Y001917D01*
X003739Y001326D01*
X004330Y001326D01*
X004330Y000933D01*
X002361Y000933D01*
X002295Y000935D01*
X002229Y000940D01*
X002163Y000950D01*
X002098Y000963D01*
X002034Y000979D01*
X001971Y000999D01*
X001909Y001023D01*
X001849Y001050D01*
X001790Y001080D01*
X001733Y001114D01*
X001678Y001151D01*
X001625Y001191D01*
X001574Y001233D01*
X001526Y001279D01*
X001480Y001327D01*
X001438Y001378D01*
X001398Y001431D01*
X001361Y001486D01*
X001327Y001543D01*
X001297Y001602D01*
X001270Y001662D01*
X001246Y001724D01*
X001226Y001787D01*
X001210Y001851D01*
X001197Y001916D01*
X001187Y001982D01*
X001182Y002048D01*
X001180Y002114D01*
X007479Y002114D02*
X007481Y002162D01*
X007487Y002210D01*
X007497Y002257D01*
X007510Y002303D01*
X007528Y002348D01*
X007548Y002392D01*
X007573Y002434D01*
X007601Y002473D01*
X007631Y002510D01*
X007665Y002544D01*
X007702Y002576D01*
X007740Y002605D01*
X007781Y002630D01*
X007824Y002652D01*
X007869Y002670D01*
X007915Y002684D01*
X007962Y002695D01*
X008010Y002702D01*
X008058Y002705D01*
X008106Y002704D01*
X008154Y002699D01*
X008202Y002690D01*
X008248Y002678D01*
X008293Y002661D01*
X008337Y002641D01*
X008379Y002618D01*
X008419Y002591D01*
X008457Y002561D01*
X008492Y002528D01*
X008524Y002492D01*
X008554Y002454D01*
X008580Y002413D01*
X008602Y002370D01*
X008622Y002326D01*
X008637Y002281D01*
X008649Y002234D01*
X008657Y002186D01*
X008661Y002138D01*
X008661Y002090D01*
X008657Y002042D01*
X008649Y001994D01*
X008637Y001947D01*
X008622Y001902D01*
X008602Y001858D01*
X008580Y001815D01*
X008554Y001774D01*
X008524Y001736D01*
X008492Y001700D01*
X008457Y001667D01*
X008419Y001637D01*
X008379Y001610D01*
X008337Y001587D01*
X008293Y001567D01*
X008248Y001550D01*
X008202Y001538D01*
X008154Y001529D01*
X008106Y001524D01*
X008058Y001523D01*
X008010Y001526D01*
X007962Y001533D01*
X007915Y001544D01*
X007869Y001558D01*
X007824Y001576D01*
X007781Y001598D01*
X007740Y001623D01*
X007702Y001652D01*
X007665Y001684D01*
X007631Y001718D01*
X007601Y001755D01*
X007573Y001794D01*
X007548Y001836D01*
X007528Y001880D01*
X007510Y001925D01*
X007497Y001971D01*
X007487Y002018D01*
X007481Y002066D01*
X007479Y002114D01*
X004289Y019720D02*
X004291Y019768D01*
X004297Y019816D01*
X004307Y019863D01*
X004320Y019909D01*
X004338Y019954D01*
X004358Y019998D01*
X004383Y020040D01*
X004411Y020079D01*
X004441Y020116D01*
X004475Y020150D01*
X004512Y020182D01*
X004550Y020211D01*
X004591Y020236D01*
X004634Y020258D01*
X004679Y020276D01*
X004725Y020290D01*
X004772Y020301D01*
X004820Y020308D01*
X004868Y020311D01*
X004916Y020310D01*
X004964Y020305D01*
X005012Y020296D01*
X005058Y020284D01*
X005103Y020267D01*
X005147Y020247D01*
X005189Y020224D01*
X005229Y020197D01*
X005267Y020167D01*
X005302Y020134D01*
X005334Y020098D01*
X005364Y020060D01*
X005390Y020019D01*
X005412Y019976D01*
X005432Y019932D01*
X005447Y019887D01*
X005459Y019840D01*
X005467Y019792D01*
X005471Y019744D01*
X005471Y019696D01*
X005467Y019648D01*
X005459Y019600D01*
X005447Y019553D01*
X005432Y019508D01*
X005412Y019464D01*
X005390Y019421D01*
X005364Y019380D01*
X005334Y019342D01*
X005302Y019306D01*
X005267Y019273D01*
X005229Y019243D01*
X005189Y019216D01*
X005147Y019193D01*
X005103Y019173D01*
X005058Y019156D01*
X005012Y019144D01*
X004964Y019135D01*
X004916Y019130D01*
X004868Y019129D01*
X004820Y019132D01*
X004772Y019139D01*
X004725Y019150D01*
X004679Y019164D01*
X004634Y019182D01*
X004591Y019204D01*
X004550Y019229D01*
X004512Y019258D01*
X004475Y019290D01*
X004441Y019324D01*
X004411Y019361D01*
X004383Y019400D01*
X004358Y019442D01*
X004338Y019486D01*
X004320Y019531D01*
X004307Y019577D01*
X004297Y019624D01*
X004291Y019672D01*
X004289Y019720D01*
X010669Y019720D02*
X010671Y019768D01*
X010677Y019816D01*
X010687Y019863D01*
X010700Y019909D01*
X010718Y019954D01*
X010738Y019998D01*
X010763Y020040D01*
X010791Y020079D01*
X010821Y020116D01*
X010855Y020150D01*
X010892Y020182D01*
X010930Y020211D01*
X010971Y020236D01*
X011014Y020258D01*
X011059Y020276D01*
X011105Y020290D01*
X011152Y020301D01*
X011200Y020308D01*
X011248Y020311D01*
X011296Y020310D01*
X011344Y020305D01*
X011392Y020296D01*
X011438Y020284D01*
X011483Y020267D01*
X011527Y020247D01*
X011569Y020224D01*
X011609Y020197D01*
X011647Y020167D01*
X011682Y020134D01*
X011714Y020098D01*
X011744Y020060D01*
X011770Y020019D01*
X011792Y019976D01*
X011812Y019932D01*
X011827Y019887D01*
X011839Y019840D01*
X011847Y019792D01*
X011851Y019744D01*
X011851Y019696D01*
X011847Y019648D01*
X011839Y019600D01*
X011827Y019553D01*
X011812Y019508D01*
X011792Y019464D01*
X011770Y019421D01*
X011744Y019380D01*
X011714Y019342D01*
X011682Y019306D01*
X011647Y019273D01*
X011609Y019243D01*
X011569Y019216D01*
X011527Y019193D01*
X011483Y019173D01*
X011438Y019156D01*
X011392Y019144D01*
X011344Y019135D01*
X011296Y019130D01*
X011248Y019129D01*
X011200Y019132D01*
X011152Y019139D01*
X011105Y019150D01*
X011059Y019164D01*
X011014Y019182D01*
X010971Y019204D01*
X010930Y019229D01*
X010892Y019258D01*
X010855Y019290D01*
X010821Y019324D01*
X010791Y019361D01*
X010763Y019400D01*
X010738Y019442D01*
X010718Y019486D01*
X010700Y019531D01*
X010687Y019577D01*
X010677Y019624D01*
X010671Y019672D01*
X010669Y019720D01*
D11*
X010060Y020545D02*
X009813Y020545D01*
X009692Y020545D02*
X009445Y020545D01*
X009445Y020607D02*
X009568Y020730D01*
X009692Y020607D01*
X009692Y020360D01*
X009937Y020422D02*
X009937Y020669D01*
X009445Y020607D02*
X009445Y020360D01*
X009060Y020545D02*
X008813Y020545D01*
X008692Y020545D02*
X008445Y020545D01*
X008445Y020607D02*
X008568Y020730D01*
X008692Y020607D01*
X008692Y020360D01*
X008445Y020360D02*
X008445Y020607D01*
X008060Y020545D02*
X007813Y020545D01*
X007692Y020483D02*
X007692Y020422D01*
X007630Y020360D01*
X007445Y020360D01*
X007445Y020730D01*
X007630Y020730D01*
X007692Y020669D01*
X007692Y020607D01*
X007630Y020545D01*
X007445Y020545D01*
X007630Y020545D02*
X007692Y020483D01*
X007937Y020422D02*
X007937Y020669D01*
X007060Y020545D02*
X006813Y020545D01*
X006692Y020483D02*
X006692Y020422D01*
X006630Y020360D01*
X006445Y020360D01*
X006445Y020730D01*
X006630Y020730D01*
X006692Y020669D01*
X006692Y020607D01*
X006630Y020545D01*
X006445Y020545D01*
X006630Y020545D02*
X006692Y020483D01*
X001942Y006420D02*
X001695Y006420D01*
X001818Y002044D02*
X001818Y001797D01*
X001695Y001920D02*
X001942Y001920D01*
X014195Y001920D02*
X014442Y001920D01*
X014318Y006297D02*
X014318Y006544D01*
X014195Y006420D02*
X014442Y006420D01*
D12*
X011856Y009175D02*
X011806Y009225D01*
X011831Y009225D02*
X011756Y009225D01*
X011756Y009175D02*
X011756Y009325D01*
X011831Y009325D01*
X011856Y009300D01*
X011856Y009250D01*
X011831Y009225D01*
X011709Y009175D02*
X011609Y009175D01*
X011609Y009325D01*
X011709Y009325D01*
X011659Y009250D02*
X011609Y009250D01*
X011562Y009325D02*
X011462Y009325D01*
X011512Y009325D02*
X011512Y009175D01*
X011414Y009175D02*
X011414Y009275D01*
X011364Y009325D01*
X011314Y009275D01*
X011314Y009175D01*
X011267Y009175D02*
X011167Y009175D01*
X011167Y009325D01*
X011267Y009325D01*
X011314Y009250D02*
X011414Y009250D01*
X011217Y009250D02*
X011167Y009250D01*
X011120Y009250D02*
X011020Y009250D01*
X011020Y009175D02*
X011020Y009325D01*
X011120Y009325D02*
X011120Y009175D01*
X011873Y002313D02*
X011923Y002263D01*
X011973Y002313D01*
X011973Y002163D01*
X012020Y002163D02*
X012020Y002263D01*
X012070Y002313D01*
X012120Y002263D01*
X012120Y002163D01*
X012167Y002163D02*
X012217Y002163D01*
X012192Y002163D02*
X012192Y002313D01*
X012167Y002313D02*
X012217Y002313D01*
X012265Y002313D02*
X012365Y002163D01*
X012365Y002313D01*
X012265Y002313D02*
X012265Y002163D01*
X012120Y002238D02*
X012020Y002238D01*
X011873Y002163D02*
X011873Y002313D01*
X012560Y002313D02*
X012660Y002313D01*
X012707Y002313D02*
X012707Y002163D01*
X012707Y002238D02*
X012807Y002238D01*
X012855Y002238D02*
X012905Y002238D01*
X012955Y002313D02*
X012855Y002313D01*
X012855Y002163D01*
X012955Y002163D01*
X013002Y002163D02*
X013002Y002313D01*
X013077Y002313D01*
X013102Y002288D01*
X013102Y002238D01*
X013077Y002213D01*
X013002Y002213D01*
X013052Y002213D02*
X013102Y002163D01*
X013149Y002163D02*
X013149Y002313D01*
X013199Y002263D01*
X013249Y002313D01*
X013249Y002163D01*
X013297Y002188D02*
X013322Y002163D01*
X013372Y002163D01*
X013397Y002188D01*
X013397Y002288D01*
X013372Y002313D01*
X013322Y002313D01*
X013297Y002288D01*
X013297Y002188D01*
X012807Y002163D02*
X012807Y002313D01*
X012610Y002313D02*
X012610Y002163D01*
X005366Y009178D02*
X005316Y009228D01*
X005341Y009228D02*
X005266Y009228D01*
X005266Y009178D02*
X005266Y009328D01*
X005341Y009328D01*
X005366Y009303D01*
X005366Y009253D01*
X005341Y009228D01*
X005218Y009178D02*
X005118Y009178D01*
X005118Y009328D01*
X005218Y009328D01*
X005168Y009253D02*
X005118Y009253D01*
X005071Y009328D02*
X004971Y009328D01*
X005021Y009328D02*
X005021Y009178D01*
X004924Y009178D02*
X004924Y009278D01*
X004874Y009328D01*
X004824Y009278D01*
X004824Y009178D01*
X004776Y009178D02*
X004676Y009178D01*
X004676Y009328D01*
X004776Y009328D01*
X004824Y009253D02*
X004924Y009253D01*
X004726Y009253D02*
X004676Y009253D01*
X004629Y009253D02*
X004529Y009253D01*
X004529Y009178D02*
X004529Y009328D01*
X004629Y009328D02*
X004629Y009178D01*
X004482Y009152D02*
X004382Y009152D01*
X004334Y009178D02*
X004234Y009328D01*
X004187Y009328D02*
X004187Y009203D01*
X004162Y009178D01*
X004112Y009178D01*
X004087Y009203D01*
X004087Y009328D01*
X004040Y009278D02*
X004040Y009178D01*
X004040Y009253D02*
X003940Y009253D01*
X003940Y009278D02*
X003990Y009328D01*
X004040Y009278D01*
X003940Y009278D02*
X003940Y009178D01*
X004234Y009178D02*
X004334Y009328D01*
X002717Y006878D02*
X002742Y006853D01*
X002742Y006803D01*
X002717Y006778D01*
X002642Y006778D01*
X002692Y006778D02*
X002742Y006728D01*
X002642Y006728D02*
X002642Y006878D01*
X002717Y006878D01*
X002595Y006878D02*
X002495Y006878D01*
X002495Y006728D01*
X002595Y006728D01*
X002545Y006803D02*
X002495Y006803D01*
X002448Y006728D02*
X002448Y006878D01*
X002348Y006878D02*
X002348Y006728D01*
X002398Y006778D01*
X002448Y006728D01*
X002300Y006753D02*
X002300Y006853D01*
X002275Y006878D01*
X002225Y006878D01*
X002200Y006853D01*
X002200Y006753D01*
X002225Y006728D01*
X002275Y006728D01*
X002300Y006753D01*
X002153Y006803D02*
X002128Y006778D01*
X002053Y006778D01*
X002053Y006728D02*
X002053Y006878D01*
X002128Y006878D01*
X002153Y006853D01*
X002153Y006803D01*
X002762Y002278D02*
X002712Y002228D01*
X002712Y002128D01*
X002712Y002203D02*
X002812Y002203D01*
X002812Y002228D02*
X002812Y002128D01*
X002859Y002153D02*
X002884Y002128D01*
X002934Y002128D01*
X002959Y002153D01*
X002959Y002278D01*
X003006Y002278D02*
X003106Y002128D01*
X003006Y002128D02*
X003106Y002278D01*
X003301Y002278D02*
X003401Y002278D01*
X003448Y002278D02*
X003448Y002128D01*
X003448Y002203D02*
X003548Y002203D01*
X003596Y002203D02*
X003646Y002203D01*
X003696Y002278D02*
X003596Y002278D01*
X003596Y002128D01*
X003696Y002128D01*
X003743Y002128D02*
X003743Y002278D01*
X003818Y002278D01*
X003843Y002253D01*
X003843Y002203D01*
X003818Y002178D01*
X003743Y002178D01*
X003793Y002178D02*
X003843Y002128D01*
X003890Y002128D02*
X003890Y002278D01*
X003940Y002228D01*
X003990Y002278D01*
X003990Y002128D01*
X004038Y002153D02*
X004038Y002253D01*
X004063Y002278D01*
X004113Y002278D01*
X004138Y002253D01*
X004138Y002153D01*
X004113Y002128D01*
X004063Y002128D01*
X004038Y002153D01*
X003548Y002128D02*
X003548Y002278D01*
X003351Y002278D02*
X003351Y002128D01*
X002859Y002153D02*
X002859Y002278D01*
X002812Y002228D02*
X002762Y002278D01*
D13*
X006987Y002114D02*
X006989Y002179D01*
X006995Y002245D01*
X007005Y002309D01*
X007018Y002373D01*
X007036Y002436D01*
X007057Y002498D01*
X007082Y002558D01*
X007111Y002617D01*
X007143Y002674D01*
X007179Y002729D01*
X007217Y002782D01*
X007259Y002832D01*
X007304Y002880D01*
X007352Y002925D01*
X007402Y002967D01*
X007455Y003005D01*
X007510Y003041D01*
X007567Y003073D01*
X007626Y003102D01*
X007686Y003127D01*
X007748Y003148D01*
X007811Y003166D01*
X007875Y003179D01*
X007939Y003189D01*
X008005Y003195D01*
X008070Y003197D01*
X008135Y003195D01*
X008201Y003189D01*
X008265Y003179D01*
X008329Y003166D01*
X008392Y003148D01*
X008454Y003127D01*
X008514Y003102D01*
X008573Y003073D01*
X008630Y003041D01*
X008685Y003005D01*
X008738Y002967D01*
X008788Y002925D01*
X008836Y002880D01*
X008881Y002832D01*
X008923Y002782D01*
X008961Y002729D01*
X008997Y002674D01*
X009029Y002617D01*
X009058Y002558D01*
X009083Y002498D01*
X009104Y002436D01*
X009122Y002373D01*
X009135Y002309D01*
X009145Y002245D01*
X009151Y002179D01*
X009153Y002114D01*
X009151Y002049D01*
X009145Y001983D01*
X009135Y001919D01*
X009122Y001855D01*
X009104Y001792D01*
X009083Y001730D01*
X009058Y001670D01*
X009029Y001611D01*
X008997Y001554D01*
X008961Y001499D01*
X008923Y001446D01*
X008881Y001396D01*
X008836Y001348D01*
X008788Y001303D01*
X008738Y001261D01*
X008685Y001223D01*
X008630Y001187D01*
X008573Y001155D01*
X008514Y001126D01*
X008454Y001101D01*
X008392Y001080D01*
X008329Y001062D01*
X008265Y001049D01*
X008201Y001039D01*
X008135Y001033D01*
X008070Y001031D01*
X008005Y001033D01*
X007939Y001039D01*
X007875Y001049D01*
X007811Y001062D01*
X007748Y001080D01*
X007686Y001101D01*
X007626Y001126D01*
X007567Y001155D01*
X007510Y001187D01*
X007455Y001223D01*
X007402Y001261D01*
X007352Y001303D01*
X007304Y001348D01*
X007259Y001396D01*
X007217Y001446D01*
X007179Y001499D01*
X007143Y001554D01*
X007111Y001611D01*
X007082Y001670D01*
X007057Y001730D01*
X007036Y001792D01*
X007018Y001855D01*
X007005Y001919D01*
X006995Y001983D01*
X006989Y002049D01*
X006987Y002114D01*
X012430Y006705D02*
X013180Y006705D01*
X013180Y008705D01*
X014930Y008705D01*
X014930Y006705D01*
X013180Y006705D01*
X012430Y006705D02*
X012430Y008705D01*
X013180Y008705D01*
X010070Y018345D02*
X006070Y018345D01*
X006070Y020095D01*
X010070Y020095D01*
X010070Y018345D01*
X010177Y019720D02*
X010179Y019785D01*
X010185Y019851D01*
X010195Y019915D01*
X010208Y019979D01*
X010226Y020042D01*
X010247Y020104D01*
X010272Y020164D01*
X010301Y020223D01*
X010333Y020280D01*
X010369Y020335D01*
X010407Y020388D01*
X010449Y020438D01*
X010494Y020486D01*
X010542Y020531D01*
X010592Y020573D01*
X010645Y020611D01*
X010700Y020647D01*
X010757Y020679D01*
X010816Y020708D01*
X010876Y020733D01*
X010938Y020754D01*
X011001Y020772D01*
X011065Y020785D01*
X011129Y020795D01*
X011195Y020801D01*
X011260Y020803D01*
X011325Y020801D01*
X011391Y020795D01*
X011455Y020785D01*
X011519Y020772D01*
X011582Y020754D01*
X011644Y020733D01*
X011704Y020708D01*
X011763Y020679D01*
X011820Y020647D01*
X011875Y020611D01*
X011928Y020573D01*
X011978Y020531D01*
X012026Y020486D01*
X012071Y020438D01*
X012113Y020388D01*
X012151Y020335D01*
X012187Y020280D01*
X012219Y020223D01*
X012248Y020164D01*
X012273Y020104D01*
X012294Y020042D01*
X012312Y019979D01*
X012325Y019915D01*
X012335Y019851D01*
X012341Y019785D01*
X012343Y019720D01*
X012341Y019655D01*
X012335Y019589D01*
X012325Y019525D01*
X012312Y019461D01*
X012294Y019398D01*
X012273Y019336D01*
X012248Y019276D01*
X012219Y019217D01*
X012187Y019160D01*
X012151Y019105D01*
X012113Y019052D01*
X012071Y019002D01*
X012026Y018954D01*
X011978Y018909D01*
X011928Y018867D01*
X011875Y018829D01*
X011820Y018793D01*
X011763Y018761D01*
X011704Y018732D01*
X011644Y018707D01*
X011582Y018686D01*
X011519Y018668D01*
X011455Y018655D01*
X011391Y018645D01*
X011325Y018639D01*
X011260Y018637D01*
X011195Y018639D01*
X011129Y018645D01*
X011065Y018655D01*
X011001Y018668D01*
X010938Y018686D01*
X010876Y018707D01*
X010816Y018732D01*
X010757Y018761D01*
X010700Y018793D01*
X010645Y018829D01*
X010592Y018867D01*
X010542Y018909D01*
X010494Y018954D01*
X010449Y019002D01*
X010407Y019052D01*
X010369Y019105D01*
X010333Y019160D01*
X010301Y019217D01*
X010272Y019276D01*
X010247Y019336D01*
X010226Y019398D01*
X010208Y019461D01*
X010195Y019525D01*
X010185Y019589D01*
X010179Y019655D01*
X010177Y019720D01*
X010070Y020095D02*
X010070Y020845D01*
X006070Y020845D01*
X006070Y020095D01*
X003797Y019720D02*
X003799Y019785D01*
X003805Y019851D01*
X003815Y019915D01*
X003828Y019979D01*
X003846Y020042D01*
X003867Y020104D01*
X003892Y020164D01*
X003921Y020223D01*
X003953Y020280D01*
X003989Y020335D01*
X004027Y020388D01*
X004069Y020438D01*
X004114Y020486D01*
X004162Y020531D01*
X004212Y020573D01*
X004265Y020611D01*
X004320Y020647D01*
X004377Y020679D01*
X004436Y020708D01*
X004496Y020733D01*
X004558Y020754D01*
X004621Y020772D01*
X004685Y020785D01*
X004749Y020795D01*
X004815Y020801D01*
X004880Y020803D01*
X004945Y020801D01*
X005011Y020795D01*
X005075Y020785D01*
X005139Y020772D01*
X005202Y020754D01*
X005264Y020733D01*
X005324Y020708D01*
X005383Y020679D01*
X005440Y020647D01*
X005495Y020611D01*
X005548Y020573D01*
X005598Y020531D01*
X005646Y020486D01*
X005691Y020438D01*
X005733Y020388D01*
X005771Y020335D01*
X005807Y020280D01*
X005839Y020223D01*
X005868Y020164D01*
X005893Y020104D01*
X005914Y020042D01*
X005932Y019979D01*
X005945Y019915D01*
X005955Y019851D01*
X005961Y019785D01*
X005963Y019720D01*
X005961Y019655D01*
X005955Y019589D01*
X005945Y019525D01*
X005932Y019461D01*
X005914Y019398D01*
X005893Y019336D01*
X005868Y019276D01*
X005839Y019217D01*
X005807Y019160D01*
X005771Y019105D01*
X005733Y019052D01*
X005691Y019002D01*
X005646Y018954D01*
X005598Y018909D01*
X005548Y018867D01*
X005495Y018829D01*
X005440Y018793D01*
X005383Y018761D01*
X005324Y018732D01*
X005264Y018707D01*
X005202Y018686D01*
X005139Y018668D01*
X005075Y018655D01*
X005011Y018645D01*
X004945Y018639D01*
X004880Y018637D01*
X004815Y018639D01*
X004749Y018645D01*
X004685Y018655D01*
X004621Y018668D01*
X004558Y018686D01*
X004496Y018707D01*
X004436Y018732D01*
X004377Y018761D01*
X004320Y018793D01*
X004265Y018829D01*
X004212Y018867D01*
X004162Y018909D01*
X004114Y018954D01*
X004069Y019002D01*
X004027Y019052D01*
X003989Y019105D01*
X003953Y019160D01*
X003921Y019217D01*
X003892Y019276D01*
X003867Y019336D01*
X003846Y019398D01*
X003828Y019461D01*
X003815Y019525D01*
X003805Y019589D01*
X003799Y019655D01*
X003797Y019720D01*
X003680Y018720D02*
X002930Y018720D01*
X002930Y020720D01*
X003680Y020720D01*
X003680Y018720D01*
X002930Y018720D02*
X001180Y018720D01*
X001180Y020720D01*
X002930Y020720D01*
X012430Y020720D02*
X012430Y018720D01*
X013180Y018720D01*
X013180Y020720D01*
X014930Y020720D01*
X014930Y018720D01*
X013180Y018720D01*
X013180Y020720D02*
X012430Y020720D01*
D14*
X010293Y014003D02*
X010080Y014003D01*
X009973Y013896D01*
X009755Y014003D02*
X009542Y014003D01*
X009649Y014003D02*
X009649Y013469D01*
X009542Y013363D01*
X009435Y013363D01*
X009328Y013469D01*
X009973Y013469D02*
X010080Y013363D01*
X010293Y013363D01*
X010400Y013469D01*
X010400Y013576D01*
X010293Y013683D01*
X010186Y013683D01*
X010293Y013683D02*
X010400Y013790D01*
X010400Y013896D01*
X010293Y014003D01*
X006812Y013758D02*
X006385Y013758D01*
X006705Y014078D01*
X006705Y013438D01*
X006167Y014078D02*
X005954Y014078D01*
X006060Y014078D02*
X006060Y013544D01*
X005954Y013438D01*
X005847Y013438D01*
X005740Y013544D01*
X004205Y006891D02*
X003991Y006891D01*
X003885Y006784D01*
X003667Y006891D02*
X003454Y006891D01*
X003560Y006891D02*
X003560Y006357D01*
X003454Y006250D01*
X003347Y006250D01*
X003240Y006357D01*
X003885Y006250D02*
X004312Y006677D01*
X004312Y006784D01*
X004205Y006891D01*
X004312Y006250D02*
X003885Y006250D01*
X005805Y006090D02*
X005805Y004850D01*
X005807Y004827D01*
X005812Y004804D01*
X005821Y004782D01*
X005834Y004762D01*
X005849Y004744D01*
X005867Y004729D01*
X005887Y004716D01*
X005909Y004707D01*
X005932Y004702D01*
X005955Y004700D01*
X007655Y004700D01*
X007678Y004702D01*
X007701Y004707D01*
X007723Y004716D01*
X007743Y004729D01*
X007761Y004744D01*
X007776Y004762D01*
X007789Y004782D01*
X007798Y004804D01*
X007803Y004827D01*
X007805Y004850D01*
X007805Y006090D01*
X007803Y006113D01*
X007798Y006136D01*
X007789Y006158D01*
X007776Y006178D01*
X007761Y006196D01*
X007743Y006211D01*
X007723Y006224D01*
X007701Y006233D01*
X007678Y006238D01*
X007655Y006240D01*
X005955Y006240D01*
X005932Y006238D01*
X005909Y006233D01*
X005887Y006224D01*
X005867Y006211D01*
X005849Y006196D01*
X005834Y006178D01*
X005821Y006158D01*
X005812Y006136D01*
X005807Y006113D01*
X005805Y006090D01*
X005805Y005670D02*
X005832Y005668D01*
X005859Y005663D01*
X005885Y005653D01*
X005909Y005641D01*
X005931Y005625D01*
X005951Y005607D01*
X005968Y005585D01*
X005983Y005562D01*
X005993Y005537D01*
X006001Y005511D01*
X006005Y005484D01*
X006005Y005456D01*
X006001Y005429D01*
X005993Y005403D01*
X005983Y005378D01*
X005968Y005355D01*
X005951Y005333D01*
X005931Y005315D01*
X005909Y005299D01*
X005885Y005287D01*
X005859Y005277D01*
X005832Y005272D01*
X005805Y005270D01*
X008305Y005270D02*
X008332Y005272D01*
X008359Y005277D01*
X008385Y005287D01*
X008409Y005299D01*
X008431Y005315D01*
X008451Y005333D01*
X008468Y005355D01*
X008483Y005378D01*
X008493Y005403D01*
X008501Y005429D01*
X008505Y005456D01*
X008505Y005484D01*
X008501Y005511D01*
X008493Y005537D01*
X008483Y005562D01*
X008468Y005585D01*
X008451Y005607D01*
X008431Y005625D01*
X008409Y005641D01*
X008385Y005653D01*
X008359Y005663D01*
X008332Y005668D01*
X008305Y005670D01*
X008305Y006090D02*
X008305Y004850D01*
X008307Y004827D01*
X008312Y004804D01*
X008321Y004782D01*
X008334Y004762D01*
X008349Y004744D01*
X008367Y004729D01*
X008387Y004716D01*
X008409Y004707D01*
X008432Y004702D01*
X008455Y004700D01*
X010155Y004700D01*
X010178Y004702D01*
X010201Y004707D01*
X010223Y004716D01*
X010243Y004729D01*
X010261Y004744D01*
X010276Y004762D01*
X010289Y004782D01*
X010298Y004804D01*
X010303Y004827D01*
X010305Y004850D01*
X010305Y006090D01*
X010303Y006113D01*
X010298Y006136D01*
X010289Y006158D01*
X010276Y006178D01*
X010261Y006196D01*
X010243Y006211D01*
X010223Y006224D01*
X010201Y006233D01*
X010178Y006238D01*
X010155Y006240D01*
X008455Y006240D01*
X008432Y006238D01*
X008409Y006233D01*
X008387Y006224D01*
X008367Y006211D01*
X008349Y006196D01*
X008334Y006178D01*
X008321Y006158D01*
X008312Y006136D01*
X008307Y006113D01*
X008305Y006090D01*
X011928Y006357D02*
X012034Y006250D01*
X012141Y006250D01*
X012248Y006357D01*
X012248Y006891D01*
X012141Y006891D02*
X012355Y006891D01*
X012572Y006677D02*
X012786Y006891D01*
X012786Y006250D01*
X012999Y006250D02*
X012572Y006250D01*
D15*
X012295Y008215D02*
X012075Y008362D01*
X012185Y008436D02*
X012075Y008546D01*
X012295Y008546D01*
X012185Y008583D02*
X012185Y008436D01*
X012295Y008362D02*
X012075Y008215D01*
X012651Y009157D02*
X012651Y009377D01*
X012761Y009377D01*
X012798Y009341D01*
X012798Y009267D01*
X012761Y009231D01*
X012651Y009231D01*
X012724Y009231D02*
X012798Y009157D01*
X012872Y009157D02*
X013019Y009304D01*
X013019Y009341D01*
X012982Y009377D01*
X012909Y009377D01*
X012872Y009341D01*
X012872Y009157D02*
X013019Y009157D01*
X010305Y004840D02*
X008305Y004840D01*
X007805Y004840D02*
X005805Y004840D01*
X003968Y006700D02*
X003895Y006700D01*
X003858Y006737D01*
X003784Y006700D02*
X003710Y006774D01*
X003747Y006774D02*
X003637Y006774D01*
X003637Y006700D02*
X003637Y006921D01*
X003747Y006921D01*
X003784Y006884D01*
X003784Y006810D01*
X003747Y006774D01*
X003858Y006884D02*
X003895Y006921D01*
X003968Y006921D01*
X004005Y006884D01*
X004005Y006847D01*
X003968Y006810D01*
X004005Y006774D01*
X004005Y006737D01*
X003968Y006700D01*
X003968Y006810D02*
X003931Y006810D01*
X003331Y009157D02*
X003184Y009157D01*
X003110Y009157D02*
X003037Y009231D01*
X003074Y009231D02*
X002963Y009231D01*
X002963Y009157D02*
X002963Y009377D01*
X003074Y009377D01*
X003110Y009341D01*
X003110Y009267D01*
X003074Y009231D01*
X003184Y009304D02*
X003258Y009377D01*
X003258Y009157D01*
X002584Y020793D02*
X002510Y020793D01*
X002473Y020829D01*
X002399Y020793D02*
X002253Y021013D01*
X002399Y021013D02*
X002253Y020793D01*
X002473Y020976D02*
X002510Y021013D01*
X002584Y021013D01*
X002620Y020976D01*
X002620Y020939D01*
X002584Y020903D01*
X002620Y020866D01*
X002620Y020829D01*
X002584Y020793D01*
X002584Y020903D02*
X002547Y020903D01*
X013503Y020855D02*
X013649Y021075D01*
X013723Y021038D02*
X013760Y021075D01*
X013834Y021075D01*
X013870Y021038D01*
X013870Y021002D01*
X013723Y020855D01*
X013870Y020855D01*
X013649Y020855D02*
X013503Y021075D01*
D16*
X005940Y020834D02*
X005940Y020594D01*
X005940Y020714D02*
X005579Y020714D01*
X005699Y020594D01*
X005579Y020465D02*
X005940Y020225D01*
X005940Y020465D02*
X005579Y020225D01*
X005564Y006700D02*
X005564Y006240D01*
X005717Y006240D02*
X005410Y006240D01*
X005257Y006317D02*
X005180Y006240D01*
X005027Y006240D01*
X004950Y006317D01*
X004950Y006624D01*
X005027Y006700D01*
X005180Y006700D01*
X005257Y006624D01*
X005410Y006547D02*
X005564Y006700D01*
X005630Y003349D02*
X005630Y003042D01*
X005400Y003272D01*
X005860Y003272D01*
X005783Y002889D02*
X005860Y002812D01*
X005860Y002658D01*
X005783Y002582D01*
X005476Y002582D01*
X005400Y002658D01*
X005400Y002812D01*
X005476Y002889D01*
X010225Y002990D02*
X010225Y003143D01*
X010301Y003220D01*
X010378Y003220D01*
X010455Y003143D01*
X010532Y003220D01*
X010608Y003220D01*
X010685Y003143D01*
X010685Y002990D01*
X010608Y002913D01*
X010608Y002759D02*
X010685Y002683D01*
X010685Y002529D01*
X010608Y002453D01*
X010301Y002453D01*
X010225Y002529D01*
X010225Y002683D01*
X010301Y002759D01*
X010301Y002913D02*
X010225Y002990D01*
X010455Y003066D02*
X010455Y003143D01*
X010527Y006240D02*
X010450Y006317D01*
X010450Y006624D01*
X010527Y006700D01*
X010680Y006700D01*
X010757Y006624D01*
X010910Y006624D02*
X010987Y006700D01*
X011141Y006700D01*
X011217Y006624D01*
X011217Y006547D01*
X010910Y006240D01*
X011217Y006240D01*
X010757Y006317D02*
X010680Y006240D01*
X010527Y006240D01*
D17*
X010070Y008970D02*
X008570Y008970D01*
X008570Y008470D01*
X007570Y008470D01*
X007570Y008970D01*
X006070Y008970D01*
X006070Y012970D01*
X010070Y012970D01*
X010070Y008970D01*
X008740Y013280D02*
X007400Y013280D01*
X007400Y014280D01*
X002800Y014280D01*
X002800Y018160D01*
X013340Y018160D01*
X013340Y014280D01*
X008740Y014280D01*
X008740Y013280D01*
X008740Y014280D02*
X007400Y014280D01*
D18*
X004739Y009956D03*
X004739Y009484D03*
X002321Y007431D03*
X002321Y006959D03*
X011371Y009484D03*
X011371Y009956D03*
D19*
X011371Y009720D03*
X004739Y009720D03*
X002321Y007195D03*
D20*
X001180Y005920D02*
X004180Y005920D01*
X004180Y002520D01*
X001180Y002520D01*
X000180Y002520D01*
X000180Y005920D01*
X001180Y005920D01*
X001305Y010270D02*
X002305Y010270D01*
X005305Y010270D01*
X005305Y013670D01*
X002305Y013670D01*
X001305Y013670D01*
X001305Y010270D01*
X010805Y010270D02*
X010805Y013670D01*
X013805Y013670D01*
X014805Y013670D01*
X014805Y010270D01*
X013805Y010270D01*
X010805Y010270D01*
X011930Y005920D02*
X014930Y005920D01*
X015930Y005920D01*
X015930Y002520D01*
X014930Y002520D01*
X011930Y002520D01*
X011930Y005920D01*
D21*
X014930Y005920D02*
X014930Y002520D01*
X013805Y010270D02*
X013805Y013670D01*
X002305Y013670D02*
X002305Y010270D01*
X001180Y005920D02*
X001180Y002520D01*
D22*
X002680Y003440D03*
X002680Y005000D03*
X003805Y011190D03*
X003805Y012750D03*
X012305Y012750D03*
X012305Y011190D03*
X013430Y005000D03*
X013430Y003440D03*
M02*
