%
M48
M72
T01C0.0236
T02C0.0394
T03C0.0650
T04C0.0660
T05C0.1181
%
T01
X5493Y3720
X8055Y3720
X10680Y3720
X9055Y7720
X10055Y8220
X8070Y9220
X7555Y8220
X6555Y7720
X3180Y8720
X2180Y8220
X1680Y16220
X14070Y14720
T02
X13680Y19220
X13680Y20220
X9570Y19595
X8570Y19595
X7570Y19595
X6570Y19595
X2430Y19220
X2430Y20220
X13680Y8205
X13680Y7205
T03
X8895Y10145
X8895Y11795
X7245Y11795
X7245Y10145
X7245Y15395
X7245Y17045
X5595Y17045
X5595Y15395
X3945Y15395
X3945Y17045
X8895Y17045
X8895Y15395
X10545Y15395
X10545Y17045
X12195Y17045
X12195Y15395
T04
X2680Y3440
X2680Y5000
X3805Y11190
X3805Y12750
X12305Y12750
X12305Y11190
X13430Y5000
X13430Y3440
T05
X8070Y2114
X4880Y19720
X11260Y19720
M30
