G75*
G70*
%OFA0B0*%
%FSLAX24Y24*%
%IPPOS*%
%LPD*%
%AMOC8*
5,1,8,0,0,1.08239X$1,22.5*
%
%ADD10R,0.0975X0.0975*%
%ADD11OC8,0.0975*%
%ADD12C,0.0594*%
%ADD13C,0.0990*%
%ADD14C,0.0396*%
%ADD15C,0.0120*%
%ADD16C,0.0240*%
%ADD17C,0.0320*%
%ADD18C,0.0357*%
%ADD19C,0.0860*%
D10*
X003945Y015395D03*
X003945Y017045D03*
X005595Y017045D03*
X005595Y015395D03*
X007245Y015395D03*
X007245Y017045D03*
X008895Y017045D03*
X008895Y015395D03*
X010545Y015395D03*
X010545Y017045D03*
X012195Y017045D03*
X012195Y015395D03*
D11*
X008895Y011795D03*
X008895Y010145D03*
X007245Y010145D03*
X007245Y011795D03*
D12*
X007570Y019298D02*
X007570Y019892D01*
X006570Y019892D02*
X006570Y019298D01*
X008570Y019298D02*
X008570Y019892D01*
X009570Y019892D02*
X009570Y019298D01*
X013383Y019220D02*
X013977Y019220D01*
X013977Y020220D02*
X013383Y020220D01*
X013383Y008205D02*
X013977Y008205D01*
X013977Y007205D02*
X013383Y007205D01*
X002727Y019220D02*
X002133Y019220D01*
X002133Y020220D02*
X002727Y020220D01*
D13*
X003310Y012750D02*
X004300Y012750D01*
X004300Y011190D02*
X003310Y011190D01*
X003175Y005000D02*
X002185Y005000D01*
X002185Y003440D02*
X003175Y003440D01*
X011810Y011190D02*
X012800Y011190D01*
X012800Y012750D02*
X011810Y012750D01*
X012935Y005000D02*
X013925Y005000D01*
X013925Y003440D02*
X012935Y003440D01*
D14*
X013680Y006220D03*
X010680Y003720D03*
X008055Y003720D03*
X005493Y003720D03*
X002445Y006220D03*
X008070Y009220D03*
X002180Y017220D03*
X003945Y018455D03*
X012180Y018455D03*
X013680Y017720D03*
D15*
X014180Y015395D02*
X012195Y015395D01*
X014180Y015395D02*
X014430Y015145D01*
X014430Y006470D01*
X014180Y006220D01*
X013680Y006220D01*
X010055Y007845D02*
X007555Y007845D01*
X006055Y007845D01*
X005930Y007970D01*
X006555Y007470D02*
X009055Y007470D01*
D16*
X001750Y001861D02*
X001837Y001711D01*
X001959Y001589D01*
X002108Y001503D01*
X002108Y001503D01*
X002275Y001458D01*
X002361Y001453D01*
X003219Y001453D01*
X003219Y002020D01*
X003298Y002211D01*
X003444Y002358D01*
X003636Y002437D01*
X005811Y002437D01*
X006002Y002358D01*
X006148Y002211D01*
X006228Y002020D01*
X006228Y001453D01*
X007169Y001453D01*
X007035Y001685D01*
X006959Y001967D01*
X006959Y002260D01*
X007035Y002542D01*
X007181Y002796D01*
X007388Y003002D01*
X007641Y003149D01*
X007924Y003224D01*
X008216Y003224D01*
X008498Y003149D01*
X008752Y003002D01*
X008958Y002796D01*
X009105Y002542D01*
X009180Y002260D01*
X009180Y001967D01*
X009105Y001685D01*
X008970Y001453D01*
X009912Y001453D01*
X009912Y002020D01*
X009991Y002211D01*
X010137Y002358D01*
X010329Y002437D01*
X012504Y002437D01*
X012695Y002358D01*
X012841Y002211D01*
X012920Y002020D01*
X012920Y001453D01*
X013778Y001453D01*
X013865Y001458D01*
X014031Y001503D01*
X014181Y001589D01*
X014303Y001711D01*
X014389Y001861D01*
X014434Y002027D01*
X014440Y002114D01*
X014440Y002915D01*
X014341Y002817D01*
X014071Y002705D01*
X012789Y002705D01*
X012519Y002817D01*
X012312Y003024D01*
X012200Y003294D01*
X012200Y003586D01*
X012312Y003856D01*
X012519Y004063D01*
X012789Y004175D01*
X014071Y004175D01*
X014341Y004063D01*
X014440Y003965D01*
X014440Y004475D01*
X014341Y004377D01*
X014071Y004265D01*
X012789Y004265D01*
X012519Y004377D01*
X012312Y004584D01*
X012200Y004854D01*
X012200Y005146D01*
X012312Y005416D01*
X012519Y005623D01*
X012789Y005735D01*
X014071Y005735D01*
X014341Y005623D01*
X014440Y005525D01*
X014440Y006055D01*
X014350Y005966D01*
X014240Y005920D01*
X014000Y005920D01*
X013928Y005849D01*
X013767Y005782D01*
X013593Y005782D01*
X013432Y005849D01*
X013309Y005972D01*
X013242Y006133D01*
X013242Y006307D01*
X013309Y006468D01*
X013432Y006591D01*
X013593Y006658D01*
X013767Y006658D01*
X013928Y006591D01*
X014000Y006520D01*
X014056Y006520D01*
X014130Y006594D01*
X014130Y006712D01*
X014098Y006701D01*
X014018Y006688D01*
X013680Y006688D01*
X013680Y007205D01*
X013680Y007205D01*
X013680Y006688D01*
X013342Y006688D01*
X013262Y006701D01*
X013185Y006726D01*
X013112Y006763D01*
X013046Y006811D01*
X012989Y006869D01*
X012941Y006934D01*
X012904Y007007D01*
X012879Y007084D01*
X012866Y007165D01*
X012866Y007205D01*
X013680Y007205D01*
X013680Y007205D01*
X012866Y007205D01*
X012866Y007246D01*
X012879Y007326D01*
X012904Y007404D01*
X012941Y007476D01*
X012989Y007542D01*
X013046Y007599D01*
X013112Y007647D01*
X013185Y007684D01*
X013215Y007694D01*
X013079Y007750D01*
X012928Y007901D01*
X012846Y008098D01*
X012846Y008312D01*
X012928Y008509D01*
X013079Y008660D01*
X013276Y008742D01*
X014084Y008742D01*
X014130Y008723D01*
X014130Y015021D01*
X014056Y015095D01*
X012922Y015095D01*
X012922Y014860D01*
X012886Y014772D01*
X012818Y014704D01*
X012730Y014668D01*
X011660Y014668D01*
X011571Y014704D01*
X011504Y014772D01*
X011467Y014860D01*
X011467Y015930D01*
X011504Y016018D01*
X011571Y016086D01*
X011660Y016122D01*
X012730Y016122D01*
X012818Y016086D01*
X012886Y016018D01*
X012922Y015930D01*
X012922Y015695D01*
X014240Y015695D01*
X014350Y015649D01*
X014434Y015565D01*
X014440Y015560D01*
X014440Y018934D01*
X014432Y018916D01*
X014281Y018765D01*
X014084Y018683D01*
X013276Y018683D01*
X013080Y018764D01*
X013080Y018015D01*
X013019Y017868D01*
X012907Y017756D01*
X012907Y017756D01*
X012852Y017702D01*
X012886Y017668D01*
X012922Y017580D01*
X012922Y016510D01*
X012886Y016422D01*
X012818Y016354D01*
X012730Y016318D01*
X011660Y016318D01*
X011571Y016354D01*
X011504Y016422D01*
X011467Y016510D01*
X011467Y017445D01*
X011272Y017445D01*
X011272Y016510D01*
X011236Y016422D01*
X011168Y016354D01*
X011080Y016318D01*
X010010Y016318D01*
X009921Y016354D01*
X009854Y016422D01*
X009817Y016510D01*
X009817Y017445D01*
X009622Y017445D01*
X009622Y016510D01*
X009586Y016422D01*
X009518Y016354D01*
X009430Y016318D01*
X008360Y016318D01*
X008271Y016354D01*
X008204Y016422D01*
X008167Y016510D01*
X008167Y017445D01*
X007972Y017445D01*
X007972Y016510D01*
X007936Y016422D01*
X007868Y016354D01*
X007780Y016318D01*
X006710Y016318D01*
X006621Y016354D01*
X006554Y016422D01*
X006517Y016510D01*
X006517Y017445D01*
X006322Y017445D01*
X006322Y016510D01*
X006286Y016422D01*
X006218Y016354D01*
X006130Y016318D01*
X005060Y016318D01*
X004971Y016354D01*
X004904Y016422D01*
X004867Y016510D01*
X004867Y017445D01*
X004672Y017445D01*
X004672Y016510D01*
X004636Y016422D01*
X004568Y016354D01*
X004480Y016318D01*
X003410Y016318D01*
X003321Y016354D01*
X003254Y016422D01*
X003217Y016510D01*
X003217Y017445D01*
X002600Y017445D01*
X002453Y017506D01*
X002091Y017868D01*
X002030Y018015D01*
X002030Y018683D01*
X002026Y018683D01*
X001829Y018765D01*
X001700Y018894D01*
X001700Y005554D01*
X001769Y005623D01*
X002039Y005735D01*
X003321Y005735D01*
X003591Y005623D01*
X003798Y005416D01*
X003910Y005146D01*
X003910Y004854D01*
X003798Y004584D01*
X003591Y004377D01*
X003321Y004265D01*
X002039Y004265D01*
X001769Y004377D01*
X001700Y004446D01*
X001700Y003994D01*
X001769Y004063D01*
X002039Y004175D01*
X003321Y004175D01*
X003591Y004063D01*
X003798Y003856D01*
X003910Y003586D01*
X003910Y003294D01*
X003798Y003024D01*
X003591Y002817D01*
X003321Y002705D01*
X002039Y002705D01*
X001769Y002817D01*
X001700Y002886D01*
X001700Y002114D01*
X001706Y002027D01*
X001750Y001861D01*
X001724Y001959D02*
X003219Y001959D01*
X003219Y001720D02*
X001832Y001720D01*
X002188Y001481D02*
X003219Y001481D01*
X003292Y002197D02*
X001700Y002197D01*
X001700Y002436D02*
X003632Y002436D01*
X003687Y002913D02*
X007298Y002913D01*
X007111Y002674D02*
X001700Y002674D01*
X001700Y004105D02*
X001870Y004105D01*
X001849Y004344D02*
X001700Y004344D01*
X001700Y005775D02*
X014440Y005775D01*
X014440Y006013D02*
X014397Y006013D01*
X014428Y005536D02*
X014440Y005536D01*
X013680Y006729D02*
X013680Y006729D01*
X013680Y006967D02*
X013680Y006967D01*
X013330Y006490D02*
X001700Y006490D01*
X001700Y006252D02*
X013242Y006252D01*
X013292Y006013D02*
X001700Y006013D01*
X001700Y006729D02*
X013180Y006729D01*
X012924Y006967D02*
X001700Y006967D01*
X001700Y007206D02*
X006228Y007206D01*
X006200Y007233D02*
X006318Y007115D01*
X006472Y007052D01*
X006638Y007052D01*
X006792Y007115D01*
X006847Y007170D01*
X008763Y007170D01*
X008818Y007115D01*
X008972Y007052D01*
X009138Y007052D01*
X009292Y007115D01*
X009410Y007233D01*
X009473Y007387D01*
X009473Y007545D01*
X009763Y007545D01*
X009818Y007490D01*
X009972Y007427D01*
X010138Y007427D01*
X010292Y007490D01*
X010410Y007608D01*
X010473Y007762D01*
X010473Y007928D01*
X010410Y008082D01*
X010292Y008200D01*
X010138Y008263D01*
X009972Y008263D01*
X009818Y008200D01*
X009763Y008145D01*
X007847Y008145D01*
X007792Y008200D01*
X007638Y008263D01*
X007472Y008263D01*
X007318Y008200D01*
X007263Y008145D01*
X006310Y008145D01*
X006285Y008207D01*
X006167Y008325D01*
X006013Y008388D01*
X005847Y008388D01*
X005693Y008325D01*
X005575Y008207D01*
X005512Y008053D01*
X005512Y007887D01*
X005575Y007733D01*
X005693Y007615D01*
X005847Y007552D01*
X005979Y007552D01*
X005995Y007545D01*
X006137Y007545D01*
X006137Y007387D01*
X006200Y007233D01*
X006137Y007444D02*
X001700Y007444D01*
X001700Y007683D02*
X005626Y007683D01*
X005512Y007921D02*
X001700Y007921D01*
X001700Y008160D02*
X005556Y008160D01*
X006304Y008160D02*
X007278Y008160D01*
X007832Y008160D02*
X009778Y008160D01*
X010332Y008160D02*
X012846Y008160D01*
X012882Y008398D02*
X001700Y008398D01*
X001700Y008637D02*
X013055Y008637D01*
X012920Y007921D02*
X010473Y007921D01*
X010441Y007683D02*
X013181Y007683D01*
X012925Y007444D02*
X010180Y007444D01*
X009930Y007444D02*
X009473Y007444D01*
X009382Y007206D02*
X012866Y007206D01*
X012432Y005536D02*
X003678Y005536D01*
X003847Y005298D02*
X012263Y005298D01*
X012200Y005059D02*
X003910Y005059D01*
X003896Y004821D02*
X012214Y004821D01*
X012314Y004582D02*
X003796Y004582D01*
X003511Y004344D02*
X012599Y004344D01*
X012620Y004105D02*
X003490Y004105D01*
X003788Y003867D02*
X012322Y003867D01*
X012217Y003628D02*
X003893Y003628D01*
X003910Y003390D02*
X012200Y003390D01*
X012259Y003151D02*
X008489Y003151D01*
X008842Y002913D02*
X012423Y002913D01*
X012507Y002436D02*
X014440Y002436D01*
X014440Y002674D02*
X009029Y002674D01*
X009133Y002436D02*
X010325Y002436D01*
X009985Y002197D02*
X009180Y002197D01*
X009178Y001959D02*
X009912Y001959D01*
X009912Y001720D02*
X009114Y001720D01*
X008987Y001481D02*
X009912Y001481D01*
X010680Y003720D02*
X008055Y003720D01*
X005493Y003720D01*
X005814Y002436D02*
X007006Y002436D01*
X006959Y002197D02*
X006154Y002197D01*
X006228Y001959D02*
X006962Y001959D01*
X007026Y001720D02*
X006228Y001720D01*
X006228Y001481D02*
X007152Y001481D01*
X007650Y003151D02*
X003851Y003151D01*
X001700Y008875D02*
X014130Y008875D01*
X014130Y009114D02*
X001700Y009114D01*
X001700Y009352D02*
X014130Y009352D01*
X014130Y009591D02*
X009369Y009591D01*
X009196Y009418D02*
X009622Y009844D01*
X009622Y010446D01*
X009196Y010872D01*
X008920Y010872D01*
X009115Y011068D01*
X009196Y011068D01*
X009254Y011125D01*
X009327Y011125D01*
X009642Y010810D01*
X009830Y010622D01*
X010077Y010520D01*
X011507Y010520D01*
X011664Y010455D01*
X012946Y010455D01*
X013216Y010567D01*
X013423Y010774D01*
X013535Y011044D01*
X013535Y011336D01*
X013423Y011606D01*
X013216Y011813D01*
X012946Y011925D01*
X011664Y011925D01*
X011507Y011860D01*
X010488Y011860D01*
X009985Y012363D01*
X009738Y012465D01*
X009254Y012465D01*
X009196Y012522D01*
X008593Y012522D01*
X008167Y012096D01*
X008167Y012015D01*
X007972Y011820D01*
X007972Y012096D01*
X007546Y012522D01*
X006943Y012522D01*
X006600Y012179D01*
X006600Y012603D01*
X006498Y012850D01*
X006310Y013038D01*
X006030Y013318D01*
X005783Y013420D01*
X004603Y013420D01*
X004446Y013485D01*
X003164Y013485D01*
X002894Y013373D01*
X002687Y013166D01*
X002575Y012896D01*
X002575Y012604D01*
X002687Y012334D01*
X002894Y012127D01*
X003164Y012015D01*
X004446Y012015D01*
X004603Y012080D01*
X005260Y012080D01*
X005260Y010337D01*
X005362Y010090D01*
X005687Y009765D01*
X005875Y009577D01*
X006122Y009475D01*
X006886Y009475D01*
X006943Y009418D01*
X007546Y009418D01*
X007972Y009844D01*
X007972Y009925D01*
X008167Y010120D01*
X008167Y009844D01*
X008593Y009418D01*
X009196Y009418D01*
X009608Y009829D02*
X014130Y009829D01*
X014130Y010068D02*
X009622Y010068D01*
X009622Y010306D02*
X014130Y010306D01*
X014130Y010545D02*
X013162Y010545D01*
X013427Y010783D02*
X014130Y010783D01*
X014130Y011022D02*
X013526Y011022D01*
X013535Y011260D02*
X014130Y011260D01*
X014130Y011499D02*
X013468Y011499D01*
X013292Y011737D02*
X014130Y011737D01*
X014130Y011976D02*
X010372Y011976D01*
X010134Y012214D02*
X011307Y012214D01*
X011394Y012127D02*
X011664Y012015D01*
X012946Y012015D01*
X013216Y012127D01*
X013423Y012334D01*
X013535Y012604D01*
X013535Y012896D01*
X013423Y013166D01*
X013216Y013373D01*
X012946Y013485D01*
X011664Y013485D01*
X011394Y013373D01*
X011187Y013166D01*
X011075Y012896D01*
X011075Y012604D01*
X011187Y012334D01*
X011394Y012127D01*
X011138Y012453D02*
X009768Y012453D01*
X009431Y011022D02*
X009069Y011022D01*
X009286Y010783D02*
X009669Y010783D01*
X009524Y010545D02*
X010018Y010545D01*
X011075Y012691D02*
X006564Y012691D01*
X006600Y012453D02*
X006873Y012453D01*
X006635Y012214D02*
X006600Y012214D01*
X006418Y012930D02*
X011089Y012930D01*
X011189Y013168D02*
X006180Y013168D01*
X005816Y013407D02*
X011474Y013407D01*
X011080Y014668D02*
X011168Y014704D01*
X011236Y014772D01*
X011272Y014860D01*
X011272Y015930D01*
X011236Y016018D01*
X011168Y016086D01*
X011080Y016122D01*
X010010Y016122D01*
X009921Y016086D01*
X009854Y016018D01*
X009817Y015930D01*
X009817Y014860D01*
X009854Y014772D01*
X009921Y014704D01*
X010010Y014668D01*
X011080Y014668D01*
X011263Y014838D02*
X011476Y014838D01*
X011467Y015076D02*
X011272Y015076D01*
X011272Y015315D02*
X011467Y015315D01*
X011467Y015553D02*
X011272Y015553D01*
X011272Y015792D02*
X011467Y015792D01*
X011515Y016030D02*
X011224Y016030D01*
X011271Y016507D02*
X011468Y016507D01*
X011467Y016746D02*
X011272Y016746D01*
X011272Y016984D02*
X011467Y016984D01*
X011467Y017223D02*
X011272Y017223D01*
X009865Y016030D02*
X009574Y016030D01*
X009586Y016018D02*
X009518Y016086D01*
X009430Y016122D01*
X008360Y016122D01*
X008271Y016086D01*
X008204Y016018D01*
X008167Y015930D01*
X008167Y014860D01*
X008204Y014772D01*
X008271Y014704D01*
X008360Y014668D01*
X009430Y014668D01*
X009518Y014704D01*
X009586Y014772D01*
X009622Y014860D01*
X009622Y015930D01*
X009586Y016018D01*
X009622Y015792D02*
X009817Y015792D01*
X009817Y015553D02*
X009622Y015553D01*
X009622Y015315D02*
X009817Y015315D01*
X009817Y015076D02*
X009622Y015076D01*
X009613Y014838D02*
X009826Y014838D01*
X009818Y016507D02*
X009621Y016507D01*
X009622Y016746D02*
X009817Y016746D01*
X009817Y016984D02*
X009622Y016984D01*
X009622Y017223D02*
X009817Y017223D01*
X008167Y017223D02*
X007972Y017223D01*
X007972Y016984D02*
X008167Y016984D01*
X008167Y016746D02*
X007972Y016746D01*
X007971Y016507D02*
X008168Y016507D01*
X008215Y016030D02*
X007896Y016030D01*
X007908Y016018D02*
X007867Y016059D01*
X007817Y016088D01*
X007761Y016102D01*
X007287Y016102D01*
X007287Y015438D01*
X007202Y015438D01*
X007202Y016102D01*
X006728Y016102D01*
X006672Y016088D01*
X006622Y016059D01*
X006581Y016018D01*
X006552Y015967D01*
X006537Y015911D01*
X006537Y015438D01*
X007202Y015438D01*
X007202Y015352D01*
X007287Y015352D01*
X007287Y014688D01*
X007761Y014688D01*
X007817Y014702D01*
X007867Y014731D01*
X007908Y014772D01*
X007937Y014823D01*
X007952Y014879D01*
X007952Y015352D01*
X007287Y015352D01*
X007287Y015438D01*
X007952Y015438D01*
X007952Y015911D01*
X007937Y015967D01*
X007908Y016018D01*
X007952Y015792D02*
X008167Y015792D01*
X008167Y015553D02*
X007952Y015553D01*
X007952Y015315D02*
X008167Y015315D01*
X008167Y015076D02*
X007952Y015076D01*
X007941Y014838D02*
X008176Y014838D01*
X007287Y014838D02*
X007202Y014838D01*
X007202Y014688D02*
X006728Y014688D01*
X006672Y014702D01*
X006622Y014731D01*
X006581Y014772D01*
X006552Y014823D01*
X006537Y014879D01*
X006537Y015352D01*
X007202Y015352D01*
X007202Y014688D01*
X007202Y015076D02*
X007287Y015076D01*
X007287Y015315D02*
X007202Y015315D01*
X007202Y015553D02*
X007287Y015553D01*
X007287Y015792D02*
X007202Y015792D01*
X007202Y016030D02*
X007287Y016030D01*
X006594Y016030D02*
X006274Y016030D01*
X006286Y016018D02*
X006218Y016086D01*
X006130Y016122D01*
X005060Y016122D01*
X004971Y016086D01*
X004904Y016018D01*
X004867Y015930D01*
X004867Y014860D01*
X004904Y014772D01*
X004971Y014704D01*
X005060Y014668D01*
X006130Y014668D01*
X006218Y014704D01*
X006286Y014772D01*
X006322Y014860D01*
X006322Y015930D01*
X006286Y016018D01*
X006322Y015792D02*
X006537Y015792D01*
X006537Y015553D02*
X006322Y015553D01*
X006322Y015315D02*
X006537Y015315D01*
X006537Y015076D02*
X006322Y015076D01*
X006313Y014838D02*
X006548Y014838D01*
X006518Y016507D02*
X006321Y016507D01*
X006322Y016746D02*
X006517Y016746D01*
X006517Y016984D02*
X006322Y016984D01*
X006322Y017223D02*
X006517Y017223D01*
X004867Y017223D02*
X004672Y017223D01*
X004672Y016984D02*
X004867Y016984D01*
X004867Y016746D02*
X004672Y016746D01*
X004671Y016507D02*
X004868Y016507D01*
X004915Y016030D02*
X004624Y016030D01*
X004636Y016018D02*
X004568Y016086D01*
X004480Y016122D01*
X003410Y016122D01*
X003321Y016086D01*
X003254Y016018D01*
X003217Y015930D01*
X003217Y014860D01*
X003254Y014772D01*
X003321Y014704D01*
X003410Y014668D01*
X004480Y014668D01*
X004568Y014704D01*
X004636Y014772D01*
X004672Y014860D01*
X004672Y015930D01*
X004636Y016018D01*
X004672Y015792D02*
X004867Y015792D01*
X004867Y015553D02*
X004672Y015553D01*
X004672Y015315D02*
X004867Y015315D01*
X004867Y015076D02*
X004672Y015076D01*
X004663Y014838D02*
X004876Y014838D01*
X003226Y014838D02*
X001700Y014838D01*
X001700Y015076D02*
X003217Y015076D01*
X003217Y015315D02*
X001700Y015315D01*
X001700Y015553D02*
X003217Y015553D01*
X003217Y015792D02*
X001700Y015792D01*
X001700Y016030D02*
X003265Y016030D01*
X003218Y016507D02*
X001700Y016507D01*
X001700Y016269D02*
X014440Y016269D01*
X014440Y016507D02*
X012921Y016507D01*
X012922Y016746D02*
X014440Y016746D01*
X014440Y016984D02*
X012922Y016984D01*
X012922Y017223D02*
X014440Y017223D01*
X014440Y017461D02*
X012922Y017461D01*
X012855Y017700D02*
X014440Y017700D01*
X014440Y017938D02*
X013048Y017938D01*
X013080Y018177D02*
X014440Y018177D01*
X014440Y018415D02*
X013080Y018415D01*
X013080Y018654D02*
X014440Y018654D01*
X014440Y018892D02*
X014408Y018892D01*
X014440Y016030D02*
X012874Y016030D01*
X012922Y015792D02*
X014440Y015792D01*
X014075Y015076D02*
X012922Y015076D01*
X012913Y014838D02*
X014130Y014838D01*
X014130Y014599D02*
X001700Y014599D01*
X001700Y014361D02*
X014130Y014361D01*
X014130Y014122D02*
X001700Y014122D01*
X001700Y013884D02*
X014130Y013884D01*
X014130Y013645D02*
X001700Y013645D01*
X001700Y013407D02*
X002974Y013407D01*
X002689Y013168D02*
X001700Y013168D01*
X001700Y012930D02*
X002589Y012930D01*
X002575Y012691D02*
X001700Y012691D01*
X001700Y012453D02*
X002638Y012453D01*
X002807Y012214D02*
X001700Y012214D01*
X001700Y011976D02*
X005260Y011976D01*
X005260Y011737D02*
X004792Y011737D01*
X004716Y011813D02*
X004446Y011925D01*
X003164Y011925D01*
X002894Y011813D01*
X002687Y011606D01*
X002575Y011336D01*
X002575Y011044D01*
X002687Y010774D01*
X002894Y010567D01*
X003164Y010455D01*
X004446Y010455D01*
X004716Y010567D01*
X004923Y010774D01*
X005035Y011044D01*
X005035Y011336D01*
X004923Y011606D01*
X004716Y011813D01*
X004968Y011499D02*
X005260Y011499D01*
X005260Y011260D02*
X005035Y011260D01*
X005026Y011022D02*
X005260Y011022D01*
X005260Y010783D02*
X004927Y010783D01*
X004662Y010545D02*
X005260Y010545D01*
X005273Y010306D02*
X001700Y010306D01*
X001700Y010068D02*
X005385Y010068D01*
X005623Y009829D02*
X001700Y009829D01*
X001700Y009591D02*
X005862Y009591D01*
X007719Y009591D02*
X008420Y009591D01*
X008182Y009829D02*
X007958Y009829D01*
X008115Y010068D02*
X008167Y010068D01*
X008128Y011976D02*
X007972Y011976D01*
X007855Y012214D02*
X008285Y012214D01*
X008523Y012453D02*
X007616Y012453D01*
X003217Y016746D02*
X001700Y016746D01*
X001700Y016984D02*
X003217Y016984D01*
X003217Y017223D02*
X001700Y017223D01*
X001700Y017461D02*
X002562Y017461D01*
X002260Y017700D02*
X001700Y017700D01*
X001700Y017938D02*
X002062Y017938D01*
X002030Y018177D02*
X001700Y018177D01*
X001700Y018415D02*
X002030Y018415D01*
X002030Y018654D02*
X001700Y018654D01*
X001700Y018892D02*
X001702Y018892D01*
X001700Y011737D02*
X002818Y011737D01*
X002642Y011499D02*
X001700Y011499D01*
X001700Y011260D02*
X002575Y011260D01*
X002584Y011022D02*
X001700Y011022D01*
X001700Y010783D02*
X002683Y010783D01*
X002948Y010545D02*
X001700Y010545D01*
X012847Y002197D02*
X014440Y002197D01*
X014415Y001959D02*
X012920Y001959D01*
X012920Y001720D02*
X014308Y001720D01*
X013951Y001481D02*
X012920Y001481D01*
X014437Y002913D02*
X014440Y002913D01*
X014440Y004105D02*
X014240Y004105D01*
X014261Y004344D02*
X014440Y004344D01*
X014130Y012214D02*
X013303Y012214D01*
X013472Y012453D02*
X014130Y012453D01*
X014130Y012691D02*
X013535Y012691D01*
X013521Y012930D02*
X014130Y012930D01*
X014130Y013168D02*
X013421Y013168D01*
X013136Y013407D02*
X014130Y013407D01*
D17*
X012195Y017045D02*
X012195Y017830D01*
X012180Y017845D01*
X012430Y017845D01*
X012680Y018095D01*
X012680Y019970D01*
X012930Y020220D01*
X013680Y020220D01*
X012180Y018455D02*
X003945Y018455D01*
X003632Y018455D01*
X003368Y018720D01*
X003368Y019970D01*
X003118Y020220D01*
X002430Y020220D01*
X002430Y019220D02*
X002430Y018095D01*
X002680Y017845D01*
X012180Y017845D01*
D18*
X005930Y007970D03*
X006555Y007470D03*
X007555Y007845D03*
X009055Y007470D03*
X010055Y007845D03*
D19*
X010210Y011190D02*
X012305Y011190D01*
X010210Y011190D02*
X009605Y011795D01*
X008895Y011795D01*
X007245Y010145D01*
X006255Y010145D01*
X005930Y010470D01*
X005930Y012470D01*
X005650Y012750D01*
X003805Y012750D01*
M02*
