G75*
G70*
%OFA0B0*%
%FSLAX24Y24*%
%IPPOS*%
%LPD*%
%AMOC8*
5,1,8,0,0,1.08239X$1,22.5*
%
%ADD10C,0.0000*%
%ADD11C,0.0030*%
D10*
X001180Y002114D02*
X001180Y019909D01*
X001182Y019975D01*
X001187Y020041D01*
X001197Y020107D01*
X001210Y020172D01*
X001226Y020236D01*
X001246Y020299D01*
X001270Y020361D01*
X001297Y020421D01*
X001327Y020480D01*
X001361Y020537D01*
X001398Y020592D01*
X001438Y020645D01*
X001480Y020696D01*
X001526Y020744D01*
X001574Y020790D01*
X001625Y020832D01*
X001678Y020872D01*
X001733Y020909D01*
X001790Y020943D01*
X001849Y020973D01*
X001909Y021000D01*
X001971Y021024D01*
X002034Y021044D01*
X002098Y021060D01*
X002163Y021073D01*
X002229Y021083D01*
X002295Y021088D01*
X002361Y021090D01*
X013778Y021090D01*
X013844Y021088D01*
X013910Y021083D01*
X013976Y021073D01*
X014041Y021060D01*
X014105Y021044D01*
X014168Y021024D01*
X014230Y021000D01*
X014290Y020973D01*
X014349Y020943D01*
X014406Y020909D01*
X014461Y020872D01*
X014514Y020832D01*
X014565Y020790D01*
X014613Y020744D01*
X014659Y020696D01*
X014701Y020645D01*
X014741Y020592D01*
X014778Y020537D01*
X014812Y020480D01*
X014842Y020421D01*
X014869Y020361D01*
X014893Y020299D01*
X014913Y020236D01*
X014929Y020172D01*
X014942Y020107D01*
X014952Y020041D01*
X014957Y019975D01*
X014959Y019909D01*
X014960Y019909D02*
X014960Y002114D01*
X014959Y002114D02*
X014957Y002048D01*
X014952Y001982D01*
X014942Y001916D01*
X014929Y001851D01*
X014913Y001787D01*
X014893Y001724D01*
X014869Y001662D01*
X014842Y001602D01*
X014812Y001543D01*
X014778Y001486D01*
X014741Y001431D01*
X014701Y001378D01*
X014659Y001327D01*
X014613Y001279D01*
X014565Y001233D01*
X014514Y001191D01*
X014461Y001151D01*
X014406Y001114D01*
X014349Y001080D01*
X014290Y001050D01*
X014230Y001023D01*
X014168Y000999D01*
X014105Y000979D01*
X014041Y000963D01*
X013976Y000950D01*
X013910Y000940D01*
X013844Y000935D01*
X013778Y000933D01*
X011810Y000933D01*
X011810Y001326D01*
X012400Y001326D01*
X012400Y001917D01*
X010432Y001917D01*
X010432Y001326D01*
X011023Y001326D01*
X011023Y000933D01*
X005117Y000933D01*
X005117Y001326D01*
X005708Y001326D01*
X005708Y001917D01*
X003739Y001917D01*
X003739Y001326D01*
X004330Y001326D01*
X004330Y000933D01*
X002361Y000933D01*
X002295Y000935D01*
X002229Y000940D01*
X002163Y000950D01*
X002098Y000963D01*
X002034Y000979D01*
X001971Y000999D01*
X001909Y001023D01*
X001849Y001050D01*
X001790Y001080D01*
X001733Y001114D01*
X001678Y001151D01*
X001625Y001191D01*
X001574Y001233D01*
X001526Y001279D01*
X001480Y001327D01*
X001438Y001378D01*
X001398Y001431D01*
X001361Y001486D01*
X001327Y001543D01*
X001297Y001602D01*
X001270Y001662D01*
X001246Y001724D01*
X001226Y001787D01*
X001210Y001851D01*
X001197Y001916D01*
X001187Y001982D01*
X001182Y002048D01*
X001180Y002114D01*
X007479Y002114D02*
X007481Y002162D01*
X007487Y002210D01*
X007497Y002257D01*
X007510Y002303D01*
X007528Y002348D01*
X007548Y002392D01*
X007573Y002434D01*
X007601Y002473D01*
X007631Y002510D01*
X007665Y002544D01*
X007702Y002576D01*
X007740Y002605D01*
X007781Y002630D01*
X007824Y002652D01*
X007869Y002670D01*
X007915Y002684D01*
X007962Y002695D01*
X008010Y002702D01*
X008058Y002705D01*
X008106Y002704D01*
X008154Y002699D01*
X008202Y002690D01*
X008248Y002678D01*
X008293Y002661D01*
X008337Y002641D01*
X008379Y002618D01*
X008419Y002591D01*
X008457Y002561D01*
X008492Y002528D01*
X008524Y002492D01*
X008554Y002454D01*
X008580Y002413D01*
X008602Y002370D01*
X008622Y002326D01*
X008637Y002281D01*
X008649Y002234D01*
X008657Y002186D01*
X008661Y002138D01*
X008661Y002090D01*
X008657Y002042D01*
X008649Y001994D01*
X008637Y001947D01*
X008622Y001902D01*
X008602Y001858D01*
X008580Y001815D01*
X008554Y001774D01*
X008524Y001736D01*
X008492Y001700D01*
X008457Y001667D01*
X008419Y001637D01*
X008379Y001610D01*
X008337Y001587D01*
X008293Y001567D01*
X008248Y001550D01*
X008202Y001538D01*
X008154Y001529D01*
X008106Y001524D01*
X008058Y001523D01*
X008010Y001526D01*
X007962Y001533D01*
X007915Y001544D01*
X007869Y001558D01*
X007824Y001576D01*
X007781Y001598D01*
X007740Y001623D01*
X007702Y001652D01*
X007665Y001684D01*
X007631Y001718D01*
X007601Y001755D01*
X007573Y001794D01*
X007548Y001836D01*
X007528Y001880D01*
X007510Y001925D01*
X007497Y001971D01*
X007487Y002018D01*
X007481Y002066D01*
X007479Y002114D01*
X004289Y019720D02*
X004291Y019768D01*
X004297Y019816D01*
X004307Y019863D01*
X004320Y019909D01*
X004338Y019954D01*
X004358Y019998D01*
X004383Y020040D01*
X004411Y020079D01*
X004441Y020116D01*
X004475Y020150D01*
X004512Y020182D01*
X004550Y020211D01*
X004591Y020236D01*
X004634Y020258D01*
X004679Y020276D01*
X004725Y020290D01*
X004772Y020301D01*
X004820Y020308D01*
X004868Y020311D01*
X004916Y020310D01*
X004964Y020305D01*
X005012Y020296D01*
X005058Y020284D01*
X005103Y020267D01*
X005147Y020247D01*
X005189Y020224D01*
X005229Y020197D01*
X005267Y020167D01*
X005302Y020134D01*
X005334Y020098D01*
X005364Y020060D01*
X005390Y020019D01*
X005412Y019976D01*
X005432Y019932D01*
X005447Y019887D01*
X005459Y019840D01*
X005467Y019792D01*
X005471Y019744D01*
X005471Y019696D01*
X005467Y019648D01*
X005459Y019600D01*
X005447Y019553D01*
X005432Y019508D01*
X005412Y019464D01*
X005390Y019421D01*
X005364Y019380D01*
X005334Y019342D01*
X005302Y019306D01*
X005267Y019273D01*
X005229Y019243D01*
X005189Y019216D01*
X005147Y019193D01*
X005103Y019173D01*
X005058Y019156D01*
X005012Y019144D01*
X004964Y019135D01*
X004916Y019130D01*
X004868Y019129D01*
X004820Y019132D01*
X004772Y019139D01*
X004725Y019150D01*
X004679Y019164D01*
X004634Y019182D01*
X004591Y019204D01*
X004550Y019229D01*
X004512Y019258D01*
X004475Y019290D01*
X004441Y019324D01*
X004411Y019361D01*
X004383Y019400D01*
X004358Y019442D01*
X004338Y019486D01*
X004320Y019531D01*
X004307Y019577D01*
X004297Y019624D01*
X004291Y019672D01*
X004289Y019720D01*
X010669Y019720D02*
X010671Y019768D01*
X010677Y019816D01*
X010687Y019863D01*
X010700Y019909D01*
X010718Y019954D01*
X010738Y019998D01*
X010763Y020040D01*
X010791Y020079D01*
X010821Y020116D01*
X010855Y020150D01*
X010892Y020182D01*
X010930Y020211D01*
X010971Y020236D01*
X011014Y020258D01*
X011059Y020276D01*
X011105Y020290D01*
X011152Y020301D01*
X011200Y020308D01*
X011248Y020311D01*
X011296Y020310D01*
X011344Y020305D01*
X011392Y020296D01*
X011438Y020284D01*
X011483Y020267D01*
X011527Y020247D01*
X011569Y020224D01*
X011609Y020197D01*
X011647Y020167D01*
X011682Y020134D01*
X011714Y020098D01*
X011744Y020060D01*
X011770Y020019D01*
X011792Y019976D01*
X011812Y019932D01*
X011827Y019887D01*
X011839Y019840D01*
X011847Y019792D01*
X011851Y019744D01*
X011851Y019696D01*
X011847Y019648D01*
X011839Y019600D01*
X011827Y019553D01*
X011812Y019508D01*
X011792Y019464D01*
X011770Y019421D01*
X011744Y019380D01*
X011714Y019342D01*
X011682Y019306D01*
X011647Y019273D01*
X011609Y019243D01*
X011569Y019216D01*
X011527Y019193D01*
X011483Y019173D01*
X011438Y019156D01*
X011392Y019144D01*
X011344Y019135D01*
X011296Y019130D01*
X011248Y019129D01*
X011200Y019132D01*
X011152Y019139D01*
X011105Y019150D01*
X011059Y019164D01*
X011014Y019182D01*
X010971Y019204D01*
X010930Y019229D01*
X010892Y019258D01*
X010855Y019290D01*
X010821Y019324D01*
X010791Y019361D01*
X010763Y019400D01*
X010738Y019442D01*
X010718Y019486D01*
X010700Y019531D01*
X010687Y019577D01*
X010677Y019624D01*
X010671Y019672D01*
X010669Y019720D01*
D11*
X010675Y017990D02*
X010579Y017893D01*
X010579Y017700D01*
X010579Y017845D02*
X010772Y017845D01*
X010772Y017893D02*
X010675Y017990D01*
X010772Y017893D02*
X010772Y017700D01*
X010478Y017845D02*
X010284Y017845D01*
X010381Y017942D02*
X010381Y017748D01*
X009147Y017700D02*
X009147Y017893D01*
X009050Y017990D01*
X008954Y017893D01*
X008954Y017700D01*
X008954Y017845D02*
X009147Y017845D01*
X008853Y017845D02*
X008659Y017845D01*
X007522Y017845D02*
X007377Y017845D01*
X007329Y017797D01*
X007329Y017748D01*
X007377Y017700D01*
X007522Y017700D01*
X007522Y017990D01*
X007377Y017990D01*
X007329Y017942D01*
X007329Y017893D01*
X007377Y017845D01*
X007228Y017845D02*
X007034Y017845D01*
X007131Y017942D02*
X007131Y017748D01*
X005835Y017700D02*
X005690Y017700D01*
X005641Y017748D01*
X005641Y017797D01*
X005690Y017845D01*
X005835Y017845D01*
X005835Y017700D02*
X005835Y017990D01*
X005690Y017990D01*
X005641Y017942D01*
X005641Y017893D01*
X005690Y017845D01*
X005540Y017845D02*
X005347Y017845D01*
X004419Y017845D02*
X004323Y017845D01*
X004419Y017700D02*
X004419Y017990D01*
X004226Y017990D01*
X004125Y017893D02*
X004125Y017700D01*
X004125Y017845D02*
X003931Y017845D01*
X003931Y017893D02*
X003931Y017700D01*
X003830Y017700D02*
X003830Y017990D01*
X003637Y017700D01*
X003637Y017990D01*
X003931Y017893D02*
X004028Y017990D01*
X004125Y017893D01*
X004076Y014615D02*
X003980Y014615D01*
X003931Y014567D01*
X003830Y014567D02*
X003782Y014615D01*
X003685Y014615D01*
X003637Y014567D01*
X003637Y014518D01*
X003830Y014325D01*
X003637Y014325D01*
X003931Y014373D02*
X003980Y014325D01*
X004076Y014325D01*
X004125Y014373D01*
X004226Y014373D02*
X004274Y014325D01*
X004371Y014325D01*
X004419Y014373D01*
X004419Y014567D01*
X004371Y014615D01*
X004274Y014615D01*
X004226Y014567D01*
X004125Y014567D02*
X004125Y014518D01*
X004076Y014470D01*
X003980Y014470D01*
X003931Y014422D01*
X003931Y014373D01*
X004125Y014567D02*
X004076Y014615D01*
X005199Y014325D02*
X005393Y014325D01*
X005296Y014325D02*
X005296Y014615D01*
X005393Y014518D01*
X005494Y014567D02*
X005542Y014615D01*
X005639Y014615D01*
X005687Y014567D01*
X005687Y014518D01*
X005639Y014470D01*
X005542Y014470D01*
X005494Y014422D01*
X005494Y014373D01*
X005542Y014325D01*
X005639Y014325D01*
X005687Y014373D01*
X005788Y014373D02*
X005837Y014325D01*
X005934Y014325D01*
X005982Y014373D01*
X005982Y014567D01*
X005934Y014615D01*
X005837Y014615D01*
X005788Y014567D01*
X006887Y014567D02*
X006887Y014373D01*
X006935Y014325D01*
X007080Y014325D01*
X007080Y014615D01*
X006935Y014615D01*
X006887Y014567D01*
X007181Y014615D02*
X007181Y014325D01*
X007375Y014615D01*
X007375Y014325D01*
X007476Y014373D02*
X007476Y014470D01*
X007573Y014470D01*
X007669Y014373D02*
X007621Y014325D01*
X007524Y014325D01*
X007476Y014373D01*
X007669Y014373D02*
X007669Y014567D01*
X007621Y014615D01*
X007524Y014615D01*
X007476Y014567D01*
X008512Y014615D02*
X008705Y014422D01*
X008657Y014470D02*
X008512Y014325D01*
X008705Y014325D02*
X008705Y014615D01*
X008806Y014567D02*
X008855Y014615D01*
X008951Y014615D01*
X009000Y014567D01*
X009000Y014373D01*
X008951Y014325D01*
X008855Y014325D01*
X008806Y014373D01*
X009101Y014373D02*
X009149Y014325D01*
X009246Y014325D01*
X009294Y014373D01*
X009246Y014470D02*
X009149Y014470D01*
X009101Y014422D01*
X009101Y014373D01*
X009246Y014470D02*
X009294Y014518D01*
X009294Y014567D01*
X009246Y014615D01*
X009149Y014615D01*
X009101Y014567D01*
X010284Y014567D02*
X010284Y014373D01*
X010332Y014325D01*
X010429Y014325D01*
X010478Y014373D01*
X010478Y014567D01*
X010429Y014615D01*
X010332Y014615D01*
X010284Y014567D01*
X010579Y014567D02*
X010579Y014373D01*
X010627Y014325D01*
X010772Y014325D01*
X010772Y014615D01*
X010627Y014615D01*
X010579Y014567D01*
X011824Y014567D02*
X011873Y014615D01*
X011969Y014615D01*
X012018Y014567D01*
X012018Y014373D01*
X011969Y014325D01*
X011873Y014325D01*
X011824Y014373D01*
X012119Y014373D02*
X012167Y014325D01*
X012264Y014325D01*
X012312Y014373D01*
X012312Y014567D01*
X012264Y014615D01*
X012167Y014615D01*
X012119Y014567D01*
X012413Y014615D02*
X012413Y014422D01*
X012510Y014325D01*
X012607Y014422D01*
X012607Y014615D01*
X012460Y017700D02*
X012266Y017700D01*
X012363Y017700D02*
X012363Y017990D01*
X012460Y017893D01*
X012561Y017845D02*
X012754Y017845D01*
X012658Y017942D02*
X012658Y017748D01*
X012165Y017700D02*
X011972Y017893D01*
X011972Y017942D01*
X012020Y017990D01*
X012117Y017990D01*
X012165Y017942D01*
X012165Y017700D02*
X011972Y017700D01*
X011870Y017797D02*
X011774Y017700D01*
X011677Y017797D01*
X011677Y017990D01*
X011870Y017990D02*
X011870Y017797D01*
M02*
