G75*
G70*
%OFA0B0*%
%FSLAX24Y24*%
%IPPOS*%
%LPD*%
%AMOC8*
5,1,8,0,0,1.08239X$1,22.5*
%
%ADD10R,0.0260X0.0800*%
%ADD11R,0.0425X0.0413*%
%ADD12OC8,0.0975*%
%ADD13R,0.0975X0.0975*%
%ADD14R,0.0394X0.0433*%
%ADD15R,0.0472X0.0472*%
%ADD16C,0.0600*%
%ADD17C,0.0760*%
%ADD18C,0.0240*%
%ADD19C,0.0396*%
%ADD20C,0.0120*%
%ADD21C,0.0357*%
%ADD22C,0.0160*%
%ADD23C,0.0320*%
%ADD24C,0.0700*%
D10*
X005610Y003835D03*
X006110Y003835D03*
X006610Y003835D03*
X007110Y003835D03*
X008110Y003835D03*
X008610Y003835D03*
X009110Y003835D03*
X009610Y003835D03*
X009610Y006255D03*
X009110Y006255D03*
X008610Y006255D03*
X008110Y006255D03*
X007110Y006255D03*
X006610Y006255D03*
X006110Y006255D03*
X005610Y006255D03*
D11*
X004860Y005389D03*
X004860Y004700D03*
X004010Y003389D03*
X004010Y002700D03*
X010360Y004700D03*
X010360Y005389D03*
X011210Y003321D03*
X011210Y002632D03*
D12*
X006785Y013870D03*
X011735Y016970D03*
D13*
X011735Y018620D03*
X010085Y018620D03*
X010085Y016970D03*
X008435Y016970D03*
X008435Y018620D03*
X006785Y018620D03*
X006785Y016970D03*
X005135Y016970D03*
X005135Y018620D03*
X003485Y018620D03*
X003485Y016970D03*
X006785Y012220D03*
X008435Y012220D03*
X008435Y013870D03*
D14*
X012075Y011295D03*
X012745Y011295D03*
X012790Y005926D03*
X013459Y005926D03*
X003145Y011295D03*
X002475Y011295D03*
D15*
X004197Y011295D03*
X005023Y011295D03*
X010197Y011295D03*
X011023Y011295D03*
X012682Y006539D03*
X013508Y006539D03*
D16*
X013410Y008899D02*
X012810Y008899D01*
X012810Y009899D02*
X013410Y009899D01*
X013660Y020795D02*
X013060Y020795D01*
X013060Y021795D02*
X013660Y021795D01*
X009110Y021845D02*
X009110Y021245D01*
X008110Y021245D02*
X008110Y021845D01*
X007110Y021845D02*
X007110Y021245D01*
X006110Y021245D02*
X006110Y021845D01*
X002160Y021795D02*
X001560Y021795D01*
X001560Y020795D02*
X002160Y020795D01*
D17*
X003610Y014295D03*
X003610Y012795D03*
X002110Y003795D03*
X002110Y002295D03*
X011610Y012795D03*
X011610Y014295D03*
X013110Y003795D03*
X013110Y002295D03*
D18*
X010360Y004700D02*
X010345Y004704D01*
X009595Y004704D01*
X007095Y004704D01*
X007110Y003835D01*
X007095Y004704D02*
X007095Y005124D01*
X006835Y005383D01*
X004860Y005389D01*
X004860Y004700D02*
X005345Y004704D01*
X005595Y004454D01*
X009595Y004704D02*
X009610Y003835D01*
D19*
X010360Y004045D03*
X012790Y005039D03*
X007610Y004045D03*
X007610Y006289D03*
X004860Y004045D03*
X001985Y005039D03*
X007610Y010795D03*
X013220Y016295D03*
X013220Y017795D03*
X013220Y019295D03*
X002110Y018795D03*
D20*
X001180Y020496D02*
X001180Y000997D01*
X007099Y000997D01*
X006965Y001074D01*
X006769Y001270D01*
X006631Y001509D01*
X006559Y001777D01*
X006559Y002053D01*
X006631Y002320D01*
X006769Y002560D01*
X006965Y002756D01*
X007204Y002894D01*
X007472Y002965D01*
X007748Y002965D01*
X008015Y002894D01*
X008255Y002756D01*
X008451Y002560D01*
X008589Y002320D01*
X008660Y002053D01*
X008660Y001777D01*
X008589Y001509D01*
X008451Y001270D01*
X008255Y001074D01*
X008121Y000997D01*
X014040Y000997D01*
X014040Y009894D01*
X013848Y009702D01*
X013817Y009627D01*
X013682Y009492D01*
X013505Y009419D01*
X012714Y009419D01*
X012538Y009492D01*
X012403Y009627D01*
X012330Y009804D01*
X012330Y009995D01*
X012403Y010171D01*
X012538Y010306D01*
X012714Y010379D01*
X013505Y010379D01*
X013682Y010306D01*
X013727Y010261D01*
X013730Y010263D01*
X013730Y018270D01*
X013621Y018380D01*
X012402Y018380D01*
X012402Y018058D01*
X012297Y017952D01*
X011173Y017952D01*
X011067Y018058D01*
X011067Y019182D01*
X011173Y019287D01*
X012297Y019287D01*
X012402Y019182D01*
X012402Y018860D01*
X013768Y018860D01*
X013856Y018823D01*
X014040Y018640D01*
X014040Y020535D01*
X014011Y020495D01*
X013960Y020444D01*
X013901Y020401D01*
X013836Y020369D01*
X013768Y020346D01*
X013696Y020335D01*
X013400Y020335D01*
X013400Y020755D01*
X013320Y020755D01*
X012601Y020755D01*
X012611Y020687D01*
X012634Y020618D01*
X012666Y020554D01*
X012709Y020495D01*
X012760Y020444D01*
X012819Y020401D01*
X012883Y020369D01*
X012952Y020346D01*
X013024Y020335D01*
X013320Y020335D01*
X013320Y020755D01*
X013320Y020835D01*
X013320Y021255D01*
X013024Y021255D01*
X012952Y021243D01*
X012883Y021221D01*
X012819Y021188D01*
X012760Y021146D01*
X012709Y021094D01*
X012666Y021036D01*
X012634Y020971D01*
X012611Y020903D01*
X012601Y020835D01*
X013320Y020835D01*
X013400Y020835D01*
X013400Y021255D01*
X013696Y021255D01*
X013768Y021243D01*
X013836Y021221D01*
X013901Y021188D01*
X013960Y021146D01*
X014011Y021094D01*
X014040Y021055D01*
X014040Y021496D01*
X013932Y021388D01*
X013755Y021315D01*
X012964Y021315D01*
X012788Y021388D01*
X012653Y021523D01*
X012580Y021699D01*
X012580Y021890D01*
X012653Y022067D01*
X012788Y022202D01*
X012964Y022275D01*
X013755Y022275D01*
X013932Y022202D01*
X014040Y022094D01*
X014040Y022518D01*
X001180Y022518D01*
X001180Y022094D01*
X001288Y022202D01*
X001464Y022275D01*
X002255Y022275D01*
X002432Y022202D01*
X002567Y022067D01*
X002572Y022055D01*
X002662Y022055D01*
X002757Y022015D01*
X002830Y021942D01*
X002830Y021942D01*
X003070Y021703D01*
X003070Y021703D01*
X003143Y021630D01*
X003182Y021534D01*
X003182Y019993D01*
X003143Y019898D01*
X003070Y019824D01*
X002370Y019125D01*
X002370Y019070D01*
X002430Y019009D01*
X002488Y018870D01*
X002488Y018720D01*
X002430Y018581D01*
X002324Y018474D01*
X002185Y018417D01*
X002035Y018417D01*
X001896Y018474D01*
X001789Y018581D01*
X001732Y018720D01*
X001732Y018870D01*
X001789Y019009D01*
X001850Y019070D01*
X001850Y019284D01*
X001889Y019380D01*
X002662Y020152D01*
X002662Y021375D01*
X002540Y021497D01*
X002432Y021388D01*
X002255Y021315D01*
X001464Y021315D01*
X001288Y021388D01*
X001180Y021496D01*
X001180Y021094D01*
X001288Y021202D01*
X001464Y021275D01*
X002255Y021275D01*
X002432Y021202D01*
X002567Y021067D01*
X002640Y020890D01*
X002640Y020699D01*
X002567Y020523D01*
X002432Y020388D01*
X002255Y020315D01*
X001464Y020315D01*
X001288Y020388D01*
X001180Y020496D01*
X001180Y020484D02*
X001192Y020484D01*
X001180Y020366D02*
X001341Y020366D01*
X001180Y020247D02*
X002662Y020247D01*
X002662Y020366D02*
X002379Y020366D01*
X002528Y020484D02*
X002662Y020484D01*
X002662Y020603D02*
X002600Y020603D01*
X002640Y020721D02*
X002662Y020721D01*
X002662Y020840D02*
X002640Y020840D01*
X002662Y020958D02*
X002612Y020958D01*
X002662Y021077D02*
X002557Y021077D01*
X002662Y021195D02*
X002438Y021195D01*
X002476Y021432D02*
X002605Y021432D01*
X002662Y021314D02*
X001180Y021314D01*
X001180Y021432D02*
X001244Y021432D01*
X001282Y021195D02*
X001180Y021195D01*
X001180Y022143D02*
X001230Y022143D01*
X001180Y022262D02*
X001433Y022262D01*
X001180Y022380D02*
X003855Y022380D01*
X003858Y022382D02*
X003618Y022244D01*
X003423Y022048D01*
X003284Y021809D01*
X003213Y021541D01*
X003213Y021265D01*
X003284Y020998D01*
X003423Y020758D01*
X003618Y020562D01*
X003858Y020424D01*
X004125Y020353D01*
X004402Y020353D01*
X004669Y020424D01*
X004908Y020562D01*
X005104Y020758D01*
X005242Y020998D01*
X005314Y021265D01*
X005314Y021541D01*
X005242Y021809D01*
X005104Y022048D01*
X004908Y022244D01*
X004669Y022382D01*
X004402Y022454D01*
X004125Y022454D01*
X003858Y022382D01*
X003650Y022262D02*
X002287Y022262D01*
X002490Y022143D02*
X003518Y022143D01*
X003409Y022025D02*
X002734Y022025D01*
X002866Y021906D02*
X003341Y021906D01*
X003279Y021788D02*
X002985Y021788D01*
X003103Y021669D02*
X003247Y021669D01*
X003215Y021551D02*
X003175Y021551D01*
X003182Y021432D02*
X003213Y021432D01*
X003213Y021314D02*
X003182Y021314D01*
X003182Y021195D02*
X003231Y021195D01*
X003263Y021077D02*
X003182Y021077D01*
X003182Y020958D02*
X003307Y020958D01*
X003376Y020840D02*
X003182Y020840D01*
X003182Y020721D02*
X003459Y020721D01*
X003578Y020603D02*
X003182Y020603D01*
X003182Y020484D02*
X003754Y020484D01*
X004076Y020366D02*
X003182Y020366D01*
X003182Y020247D02*
X005770Y020247D01*
X005770Y020186D02*
X005719Y020135D01*
X005317Y020135D01*
X005192Y020083D01*
X004942Y019833D01*
X004894Y019785D01*
X004847Y019737D01*
X004846Y019737D01*
X004822Y019678D01*
X004795Y019612D01*
X004795Y019546D01*
X004795Y019477D01*
X004795Y019287D01*
X004573Y019287D01*
X004467Y019182D01*
X004467Y018058D01*
X004573Y017952D01*
X005697Y017952D01*
X005802Y018058D01*
X005802Y019182D01*
X005697Y019287D01*
X005475Y019287D01*
X005475Y019404D01*
X005526Y019455D01*
X005927Y019455D01*
X006052Y019507D01*
X006148Y019602D01*
X006347Y019801D01*
X006398Y019852D01*
X006398Y019852D01*
X006398Y019852D01*
X006423Y019912D01*
X006450Y019977D01*
X006450Y019977D01*
X006450Y019977D01*
X006450Y020044D01*
X006450Y020906D01*
X006517Y020973D01*
X006590Y021149D01*
X006590Y021940D01*
X006517Y022117D01*
X006382Y022252D01*
X006205Y022325D01*
X006014Y022325D01*
X005838Y022252D01*
X005703Y022117D01*
X005630Y021940D01*
X005630Y021149D01*
X005703Y020973D01*
X005770Y020906D01*
X005770Y020186D01*
X005770Y020366D02*
X004451Y020366D01*
X004773Y020484D02*
X005770Y020484D01*
X005770Y020603D02*
X004949Y020603D01*
X005067Y020721D02*
X005770Y020721D01*
X005770Y020840D02*
X005151Y020840D01*
X005220Y020958D02*
X005718Y020958D01*
X005660Y021077D02*
X005264Y021077D01*
X005295Y021195D02*
X005630Y021195D01*
X005630Y021314D02*
X005314Y021314D01*
X005314Y021432D02*
X005630Y021432D01*
X005630Y021551D02*
X005311Y021551D01*
X005280Y021669D02*
X005630Y021669D01*
X005630Y021788D02*
X005248Y021788D01*
X005186Y021906D02*
X005630Y021906D01*
X005665Y022025D02*
X005118Y022025D01*
X005009Y022143D02*
X005730Y022143D01*
X005862Y022262D02*
X004877Y022262D01*
X004672Y022380D02*
X010548Y022380D01*
X010551Y022382D02*
X010311Y022244D01*
X010116Y022048D01*
X009977Y021809D01*
X009906Y021541D01*
X009906Y021265D01*
X009977Y020998D01*
X010116Y020758D01*
X010311Y020562D01*
X010551Y020424D01*
X010818Y020353D01*
X011095Y020353D01*
X011362Y020424D01*
X011601Y020562D01*
X011797Y020758D01*
X011935Y020998D01*
X012007Y021265D01*
X012007Y021541D01*
X011935Y021809D01*
X011797Y022048D01*
X011601Y022244D01*
X011362Y022382D01*
X011095Y022454D01*
X010818Y022454D01*
X010551Y022382D01*
X010343Y022262D02*
X009357Y022262D01*
X009382Y022252D02*
X009205Y022325D01*
X009014Y022325D01*
X008838Y022252D01*
X008703Y022117D01*
X008630Y021940D01*
X008630Y021149D01*
X008703Y020973D01*
X008770Y020906D01*
X008770Y020112D01*
X008770Y020044D01*
X008770Y019977D01*
X008797Y019912D01*
X008822Y019852D01*
X008866Y019807D01*
X008917Y019757D01*
X008917Y019757D01*
X009072Y019602D01*
X009167Y019507D01*
X009292Y019455D01*
X009694Y019455D01*
X009745Y019404D01*
X009745Y019287D01*
X009523Y019287D01*
X009417Y019182D01*
X009417Y018058D01*
X009523Y017952D01*
X010647Y017952D01*
X010752Y018058D01*
X010752Y019182D01*
X010647Y019287D01*
X010425Y019287D01*
X010425Y019546D01*
X010425Y019612D01*
X010425Y019612D01*
X010425Y019612D01*
X010398Y019677D01*
X010373Y019737D01*
X010373Y019737D01*
X010373Y019737D01*
X010325Y019785D01*
X010027Y020083D01*
X009902Y020135D01*
X009501Y020135D01*
X009450Y020186D01*
X009450Y020906D01*
X009517Y020973D01*
X009590Y021149D01*
X009590Y021940D01*
X009517Y022117D01*
X009382Y022252D01*
X009490Y022143D02*
X010211Y022143D01*
X010102Y022025D02*
X009555Y022025D01*
X009590Y021906D02*
X010034Y021906D01*
X009972Y021788D02*
X009590Y021788D01*
X009590Y021669D02*
X009940Y021669D01*
X009908Y021551D02*
X009590Y021551D01*
X009590Y021432D02*
X009906Y021432D01*
X009906Y021314D02*
X009590Y021314D01*
X009590Y021195D02*
X009924Y021195D01*
X009956Y021077D02*
X009560Y021077D01*
X009502Y020958D02*
X010000Y020958D01*
X010068Y020840D02*
X009450Y020840D01*
X009450Y020721D02*
X010152Y020721D01*
X010271Y020603D02*
X009450Y020603D01*
X009450Y020484D02*
X010447Y020484D01*
X010768Y020366D02*
X009450Y020366D01*
X009450Y020247D02*
X014040Y020247D01*
X014040Y020129D02*
X009917Y020129D01*
X010100Y020010D02*
X014040Y020010D01*
X014040Y019892D02*
X010219Y019892D01*
X010337Y019773D02*
X014040Y019773D01*
X014040Y019655D02*
X010407Y019655D01*
X010425Y019536D02*
X014040Y019536D01*
X014040Y019418D02*
X010425Y019418D01*
X010425Y019299D02*
X014040Y019299D01*
X014040Y019181D02*
X012402Y019181D01*
X012402Y019062D02*
X014040Y019062D01*
X014040Y018944D02*
X012402Y018944D01*
X012402Y018351D02*
X013649Y018351D01*
X013730Y018233D02*
X012402Y018233D01*
X012402Y018114D02*
X013730Y018114D01*
X013730Y017996D02*
X012340Y017996D01*
X012011Y017637D02*
X011458Y017637D01*
X011067Y017246D01*
X011067Y016693D01*
X011458Y016302D01*
X012011Y016302D01*
X012402Y016693D01*
X012402Y017246D01*
X012011Y017637D01*
X012127Y017522D02*
X013730Y017522D01*
X013730Y017640D02*
X006454Y017640D01*
X006457Y017637D02*
X006288Y017806D01*
X006221Y017873D01*
X006133Y017910D01*
X002047Y017910D01*
X001959Y017873D01*
X001267Y017181D01*
X001230Y017093D01*
X001230Y007804D01*
X001267Y007715D01*
X001772Y007210D01*
X001860Y007174D01*
X005843Y007174D01*
X005870Y007147D01*
X005870Y006799D01*
X005860Y006789D01*
X005814Y006835D01*
X005405Y006835D01*
X005300Y006729D01*
X005300Y005780D01*
X005392Y005688D01*
X005235Y005688D01*
X005147Y005776D01*
X004573Y005776D01*
X004467Y005671D01*
X004467Y005108D01*
X004545Y005031D01*
X004519Y005005D01*
X004498Y004969D01*
X004487Y004928D01*
X004487Y004744D01*
X004817Y004744D01*
X004817Y004657D01*
X004903Y004657D01*
X004903Y004334D01*
X005094Y004334D01*
X005134Y004345D01*
X005171Y004366D01*
X005201Y004395D01*
X005222Y004432D01*
X005232Y004473D01*
X005232Y004657D01*
X004903Y004657D01*
X004903Y004744D01*
X005232Y004744D01*
X005232Y004928D01*
X005222Y004969D01*
X005201Y005005D01*
X005175Y005031D01*
X005233Y005088D01*
X006711Y005084D01*
X006795Y004999D01*
X006795Y004761D01*
X006794Y004759D01*
X006795Y004702D01*
X006795Y004645D01*
X006796Y004642D01*
X006800Y004415D01*
X006405Y004415D01*
X006360Y004369D01*
X006314Y004415D01*
X005905Y004415D01*
X005846Y004355D01*
X005838Y004363D01*
X005802Y004384D01*
X005761Y004395D01*
X005615Y004395D01*
X005615Y003840D01*
X005605Y003840D01*
X005605Y004395D01*
X005459Y004395D01*
X005418Y004384D01*
X005382Y004363D01*
X005352Y004333D01*
X005331Y004297D01*
X005320Y004256D01*
X005320Y003840D01*
X005605Y003840D01*
X005605Y003830D01*
X005320Y003830D01*
X005320Y003414D01*
X005331Y003373D01*
X005352Y003337D01*
X005382Y003307D01*
X005418Y003286D01*
X005459Y003275D01*
X005605Y003275D01*
X005605Y003830D01*
X005615Y003830D01*
X005800Y003830D01*
X005800Y003840D01*
X005615Y003840D01*
X005615Y003830D01*
X005615Y003275D01*
X005761Y003275D01*
X005802Y003286D01*
X005838Y003307D01*
X005846Y003314D01*
X005870Y003290D01*
X005870Y003269D01*
X005760Y003160D01*
X004834Y003160D01*
X004402Y003592D01*
X004402Y003671D01*
X004297Y003776D01*
X003723Y003776D01*
X003617Y003671D01*
X003617Y003629D01*
X002647Y003629D01*
X002670Y003683D01*
X002670Y003906D01*
X002585Y004112D01*
X002427Y004270D01*
X002221Y004355D01*
X001999Y004355D01*
X001793Y004270D01*
X001635Y004112D01*
X001550Y003906D01*
X001550Y003683D01*
X001635Y003478D01*
X001793Y003320D01*
X001999Y003235D01*
X002221Y003235D01*
X002299Y003267D01*
X002312Y003253D01*
X002379Y003186D01*
X002468Y003149D01*
X003617Y003149D01*
X003617Y003108D01*
X003681Y003045D01*
X003617Y002982D01*
X003617Y002940D01*
X002468Y002940D01*
X002379Y002904D01*
X002312Y002836D01*
X002299Y002823D01*
X002221Y002855D01*
X001999Y002855D01*
X001793Y002770D01*
X001635Y002612D01*
X001550Y002406D01*
X001550Y002183D01*
X001635Y001978D01*
X001793Y001820D01*
X001999Y001735D01*
X002221Y001735D01*
X002427Y001820D01*
X002585Y001978D01*
X002670Y002183D01*
X002670Y002406D01*
X002647Y002460D01*
X003617Y002460D01*
X003617Y002419D01*
X003723Y002314D01*
X004297Y002314D01*
X004402Y002419D01*
X004402Y002460D01*
X006438Y002460D01*
X006526Y002497D01*
X006813Y002784D01*
X006850Y002872D01*
X006850Y003290D01*
X006860Y003300D01*
X006905Y003255D01*
X007314Y003255D01*
X007420Y003360D01*
X007420Y004309D01*
X007401Y004328D01*
X007400Y004404D01*
X008395Y004404D01*
X008346Y004355D01*
X008338Y004363D01*
X008302Y004384D01*
X008261Y004395D01*
X008115Y004395D01*
X008115Y003840D01*
X008105Y003840D01*
X008105Y004395D01*
X007959Y004395D01*
X007918Y004384D01*
X007882Y004363D01*
X007852Y004333D01*
X007831Y004297D01*
X007820Y004256D01*
X007820Y003840D01*
X008105Y003840D01*
X008105Y003830D01*
X007820Y003830D01*
X007820Y003414D01*
X007831Y003373D01*
X007852Y003337D01*
X007882Y003307D01*
X007918Y003286D01*
X007959Y003275D01*
X008105Y003275D01*
X008105Y003830D01*
X008115Y003830D01*
X008115Y003275D01*
X008261Y003275D01*
X008302Y003286D01*
X008338Y003307D01*
X008346Y003314D01*
X008370Y003290D01*
X008370Y002872D01*
X008406Y002784D01*
X008474Y002716D01*
X008762Y002428D01*
X008850Y002392D01*
X010817Y002392D01*
X010817Y002351D01*
X010923Y002245D01*
X011497Y002245D01*
X011602Y002351D01*
X011602Y002392D01*
X012550Y002392D01*
X012550Y002183D01*
X012635Y001978D01*
X012793Y001820D01*
X012999Y001735D01*
X013221Y001735D01*
X013427Y001820D01*
X013585Y001978D01*
X013670Y002183D01*
X013670Y002406D01*
X013585Y002612D01*
X013427Y002770D01*
X013221Y002855D01*
X012999Y002855D01*
X012921Y002823D01*
X012909Y002835D01*
X012821Y002872D01*
X011602Y002872D01*
X011602Y002913D01*
X011539Y002976D01*
X011602Y003040D01*
X011602Y003081D01*
X012684Y003081D01*
X012772Y003117D01*
X012921Y003267D01*
X012999Y003235D01*
X013221Y003235D01*
X013427Y003320D01*
X013585Y003478D01*
X013670Y003683D01*
X013670Y003906D01*
X013585Y004112D01*
X013427Y004270D01*
X013221Y004355D01*
X012999Y004355D01*
X012793Y004270D01*
X012635Y004112D01*
X012550Y003906D01*
X012550Y003683D01*
X012582Y003606D01*
X012537Y003561D01*
X011602Y003561D01*
X011602Y003602D01*
X011497Y003708D01*
X010923Y003708D01*
X010817Y003602D01*
X010817Y003552D01*
X010750Y003524D01*
X010385Y003160D01*
X009459Y003160D01*
X009350Y003269D01*
X009350Y003290D01*
X009360Y003300D01*
X009405Y003255D01*
X009814Y003255D01*
X009920Y003360D01*
X009920Y004309D01*
X009901Y004328D01*
X009900Y004404D01*
X009982Y004404D01*
X010073Y004314D01*
X010647Y004314D01*
X010738Y004404D01*
X010751Y004391D01*
X010883Y004336D01*
X011026Y004336D01*
X011157Y004391D01*
X011258Y004491D01*
X011313Y004623D01*
X011313Y004713D01*
X011398Y004799D01*
X012495Y004799D01*
X012576Y004718D01*
X012715Y004661D01*
X012865Y004661D01*
X013004Y004718D01*
X013111Y004825D01*
X013168Y004964D01*
X013168Y005114D01*
X013111Y005253D01*
X013030Y005334D01*
X013030Y005529D01*
X013062Y005529D01*
X013125Y005592D01*
X013188Y005529D01*
X013731Y005529D01*
X013836Y005635D01*
X013836Y006140D01*
X013925Y006228D01*
X013925Y006850D01*
X013819Y006955D01*
X013198Y006955D01*
X013092Y006850D01*
X013092Y006292D01*
X013078Y006306D01*
X013078Y006481D01*
X012740Y006481D01*
X012740Y006597D01*
X013078Y006597D01*
X013078Y006796D01*
X013067Y006837D01*
X013046Y006873D01*
X013016Y006903D01*
X012980Y006924D01*
X012939Y006935D01*
X012740Y006935D01*
X012740Y006597D01*
X012624Y006597D01*
X012624Y006935D01*
X012424Y006935D01*
X012384Y006924D01*
X012347Y006903D01*
X012317Y006873D01*
X012296Y006837D01*
X012285Y006796D01*
X012285Y006597D01*
X012623Y006597D01*
X012623Y006481D01*
X012285Y006481D01*
X012285Y006282D01*
X012296Y006241D01*
X012317Y006204D01*
X012347Y006175D01*
X012384Y006154D01*
X012413Y006146D01*
X009920Y006146D01*
X009920Y006264D02*
X012290Y006264D01*
X012285Y006383D02*
X009920Y006383D01*
X009920Y006501D02*
X012623Y006501D01*
X012740Y006501D02*
X013092Y006501D01*
X013078Y006383D02*
X013092Y006383D01*
X013078Y006620D02*
X013092Y006620D01*
X013078Y006738D02*
X013092Y006738D01*
X013099Y006857D02*
X013055Y006857D01*
X012740Y006857D02*
X012624Y006857D01*
X012624Y006738D02*
X012740Y006738D01*
X012740Y006620D02*
X012624Y006620D01*
X012285Y006620D02*
X009920Y006620D01*
X009920Y006729D02*
X009850Y006799D01*
X009850Y007772D01*
X009914Y007836D01*
X009968Y007968D01*
X009968Y008110D01*
X009914Y008242D01*
X009813Y008343D01*
X009762Y008364D01*
X009834Y008345D01*
X010110Y008345D01*
X010378Y008416D01*
X010617Y008555D01*
X010813Y008750D01*
X010951Y008990D01*
X012359Y008990D01*
X012361Y009007D02*
X012384Y009076D01*
X012416Y009140D01*
X012459Y009199D01*
X012510Y009250D01*
X012569Y009293D01*
X012633Y009325D01*
X012702Y009348D01*
X012774Y009359D01*
X013070Y009359D01*
X013070Y008939D01*
X013070Y008859D01*
X013150Y008859D01*
X013150Y008439D01*
X013446Y008439D01*
X013518Y008450D01*
X013586Y008473D01*
X013651Y008506D01*
X013710Y008548D01*
X013761Y008599D01*
X013803Y008658D01*
X013836Y008723D01*
X013859Y008791D01*
X013869Y008859D01*
X013150Y008859D01*
X013150Y008939D01*
X013869Y008939D01*
X013859Y009007D01*
X013836Y009076D01*
X013803Y009140D01*
X013761Y009199D01*
X013710Y009250D01*
X013651Y009293D01*
X013586Y009325D01*
X013518Y009348D01*
X013446Y009359D01*
X013150Y009359D01*
X013150Y008939D01*
X013070Y008939D01*
X012351Y008939D01*
X012361Y009007D01*
X012400Y009108D02*
X010983Y009108D01*
X010951Y008990D02*
X011023Y009257D01*
X011023Y009534D01*
X010951Y009801D01*
X010813Y010040D01*
X010617Y010236D01*
X010378Y010374D01*
X010110Y010446D01*
X009834Y010446D01*
X009567Y010374D01*
X009327Y010236D01*
X009131Y010040D01*
X008993Y009801D01*
X008922Y009534D01*
X008922Y009257D01*
X008993Y008990D01*
X006227Y008990D01*
X006298Y009257D01*
X006298Y009534D01*
X006227Y009801D01*
X006088Y010040D01*
X005893Y010236D01*
X005653Y010374D01*
X005386Y010446D01*
X005109Y010446D01*
X004842Y010374D01*
X004603Y010236D01*
X004407Y010040D01*
X004269Y009801D01*
X004197Y009534D01*
X004197Y009257D01*
X004269Y008990D01*
X002225Y008990D01*
X002225Y009108D02*
X004237Y009108D01*
X004269Y008990D02*
X004407Y008750D01*
X004603Y008555D01*
X004842Y008416D01*
X005109Y008345D01*
X005386Y008345D01*
X005653Y008416D01*
X005893Y008555D01*
X006088Y008750D01*
X006227Y008990D01*
X006258Y009108D02*
X008961Y009108D01*
X008993Y008990D02*
X009131Y008750D01*
X009327Y008555D01*
X009567Y008416D01*
X009637Y008397D01*
X009539Y008397D01*
X009407Y008343D01*
X009306Y008242D01*
X009251Y008110D01*
X009251Y007968D01*
X009306Y007836D01*
X009370Y007772D01*
X009370Y007292D01*
X009313Y007349D01*
X009181Y007403D01*
X009039Y007403D01*
X008968Y007374D01*
X008968Y007485D01*
X008914Y007617D01*
X008813Y007718D01*
X008681Y007772D01*
X008539Y007772D01*
X008407Y007718D01*
X008306Y007617D01*
X008251Y007485D01*
X008251Y007343D01*
X008306Y007211D01*
X008370Y007147D01*
X008370Y006799D01*
X008360Y006789D01*
X008314Y006835D01*
X007905Y006835D01*
X007800Y006729D01*
X007800Y005780D01*
X007905Y005675D01*
X008314Y005675D01*
X008360Y005720D01*
X008405Y005675D01*
X008814Y005675D01*
X008860Y005720D01*
X008905Y005675D01*
X009314Y005675D01*
X009360Y005720D01*
X009405Y005675D01*
X009814Y005675D01*
X009920Y005780D01*
X009920Y006729D01*
X009911Y006738D02*
X012285Y006738D01*
X012308Y006857D02*
X009850Y006857D01*
X009850Y006975D02*
X014040Y006975D01*
X014040Y006857D02*
X013917Y006857D01*
X013925Y006738D02*
X014040Y006738D01*
X014040Y006620D02*
X013925Y006620D01*
X013925Y006501D02*
X014040Y006501D01*
X014040Y006383D02*
X013925Y006383D01*
X013925Y006264D02*
X014040Y006264D01*
X014040Y006146D02*
X013842Y006146D01*
X013836Y006027D02*
X014040Y006027D01*
X014040Y005909D02*
X013836Y005909D01*
X013836Y005790D02*
X014040Y005790D01*
X014040Y005672D02*
X013836Y005672D01*
X013755Y005553D02*
X014040Y005553D01*
X014040Y005435D02*
X013030Y005435D01*
X013047Y005316D02*
X014040Y005316D01*
X014040Y005198D02*
X013134Y005198D01*
X013168Y005079D02*
X014040Y005079D01*
X014040Y004961D02*
X013167Y004961D01*
X013118Y004842D02*
X014040Y004842D01*
X014040Y004724D02*
X013010Y004724D01*
X012790Y005039D02*
X011299Y005039D01*
X010954Y004694D01*
X010960Y004694D01*
X010954Y004694D02*
X010360Y004700D01*
X010702Y004368D02*
X010805Y004368D01*
X011104Y004368D02*
X014040Y004368D01*
X014040Y004250D02*
X013447Y004250D01*
X013565Y004131D02*
X014040Y004131D01*
X014040Y004013D02*
X013626Y004013D01*
X013670Y003894D02*
X014040Y003894D01*
X014040Y003776D02*
X013670Y003776D01*
X013659Y003657D02*
X014040Y003657D01*
X014040Y003539D02*
X013610Y003539D01*
X013527Y003420D02*
X014040Y003420D01*
X014040Y003302D02*
X013383Y003302D01*
X013287Y002828D02*
X014040Y002828D01*
X014040Y002946D02*
X011569Y002946D01*
X011602Y003065D02*
X014040Y003065D01*
X014040Y003183D02*
X012838Y003183D01*
X012916Y002828D02*
X012933Y002828D01*
X012773Y002632D02*
X013110Y002295D01*
X012773Y002632D02*
X011210Y002632D01*
X008898Y002632D01*
X008610Y002920D01*
X008610Y003835D01*
X008359Y004368D02*
X008329Y004368D01*
X008115Y004368D02*
X008105Y004368D01*
X008105Y004250D02*
X008115Y004250D01*
X008105Y004131D02*
X008115Y004131D01*
X008105Y004013D02*
X008115Y004013D01*
X008105Y003894D02*
X008115Y003894D01*
X008105Y003776D02*
X008115Y003776D01*
X008105Y003657D02*
X008115Y003657D01*
X008105Y003539D02*
X008115Y003539D01*
X008105Y003420D02*
X008115Y003420D01*
X008105Y003302D02*
X008115Y003302D01*
X008330Y003302D02*
X008358Y003302D01*
X008370Y003183D02*
X006850Y003183D01*
X006850Y003065D02*
X008370Y003065D01*
X008370Y002946D02*
X007820Y002946D01*
X008130Y002828D02*
X008388Y002828D01*
X008301Y002709D02*
X008481Y002709D01*
X008420Y002591D02*
X008600Y002591D01*
X008501Y002472D02*
X008718Y002472D01*
X008570Y002354D02*
X010817Y002354D01*
X010485Y002920D02*
X009360Y002920D01*
X009110Y003170D01*
X009110Y003835D01*
X009436Y003183D02*
X010409Y003183D01*
X010527Y003302D02*
X009861Y003302D01*
X009920Y003420D02*
X010646Y003420D01*
X010785Y003539D02*
X009920Y003539D01*
X009920Y003657D02*
X010872Y003657D01*
X010886Y003321D02*
X010485Y002920D01*
X010886Y003321D02*
X011210Y003321D01*
X012636Y003321D01*
X013110Y003795D01*
X012773Y004250D02*
X009920Y004250D01*
X009920Y004131D02*
X012654Y004131D01*
X012594Y004013D02*
X009920Y004013D01*
X009920Y003894D02*
X012550Y003894D01*
X012550Y003776D02*
X009920Y003776D01*
X009901Y004368D02*
X010018Y004368D01*
X009990Y005004D02*
X009652Y005004D01*
X009650Y005005D01*
X009592Y005004D01*
X007395Y005004D01*
X007395Y005183D01*
X007349Y005293D01*
X007265Y005378D01*
X007047Y005595D01*
X007006Y005637D01*
X007005Y005637D01*
X007005Y005638D01*
X006950Y005660D01*
X006916Y005675D01*
X007314Y005675D01*
X007420Y005780D01*
X007420Y006729D01*
X007350Y006799D01*
X007350Y007772D01*
X007414Y007836D01*
X007468Y007968D01*
X007468Y008110D01*
X007414Y008242D01*
X007313Y008343D01*
X007181Y008397D01*
X007039Y008397D01*
X006907Y008343D01*
X006843Y008279D01*
X002334Y008279D01*
X002225Y008388D01*
X002225Y010898D01*
X002747Y010898D01*
X002810Y010962D01*
X002873Y010898D01*
X003416Y010898D01*
X003521Y011004D01*
X003521Y011055D01*
X003780Y011055D01*
X003780Y010984D01*
X003886Y010879D01*
X004507Y010879D01*
X004610Y010981D01*
X004713Y010879D01*
X005334Y010879D01*
X005440Y010984D01*
X005440Y011606D01*
X005334Y011711D01*
X005283Y011711D01*
X005283Y012265D01*
X005990Y012265D01*
X006117Y012138D01*
X006117Y011658D01*
X006223Y011552D01*
X007347Y011552D01*
X007452Y011658D01*
X007452Y012782D01*
X007347Y012887D01*
X006867Y012887D01*
X006552Y013202D01*
X007061Y013202D01*
X007452Y013593D01*
X007452Y014146D01*
X007061Y014537D01*
X006867Y014537D01*
X006660Y014744D01*
X006465Y014825D01*
X003794Y014825D01*
X003721Y014855D01*
X003499Y014855D01*
X003293Y014770D01*
X003135Y014612D01*
X003111Y014555D01*
X002808Y014555D01*
X002713Y014515D01*
X002255Y014057D01*
X002225Y013985D01*
X002225Y015445D01*
X002584Y015805D01*
X004258Y015805D01*
X004346Y015841D01*
X004413Y015909D01*
X004807Y016302D01*
X005697Y016302D01*
X005802Y016408D01*
X005802Y017430D01*
X005985Y017430D01*
X006117Y017298D01*
X006117Y016408D01*
X006223Y016302D01*
X007347Y016302D01*
X007452Y016408D01*
X007452Y017532D01*
X007347Y017637D01*
X006457Y017637D01*
X006335Y017759D02*
X013730Y017759D01*
X013730Y017877D02*
X006211Y017877D01*
X006223Y017952D02*
X007347Y017952D01*
X007452Y018058D01*
X007452Y019182D01*
X007450Y019184D01*
X007450Y020906D01*
X007517Y020973D01*
X007590Y021149D01*
X007590Y021940D01*
X007517Y022117D01*
X007382Y022252D01*
X007205Y022325D01*
X007014Y022325D01*
X006838Y022252D01*
X006703Y022117D01*
X006630Y021940D01*
X006630Y021149D01*
X006703Y020973D01*
X006770Y020906D01*
X006770Y019287D01*
X006223Y019287D01*
X006117Y019182D01*
X006117Y018058D01*
X006223Y017952D01*
X006179Y017996D02*
X005740Y017996D01*
X005802Y018114D02*
X006117Y018114D01*
X006117Y018233D02*
X005802Y018233D01*
X005802Y018351D02*
X006117Y018351D01*
X006117Y018470D02*
X005802Y018470D01*
X005802Y018588D02*
X006117Y018588D01*
X006117Y018707D02*
X005802Y018707D01*
X005802Y018825D02*
X006117Y018825D01*
X006117Y018944D02*
X005802Y018944D01*
X005802Y019062D02*
X006117Y019062D01*
X006117Y019181D02*
X005802Y019181D01*
X005475Y019299D02*
X006770Y019299D01*
X006770Y019418D02*
X005489Y019418D01*
X005001Y019892D02*
X003137Y019892D01*
X003182Y020010D02*
X005119Y020010D01*
X005303Y020129D02*
X003182Y020129D01*
X003019Y019773D02*
X004882Y019773D01*
X004847Y019737D02*
X004847Y019737D01*
X004812Y019655D02*
X002900Y019655D01*
X002782Y019536D02*
X004795Y019536D01*
X004795Y019477D02*
X004795Y019477D01*
X004795Y019418D02*
X002663Y019418D01*
X002545Y019299D02*
X004795Y019299D01*
X004795Y019612D02*
X004795Y019612D01*
X004795Y019612D01*
X004942Y019833D02*
X004942Y019833D01*
X004467Y019181D02*
X004152Y019181D01*
X004152Y019182D02*
X004047Y019287D01*
X002923Y019287D01*
X002817Y019182D01*
X002817Y018058D01*
X002923Y017952D01*
X004047Y017952D01*
X004152Y018058D01*
X004152Y019182D01*
X004152Y019062D02*
X004467Y019062D01*
X004467Y018944D02*
X004152Y018944D01*
X004152Y018825D02*
X004467Y018825D01*
X004467Y018707D02*
X004152Y018707D01*
X004152Y018588D02*
X004467Y018588D01*
X004467Y018470D02*
X004152Y018470D01*
X004152Y018351D02*
X004467Y018351D01*
X004467Y018233D02*
X004152Y018233D01*
X004152Y018114D02*
X004467Y018114D01*
X004529Y017996D02*
X004090Y017996D01*
X003485Y016970D02*
X002145Y016970D01*
X001720Y016545D01*
X001720Y008039D01*
X001970Y007789D01*
X006366Y007789D01*
X006610Y007545D01*
X006610Y007045D01*
X006610Y006255D01*
X006923Y005672D02*
X010006Y005672D01*
X009998Y005658D02*
X009987Y005617D01*
X009987Y005433D01*
X010317Y005433D01*
X010317Y005756D01*
X010126Y005756D01*
X010086Y005745D01*
X010049Y005724D01*
X010019Y005694D01*
X009998Y005658D01*
X009987Y005553D02*
X007090Y005553D01*
X007208Y005435D02*
X009987Y005435D01*
X009987Y005346D02*
X009987Y005162D01*
X009998Y005121D01*
X010019Y005084D01*
X010045Y005059D01*
X009990Y005004D01*
X010024Y005079D02*
X007395Y005079D01*
X007389Y005198D02*
X009987Y005198D01*
X009987Y005316D02*
X007327Y005316D01*
X007420Y005790D02*
X007800Y005790D01*
X007800Y005909D02*
X007420Y005909D01*
X007420Y006027D02*
X007800Y006027D01*
X007800Y006146D02*
X007420Y006146D01*
X007420Y006264D02*
X007800Y006264D01*
X007800Y006383D02*
X007420Y006383D01*
X007420Y006501D02*
X007800Y006501D01*
X007800Y006620D02*
X007420Y006620D01*
X007411Y006738D02*
X007809Y006738D01*
X007350Y006857D02*
X008370Y006857D01*
X008370Y006975D02*
X007350Y006975D01*
X007350Y007094D02*
X008370Y007094D01*
X008305Y007212D02*
X007350Y007212D01*
X007350Y007331D02*
X008256Y007331D01*
X008251Y007449D02*
X007350Y007449D01*
X007350Y007568D02*
X008286Y007568D01*
X008375Y007686D02*
X007350Y007686D01*
X007383Y007805D02*
X009337Y007805D01*
X009370Y007686D02*
X008844Y007686D01*
X008934Y007568D02*
X009370Y007568D01*
X009370Y007449D02*
X008968Y007449D01*
X009331Y007331D02*
X009370Y007331D01*
X009110Y007045D02*
X009110Y006255D01*
X009610Y006255D02*
X009610Y008039D01*
X009877Y008279D02*
X014040Y008279D01*
X014040Y008397D02*
X010307Y008397D01*
X010550Y008516D02*
X012555Y008516D01*
X012569Y008506D02*
X012633Y008473D01*
X012702Y008450D01*
X012774Y008439D01*
X013070Y008439D01*
X013070Y008859D01*
X012351Y008859D01*
X012361Y008791D01*
X012384Y008723D01*
X012416Y008658D01*
X012459Y008599D01*
X012510Y008548D01*
X012569Y008506D01*
X012434Y008634D02*
X010697Y008634D01*
X010814Y008753D02*
X012374Y008753D01*
X012487Y009227D02*
X011015Y009227D01*
X011023Y009345D02*
X012694Y009345D01*
X012607Y009464D02*
X011023Y009464D01*
X011010Y009582D02*
X012448Y009582D01*
X012373Y009701D02*
X010978Y009701D01*
X010940Y009819D02*
X012330Y009819D01*
X012330Y009938D02*
X010872Y009938D01*
X010797Y010056D02*
X012355Y010056D01*
X012407Y010175D02*
X010678Y010175D01*
X010518Y010293D02*
X012525Y010293D01*
X012473Y010898D02*
X013016Y010898D01*
X013121Y011004D01*
X013121Y011586D01*
X013016Y011691D01*
X013005Y011691D01*
X013005Y013962D01*
X012965Y014057D01*
X012580Y014442D01*
X012507Y014515D01*
X012412Y014555D01*
X012108Y014555D01*
X012085Y014612D01*
X011927Y014770D01*
X011721Y014855D01*
X011499Y014855D01*
X011293Y014770D01*
X011135Y014612D01*
X011050Y014406D01*
X011050Y014183D01*
X011135Y013978D01*
X011293Y013820D01*
X011499Y013735D01*
X011721Y013735D01*
X011927Y013820D01*
X012085Y013978D01*
X012108Y014035D01*
X012252Y014035D01*
X012485Y013802D01*
X012485Y011691D01*
X012473Y011691D01*
X012410Y011628D01*
X012347Y011691D01*
X011804Y011691D01*
X011698Y011586D01*
X011698Y011535D01*
X011440Y011535D01*
X011440Y011606D01*
X011334Y011711D01*
X010713Y011711D01*
X010610Y011608D01*
X010507Y011711D01*
X010457Y011711D01*
X010457Y012265D01*
X011426Y012265D01*
X011499Y012235D01*
X011721Y012235D01*
X011927Y012320D01*
X012085Y012478D01*
X012170Y012683D01*
X012170Y012906D01*
X012085Y013112D01*
X011927Y013270D01*
X011721Y013355D01*
X011499Y013355D01*
X011426Y013325D01*
X010329Y013325D01*
X009335Y014319D01*
X009140Y014400D01*
X009102Y014400D01*
X009102Y014432D01*
X008997Y014537D01*
X007873Y014537D01*
X007767Y014432D01*
X007767Y013308D01*
X007873Y013202D01*
X008953Y013202D01*
X009810Y012345D01*
X009937Y012293D01*
X009937Y011711D01*
X009886Y011711D01*
X009780Y011606D01*
X009780Y010984D01*
X009886Y010879D01*
X010507Y010879D01*
X010610Y010981D01*
X010713Y010879D01*
X011334Y010879D01*
X011440Y010984D01*
X011440Y011055D01*
X011698Y011055D01*
X011698Y011004D01*
X011804Y010898D01*
X012347Y010898D01*
X012410Y010962D01*
X012473Y010898D01*
X012075Y011295D02*
X011023Y011295D01*
X010705Y010886D02*
X010515Y010886D01*
X010237Y010412D02*
X013730Y010412D01*
X013730Y010530D02*
X002225Y010530D01*
X002225Y010412D02*
X004983Y010412D01*
X004702Y010293D02*
X002225Y010293D01*
X002225Y010175D02*
X004542Y010175D01*
X004423Y010056D02*
X002225Y010056D01*
X002225Y009938D02*
X004348Y009938D01*
X004279Y009819D02*
X002225Y009819D01*
X002225Y009701D02*
X004242Y009701D01*
X004210Y009582D02*
X002225Y009582D01*
X002225Y009464D02*
X004197Y009464D01*
X004197Y009345D02*
X002225Y009345D01*
X002225Y009227D02*
X004205Y009227D01*
X004337Y008871D02*
X002225Y008871D01*
X002225Y008753D02*
X004406Y008753D01*
X004523Y008634D02*
X002225Y008634D01*
X002225Y008516D02*
X004670Y008516D01*
X004913Y008397D02*
X002225Y008397D01*
X001985Y008289D02*
X002235Y008039D01*
X007110Y008039D01*
X007110Y006255D01*
X006715Y005079D02*
X005224Y005079D01*
X005224Y004961D02*
X006795Y004961D01*
X006795Y004842D02*
X005232Y004842D01*
X005232Y004605D02*
X006797Y004605D01*
X006799Y004487D02*
X005232Y004487D01*
X005173Y004368D02*
X005391Y004368D01*
X005320Y004250D02*
X002447Y004250D01*
X002565Y004131D02*
X005320Y004131D01*
X005320Y004013D02*
X002626Y004013D01*
X002670Y003894D02*
X005320Y003894D01*
X005320Y003776D02*
X004297Y003776D01*
X004402Y003657D02*
X005320Y003657D01*
X005320Y003539D02*
X004455Y003539D01*
X004574Y003420D02*
X005320Y003420D01*
X005390Y003302D02*
X004692Y003302D01*
X004811Y003183D02*
X005784Y003183D01*
X005830Y003302D02*
X005858Y003302D01*
X005615Y003302D02*
X005605Y003302D01*
X005605Y003420D02*
X005615Y003420D01*
X005605Y003539D02*
X005615Y003539D01*
X005605Y003657D02*
X005615Y003657D01*
X005605Y003776D02*
X005615Y003776D01*
X005605Y003894D02*
X005615Y003894D01*
X005605Y004013D02*
X005615Y004013D01*
X005605Y004131D02*
X005615Y004131D01*
X005605Y004250D02*
X005615Y004250D01*
X005605Y004368D02*
X005615Y004368D01*
X005829Y004368D02*
X005859Y004368D01*
X006110Y003835D02*
X006110Y003170D01*
X005860Y002920D01*
X004735Y002920D01*
X004265Y003389D01*
X004010Y003389D01*
X002515Y003389D01*
X002110Y003795D01*
X001837Y003302D02*
X001180Y003302D01*
X001180Y003420D02*
X001692Y003420D01*
X001610Y003539D02*
X001180Y003539D01*
X001180Y003657D02*
X001561Y003657D01*
X001550Y003776D02*
X001180Y003776D01*
X001180Y003894D02*
X001550Y003894D01*
X001594Y004013D02*
X001180Y004013D01*
X001180Y004131D02*
X001654Y004131D01*
X001773Y004250D02*
X001180Y004250D01*
X001180Y004368D02*
X004546Y004368D01*
X004549Y004366D02*
X004586Y004345D01*
X004626Y004334D01*
X004817Y004334D01*
X004817Y004657D01*
X004487Y004657D01*
X004487Y004473D01*
X004498Y004432D01*
X004519Y004395D01*
X004549Y004366D01*
X004487Y004487D02*
X001180Y004487D01*
X001180Y004605D02*
X004487Y004605D01*
X004487Y004842D02*
X001180Y004842D01*
X001180Y004724D02*
X004817Y004724D01*
X004903Y004724D02*
X006795Y004724D01*
X007401Y004368D02*
X007891Y004368D01*
X007820Y004250D02*
X007420Y004250D01*
X007420Y004131D02*
X007820Y004131D01*
X007820Y004013D02*
X007420Y004013D01*
X007420Y003894D02*
X007820Y003894D01*
X007820Y003776D02*
X007420Y003776D01*
X007420Y003657D02*
X007820Y003657D01*
X007820Y003539D02*
X007420Y003539D01*
X007420Y003420D02*
X007820Y003420D01*
X007890Y003302D02*
X007361Y003302D01*
X007400Y002946D02*
X006850Y002946D01*
X006832Y002828D02*
X007090Y002828D01*
X006919Y002709D02*
X006739Y002709D01*
X006800Y002591D02*
X006620Y002591D01*
X006719Y002472D02*
X006467Y002472D01*
X006390Y002700D02*
X006610Y002920D01*
X006610Y003835D01*
X006390Y002700D02*
X004010Y002700D01*
X002515Y002700D01*
X002110Y002295D01*
X001732Y002709D02*
X001180Y002709D01*
X001180Y002591D02*
X001626Y002591D01*
X001577Y002472D02*
X001180Y002472D01*
X001180Y002354D02*
X001550Y002354D01*
X001550Y002235D02*
X001180Y002235D01*
X001180Y002117D02*
X001578Y002117D01*
X001627Y001998D02*
X001180Y001998D01*
X001180Y001880D02*
X001733Y001880D01*
X001935Y001761D02*
X001180Y001761D01*
X001180Y001643D02*
X006595Y001643D01*
X006563Y001761D02*
X002285Y001761D01*
X002487Y001880D02*
X006559Y001880D01*
X006559Y001998D02*
X002593Y001998D01*
X002642Y002117D02*
X006576Y002117D01*
X006608Y002235D02*
X002670Y002235D01*
X002670Y002354D02*
X003683Y002354D01*
X003617Y002946D02*
X001180Y002946D01*
X001180Y002828D02*
X001933Y002828D01*
X002287Y002828D02*
X002303Y002828D01*
X002386Y003183D02*
X001180Y003183D01*
X001180Y003065D02*
X003661Y003065D01*
X003617Y003657D02*
X002659Y003657D01*
X002670Y003776D02*
X003723Y003776D01*
X004496Y004961D02*
X001180Y004961D01*
X001180Y005079D02*
X004496Y005079D01*
X004467Y005198D02*
X001180Y005198D01*
X001180Y005316D02*
X004467Y005316D01*
X004467Y005435D02*
X001180Y005435D01*
X001180Y005553D02*
X004467Y005553D01*
X004469Y005672D02*
X001180Y005672D01*
X001180Y005790D02*
X005300Y005790D01*
X005300Y005909D02*
X001180Y005909D01*
X001180Y006027D02*
X005300Y006027D01*
X005300Y006146D02*
X001180Y006146D01*
X001180Y006264D02*
X005300Y006264D01*
X005300Y006383D02*
X001180Y006383D01*
X001180Y006501D02*
X005300Y006501D01*
X005300Y006620D02*
X001180Y006620D01*
X001180Y006738D02*
X005309Y006738D01*
X005870Y006857D02*
X001180Y006857D01*
X001180Y006975D02*
X005870Y006975D01*
X005870Y007094D02*
X001180Y007094D01*
X001180Y007212D02*
X001770Y007212D01*
X001651Y007331D02*
X001180Y007331D01*
X001180Y007449D02*
X001533Y007449D01*
X001414Y007568D02*
X001180Y007568D01*
X001180Y007686D02*
X001296Y007686D01*
X001230Y007805D02*
X001180Y007805D01*
X001180Y007923D02*
X001230Y007923D01*
X001230Y008042D02*
X001180Y008042D01*
X001180Y008160D02*
X001230Y008160D01*
X001230Y008279D02*
X001180Y008279D01*
X001180Y008397D02*
X001230Y008397D01*
X001230Y008516D02*
X001180Y008516D01*
X001180Y008634D02*
X001230Y008634D01*
X001230Y008753D02*
X001180Y008753D01*
X001180Y008871D02*
X001230Y008871D01*
X001230Y008990D02*
X001180Y008990D01*
X001180Y009108D02*
X001230Y009108D01*
X001230Y009227D02*
X001180Y009227D01*
X001180Y009345D02*
X001230Y009345D01*
X001230Y009464D02*
X001180Y009464D01*
X001180Y009582D02*
X001230Y009582D01*
X001230Y009701D02*
X001180Y009701D01*
X001180Y009819D02*
X001230Y009819D01*
X001230Y009938D02*
X001180Y009938D01*
X001180Y010056D02*
X001230Y010056D01*
X001230Y010175D02*
X001180Y010175D01*
X001180Y010293D02*
X001230Y010293D01*
X001230Y010412D02*
X001180Y010412D01*
X001180Y010530D02*
X001230Y010530D01*
X001230Y010649D02*
X001180Y010649D01*
X001180Y010767D02*
X001230Y010767D01*
X001230Y010886D02*
X001180Y010886D01*
X001180Y011004D02*
X001230Y011004D01*
X001230Y011123D02*
X001180Y011123D01*
X001180Y011241D02*
X001230Y011241D01*
X001230Y011360D02*
X001180Y011360D01*
X001180Y011478D02*
X001230Y011478D01*
X001230Y011597D02*
X001180Y011597D01*
X001180Y011715D02*
X001230Y011715D01*
X001230Y011834D02*
X001180Y011834D01*
X001180Y011952D02*
X001230Y011952D01*
X001230Y012071D02*
X001180Y012071D01*
X001180Y012189D02*
X001230Y012189D01*
X001230Y012308D02*
X001180Y012308D01*
X001180Y012426D02*
X001230Y012426D01*
X001230Y012545D02*
X001180Y012545D01*
X001180Y012663D02*
X001230Y012663D01*
X001230Y012782D02*
X001180Y012782D01*
X001180Y012900D02*
X001230Y012900D01*
X001230Y013019D02*
X001180Y013019D01*
X001180Y013137D02*
X001230Y013137D01*
X001230Y013256D02*
X001180Y013256D01*
X001180Y013374D02*
X001230Y013374D01*
X001230Y013493D02*
X001180Y013493D01*
X001180Y013611D02*
X001230Y013611D01*
X001230Y013730D02*
X001180Y013730D01*
X001180Y013848D02*
X001230Y013848D01*
X001230Y013967D02*
X001180Y013967D01*
X001180Y014085D02*
X001230Y014085D01*
X001230Y014204D02*
X001180Y014204D01*
X001180Y014322D02*
X001230Y014322D01*
X001230Y014441D02*
X001180Y014441D01*
X001180Y014559D02*
X001230Y014559D01*
X001230Y014678D02*
X001180Y014678D01*
X001180Y014796D02*
X001230Y014796D01*
X001230Y014915D02*
X001180Y014915D01*
X001180Y015033D02*
X001230Y015033D01*
X001230Y015152D02*
X001180Y015152D01*
X001180Y015270D02*
X001230Y015270D01*
X001230Y015389D02*
X001180Y015389D01*
X001180Y015507D02*
X001230Y015507D01*
X001230Y015626D02*
X001180Y015626D01*
X001180Y015744D02*
X001230Y015744D01*
X001230Y015863D02*
X001180Y015863D01*
X001180Y015981D02*
X001230Y015981D01*
X001230Y016100D02*
X001180Y016100D01*
X001180Y016218D02*
X001230Y016218D01*
X001230Y016337D02*
X001180Y016337D01*
X001180Y016455D02*
X001230Y016455D01*
X001230Y016574D02*
X001180Y016574D01*
X001180Y016692D02*
X001230Y016692D01*
X001230Y016811D02*
X001180Y016811D01*
X001180Y016929D02*
X001230Y016929D01*
X001230Y017048D02*
X001180Y017048D01*
X001180Y017166D02*
X001261Y017166D01*
X001180Y017285D02*
X001371Y017285D01*
X001489Y017403D02*
X001180Y017403D01*
X001180Y017522D02*
X001608Y017522D01*
X001726Y017640D02*
X001180Y017640D01*
X001180Y017759D02*
X001845Y017759D01*
X001969Y017877D02*
X001180Y017877D01*
X001180Y017996D02*
X002879Y017996D01*
X002817Y018114D02*
X001180Y018114D01*
X001180Y018233D02*
X002817Y018233D01*
X002817Y018351D02*
X001180Y018351D01*
X001180Y018470D02*
X001906Y018470D01*
X001786Y018588D02*
X001180Y018588D01*
X001180Y018707D02*
X001737Y018707D01*
X001732Y018825D02*
X001180Y018825D01*
X001180Y018944D02*
X001762Y018944D01*
X001843Y019062D02*
X001180Y019062D01*
X001180Y019181D02*
X001850Y019181D01*
X001856Y019299D02*
X001180Y019299D01*
X001180Y019418D02*
X001928Y019418D01*
X002046Y019536D02*
X001180Y019536D01*
X001180Y019655D02*
X002165Y019655D01*
X002283Y019773D02*
X001180Y019773D01*
X001180Y019892D02*
X002402Y019892D01*
X002520Y020010D02*
X001180Y020010D01*
X001180Y020129D02*
X002639Y020129D01*
X002817Y019181D02*
X002426Y019181D01*
X002377Y019062D02*
X002817Y019062D01*
X002817Y018944D02*
X002457Y018944D01*
X002488Y018825D02*
X002817Y018825D01*
X002817Y018707D02*
X002483Y018707D01*
X002434Y018588D02*
X002817Y018588D01*
X002817Y018470D02*
X002313Y018470D01*
X002095Y017670D02*
X001470Y017045D01*
X001470Y007851D01*
X001908Y007414D01*
X006110Y007414D01*
X006110Y006255D01*
X004903Y004605D02*
X004817Y004605D01*
X004817Y004487D02*
X004903Y004487D01*
X004903Y004368D02*
X004817Y004368D01*
X004337Y002354D02*
X006650Y002354D01*
X006627Y001524D02*
X001180Y001524D01*
X001180Y001406D02*
X006691Y001406D01*
X006759Y001287D02*
X001180Y001287D01*
X001180Y001169D02*
X006870Y001169D01*
X007006Y001050D02*
X001180Y001050D01*
X001985Y008289D02*
X001985Y015545D01*
X002485Y016045D01*
X004210Y016045D01*
X005135Y016970D01*
X005802Y016929D02*
X006117Y016929D01*
X006117Y016811D02*
X005802Y016811D01*
X005802Y016692D02*
X006117Y016692D01*
X006117Y016574D02*
X005802Y016574D01*
X005802Y016455D02*
X006117Y016455D01*
X006188Y016337D02*
X005731Y016337D01*
X005802Y017048D02*
X006117Y017048D01*
X006117Y017166D02*
X005802Y017166D01*
X005802Y017285D02*
X006117Y017285D01*
X006012Y017403D02*
X005802Y017403D01*
X006085Y017670D02*
X002095Y017670D01*
X002524Y015744D02*
X013730Y015744D01*
X013730Y015626D02*
X002405Y015626D01*
X002287Y015507D02*
X013730Y015507D01*
X013730Y015389D02*
X002225Y015389D01*
X002225Y015270D02*
X013730Y015270D01*
X013730Y015152D02*
X002225Y015152D01*
X002225Y015033D02*
X013730Y015033D01*
X013730Y014915D02*
X002225Y014915D01*
X002225Y014796D02*
X003357Y014796D01*
X003201Y014678D02*
X002225Y014678D01*
X002225Y014559D02*
X003113Y014559D01*
X002638Y014441D02*
X002225Y014441D01*
X002225Y014322D02*
X002520Y014322D01*
X002401Y014204D02*
X002225Y014204D01*
X002225Y014085D02*
X002283Y014085D01*
X003145Y011295D02*
X004197Y011295D01*
X004515Y010886D02*
X004705Y010886D01*
X005341Y010886D02*
X009879Y010886D01*
X009780Y011004D02*
X005440Y011004D01*
X005440Y011123D02*
X009780Y011123D01*
X009780Y011241D02*
X005440Y011241D01*
X005440Y011360D02*
X009780Y011360D01*
X009780Y011478D02*
X005440Y011478D01*
X005440Y011597D02*
X006178Y011597D01*
X006117Y011715D02*
X005283Y011715D01*
X005283Y011834D02*
X006117Y011834D01*
X006117Y011952D02*
X005283Y011952D01*
X005283Y012071D02*
X006117Y012071D01*
X006066Y012189D02*
X005283Y012189D01*
X005513Y010412D02*
X009707Y010412D01*
X009427Y010293D02*
X005793Y010293D01*
X005954Y010175D02*
X009266Y010175D01*
X009148Y010056D02*
X006072Y010056D01*
X006147Y009938D02*
X009072Y009938D01*
X009004Y009819D02*
X006216Y009819D01*
X006253Y009701D02*
X008966Y009701D01*
X008935Y009582D02*
X006285Y009582D01*
X006298Y009464D02*
X008922Y009464D01*
X008922Y009345D02*
X006298Y009345D01*
X006290Y009227D02*
X008930Y009227D01*
X009062Y008871D02*
X006158Y008871D01*
X006090Y008753D02*
X009130Y008753D01*
X009247Y008634D02*
X005972Y008634D01*
X005826Y008516D02*
X009394Y008516D01*
X009539Y008397D02*
X007181Y008397D01*
X007039Y008397D02*
X005582Y008397D01*
X007377Y008279D02*
X009343Y008279D01*
X009272Y008160D02*
X007448Y008160D01*
X007468Y008042D02*
X009251Y008042D01*
X009270Y007923D02*
X007450Y007923D01*
X008610Y007414D02*
X008610Y006255D01*
X009850Y007094D02*
X014040Y007094D01*
X014040Y007212D02*
X009850Y007212D01*
X009850Y007331D02*
X014040Y007331D01*
X014040Y007449D02*
X009850Y007449D01*
X009850Y007568D02*
X014040Y007568D01*
X014040Y007686D02*
X009850Y007686D01*
X009883Y007805D02*
X014040Y007805D01*
X014040Y007923D02*
X009950Y007923D01*
X009968Y008042D02*
X014040Y008042D01*
X014040Y008160D02*
X009948Y008160D01*
X010883Y008871D02*
X013070Y008871D01*
X013150Y008871D02*
X014040Y008871D01*
X014040Y008753D02*
X013846Y008753D01*
X013786Y008634D02*
X014040Y008634D01*
X014040Y008516D02*
X013665Y008516D01*
X013861Y008990D02*
X014040Y008990D01*
X014040Y009108D02*
X013820Y009108D01*
X013733Y009227D02*
X014040Y009227D01*
X014040Y009345D02*
X013525Y009345D01*
X013613Y009464D02*
X014040Y009464D01*
X014040Y009582D02*
X013772Y009582D01*
X013847Y009701D02*
X014040Y009701D01*
X014040Y009819D02*
X013965Y009819D01*
X013705Y009899D02*
X013970Y010164D01*
X013970Y018370D01*
X013720Y018620D01*
X011735Y018620D01*
X011129Y017996D02*
X010690Y017996D01*
X010752Y018114D02*
X011067Y018114D01*
X011067Y018233D02*
X010752Y018233D01*
X010752Y018351D02*
X011067Y018351D01*
X011067Y018470D02*
X010752Y018470D01*
X010752Y018588D02*
X011067Y018588D01*
X011067Y018707D02*
X010752Y018707D01*
X010752Y018825D02*
X011067Y018825D01*
X011067Y018944D02*
X010752Y018944D01*
X010752Y019062D02*
X011067Y019062D01*
X011067Y019181D02*
X010752Y019181D01*
X011144Y020366D02*
X012892Y020366D01*
X012720Y020484D02*
X011466Y020484D01*
X011642Y020603D02*
X012641Y020603D01*
X012606Y020721D02*
X011760Y020721D01*
X011844Y020840D02*
X012601Y020840D01*
X012629Y020958D02*
X011913Y020958D01*
X011957Y021077D02*
X012696Y021077D01*
X012833Y021195D02*
X011988Y021195D01*
X012007Y021314D02*
X014040Y021314D01*
X014040Y021432D02*
X013976Y021432D01*
X014040Y021195D02*
X013887Y021195D01*
X014024Y021077D02*
X014040Y021077D01*
X014040Y020484D02*
X014000Y020484D01*
X014040Y020366D02*
X013828Y020366D01*
X013400Y020366D02*
X013320Y020366D01*
X013320Y020484D02*
X013400Y020484D01*
X013400Y020603D02*
X013320Y020603D01*
X013320Y020721D02*
X013400Y020721D01*
X013400Y020840D02*
X013320Y020840D01*
X013320Y020958D02*
X013400Y020958D01*
X013400Y021077D02*
X013320Y021077D01*
X013320Y021195D02*
X013400Y021195D01*
X012744Y021432D02*
X012007Y021432D01*
X012004Y021551D02*
X012641Y021551D01*
X012592Y021669D02*
X011973Y021669D01*
X011941Y021788D02*
X012580Y021788D01*
X012587Y021906D02*
X011879Y021906D01*
X011810Y022025D02*
X012636Y022025D01*
X012730Y022143D02*
X011702Y022143D01*
X011570Y022262D02*
X012933Y022262D01*
X013787Y022262D02*
X014040Y022262D01*
X014040Y022380D02*
X011365Y022380D01*
X009731Y019418D02*
X008450Y019418D01*
X008450Y019536D02*
X009137Y019536D01*
X009019Y019655D02*
X008450Y019655D01*
X008450Y019773D02*
X008900Y019773D01*
X008822Y019852D02*
X008822Y019852D01*
X008822Y019852D01*
X008805Y019892D02*
X008450Y019892D01*
X008450Y020010D02*
X008770Y020010D01*
X008770Y019977D02*
X008770Y019977D01*
X008770Y019977D01*
X008770Y020112D02*
X008770Y020112D01*
X008770Y020129D02*
X008450Y020129D01*
X008450Y020247D02*
X008770Y020247D01*
X008770Y020366D02*
X008450Y020366D01*
X008450Y020484D02*
X008770Y020484D01*
X008770Y020603D02*
X008450Y020603D01*
X008450Y020721D02*
X008770Y020721D01*
X008770Y020840D02*
X008450Y020840D01*
X008450Y020906D02*
X008517Y020973D01*
X008590Y021149D01*
X008590Y021940D01*
X008517Y022117D01*
X008382Y022252D01*
X008205Y022325D01*
X008014Y022325D01*
X007838Y022252D01*
X007703Y022117D01*
X007630Y021940D01*
X007630Y021149D01*
X007703Y020973D01*
X007770Y020906D01*
X007770Y019184D01*
X007767Y019182D01*
X007767Y018058D01*
X007873Y017952D01*
X008997Y017952D01*
X009102Y018058D01*
X009102Y019182D01*
X008997Y019287D01*
X008450Y019287D01*
X008450Y020906D01*
X008502Y020958D02*
X008718Y020958D01*
X008660Y021077D02*
X008560Y021077D01*
X008590Y021195D02*
X008630Y021195D01*
X008630Y021314D02*
X008590Y021314D01*
X008590Y021432D02*
X008630Y021432D01*
X008630Y021551D02*
X008590Y021551D01*
X008590Y021669D02*
X008630Y021669D01*
X008630Y021788D02*
X008590Y021788D01*
X008590Y021906D02*
X008630Y021906D01*
X008665Y022025D02*
X008555Y022025D01*
X008490Y022143D02*
X008730Y022143D01*
X008862Y022262D02*
X008357Y022262D01*
X007862Y022262D02*
X007357Y022262D01*
X007490Y022143D02*
X007730Y022143D01*
X007665Y022025D02*
X007555Y022025D01*
X007590Y021906D02*
X007630Y021906D01*
X007630Y021788D02*
X007590Y021788D01*
X007590Y021669D02*
X007630Y021669D01*
X007630Y021551D02*
X007590Y021551D01*
X007590Y021432D02*
X007630Y021432D01*
X007630Y021314D02*
X007590Y021314D01*
X007590Y021195D02*
X007630Y021195D01*
X007660Y021077D02*
X007560Y021077D01*
X007502Y020958D02*
X007718Y020958D01*
X007770Y020840D02*
X007450Y020840D01*
X007450Y020721D02*
X007770Y020721D01*
X007770Y020603D02*
X007450Y020603D01*
X007450Y020484D02*
X007770Y020484D01*
X007770Y020366D02*
X007450Y020366D01*
X007450Y020247D02*
X007770Y020247D01*
X007770Y020129D02*
X007450Y020129D01*
X007450Y020010D02*
X007770Y020010D01*
X007770Y019892D02*
X007450Y019892D01*
X007450Y019773D02*
X007770Y019773D01*
X007770Y019655D02*
X007450Y019655D01*
X007450Y019536D02*
X007770Y019536D01*
X007770Y019418D02*
X007450Y019418D01*
X007450Y019299D02*
X007770Y019299D01*
X007767Y019181D02*
X007452Y019181D01*
X007452Y019062D02*
X007767Y019062D01*
X007767Y018944D02*
X007452Y018944D01*
X007452Y018825D02*
X007767Y018825D01*
X007767Y018707D02*
X007452Y018707D01*
X007452Y018588D02*
X007767Y018588D01*
X007767Y018470D02*
X007452Y018470D01*
X007452Y018351D02*
X007767Y018351D01*
X007767Y018233D02*
X007452Y018233D01*
X007452Y018114D02*
X007767Y018114D01*
X007829Y017996D02*
X007390Y017996D01*
X007452Y017522D02*
X007767Y017522D01*
X007767Y017532D02*
X007873Y017637D01*
X008997Y017637D01*
X009102Y017532D01*
X009102Y016408D01*
X008997Y016302D01*
X007873Y016302D01*
X007767Y016408D01*
X007767Y017532D01*
X007767Y017403D02*
X007452Y017403D01*
X007452Y017285D02*
X007767Y017285D01*
X007767Y017166D02*
X007452Y017166D01*
X007452Y017048D02*
X007767Y017048D01*
X007767Y016929D02*
X007452Y016929D01*
X007452Y016811D02*
X007767Y016811D01*
X007767Y016692D02*
X007452Y016692D01*
X007452Y016574D02*
X007767Y016574D01*
X007767Y016455D02*
X007452Y016455D01*
X007381Y016337D02*
X007838Y016337D01*
X006785Y016970D02*
X006085Y017670D01*
X006082Y019536D02*
X006770Y019536D01*
X006770Y019655D02*
X006201Y019655D01*
X006319Y019773D02*
X006770Y019773D01*
X006770Y019892D02*
X006414Y019892D01*
X006450Y020010D02*
X006770Y020010D01*
X006770Y020129D02*
X006450Y020129D01*
X006450Y020247D02*
X006770Y020247D01*
X006770Y020366D02*
X006450Y020366D01*
X006450Y020484D02*
X006770Y020484D01*
X006770Y020603D02*
X006450Y020603D01*
X006450Y020721D02*
X006770Y020721D01*
X006770Y020840D02*
X006450Y020840D01*
X006502Y020958D02*
X006718Y020958D01*
X006660Y021077D02*
X006560Y021077D01*
X006590Y021195D02*
X006630Y021195D01*
X006630Y021314D02*
X006590Y021314D01*
X006590Y021432D02*
X006630Y021432D01*
X006630Y021551D02*
X006590Y021551D01*
X006590Y021669D02*
X006630Y021669D01*
X006630Y021788D02*
X006590Y021788D01*
X006590Y021906D02*
X006630Y021906D01*
X006665Y022025D02*
X006555Y022025D01*
X006490Y022143D02*
X006730Y022143D01*
X006862Y022262D02*
X006357Y022262D01*
X008450Y019299D02*
X009745Y019299D01*
X009417Y019181D02*
X009102Y019181D01*
X009102Y019062D02*
X009417Y019062D01*
X009417Y018944D02*
X009102Y018944D01*
X009102Y018825D02*
X009417Y018825D01*
X009417Y018707D02*
X009102Y018707D01*
X009102Y018588D02*
X009417Y018588D01*
X009417Y018470D02*
X009102Y018470D01*
X009102Y018351D02*
X009417Y018351D01*
X009417Y018233D02*
X009102Y018233D01*
X009102Y018114D02*
X009417Y018114D01*
X009479Y017996D02*
X009040Y017996D01*
X009102Y017522D02*
X009450Y017522D01*
X009448Y017519D02*
X009437Y017478D01*
X009437Y017030D01*
X010025Y017030D01*
X010025Y017617D01*
X009576Y017617D01*
X009536Y017606D01*
X009499Y017585D01*
X009469Y017556D01*
X009448Y017519D01*
X009437Y017403D02*
X009102Y017403D01*
X009102Y017285D02*
X009437Y017285D01*
X009437Y017166D02*
X009102Y017166D01*
X009102Y017048D02*
X009437Y017048D01*
X009437Y016910D02*
X009437Y016461D01*
X009448Y016421D01*
X009469Y016384D01*
X009499Y016354D01*
X009536Y016333D01*
X009576Y016322D01*
X010025Y016322D01*
X010025Y016910D01*
X009437Y016910D01*
X009437Y016811D02*
X009102Y016811D01*
X009102Y016929D02*
X010025Y016929D01*
X010025Y016910D02*
X010025Y017030D01*
X010145Y017030D01*
X010145Y017617D01*
X010593Y017617D01*
X010634Y017606D01*
X010671Y017585D01*
X010700Y017556D01*
X010721Y017519D01*
X010732Y017478D01*
X010732Y017030D01*
X010145Y017030D01*
X010145Y016910D01*
X010732Y016910D01*
X010732Y016461D01*
X010721Y016421D01*
X010700Y016384D01*
X010671Y016354D01*
X010634Y016333D01*
X010593Y016322D01*
X010145Y016322D01*
X010145Y016910D01*
X010025Y016910D01*
X010025Y016811D02*
X010145Y016811D01*
X010145Y016929D02*
X011067Y016929D01*
X011067Y016811D02*
X010732Y016811D01*
X010732Y016692D02*
X011068Y016692D01*
X011187Y016574D02*
X010732Y016574D01*
X010731Y016455D02*
X011305Y016455D01*
X011424Y016337D02*
X010640Y016337D01*
X010145Y016337D02*
X010025Y016337D01*
X010025Y016455D02*
X010145Y016455D01*
X010145Y016574D02*
X010025Y016574D01*
X010025Y016692D02*
X010145Y016692D01*
X010145Y017048D02*
X010025Y017048D01*
X010025Y017166D02*
X010145Y017166D01*
X010145Y017285D02*
X010025Y017285D01*
X010025Y017403D02*
X010145Y017403D01*
X010145Y017522D02*
X010025Y017522D01*
X009437Y016692D02*
X009102Y016692D01*
X009102Y016574D02*
X009437Y016574D01*
X009439Y016455D02*
X009102Y016455D01*
X009031Y016337D02*
X009529Y016337D01*
X010732Y017048D02*
X011067Y017048D01*
X011067Y017166D02*
X010732Y017166D01*
X010732Y017285D02*
X011106Y017285D01*
X011224Y017403D02*
X010732Y017403D01*
X010720Y017522D02*
X011343Y017522D01*
X012164Y016455D02*
X013730Y016455D01*
X013730Y016337D02*
X012046Y016337D01*
X012283Y016574D02*
X013730Y016574D01*
X013730Y016692D02*
X012401Y016692D01*
X012402Y016811D02*
X013730Y016811D01*
X013730Y016929D02*
X012402Y016929D01*
X012402Y017048D02*
X013730Y017048D01*
X013730Y017166D02*
X012402Y017166D01*
X012364Y017285D02*
X013730Y017285D01*
X013730Y017403D02*
X012245Y017403D01*
X013730Y016218D02*
X004723Y016218D01*
X004604Y016100D02*
X013730Y016100D01*
X013730Y015981D02*
X004486Y015981D01*
X004413Y015909D02*
X004413Y015909D01*
X004367Y015863D02*
X013730Y015863D01*
X013730Y014796D02*
X011863Y014796D01*
X012019Y014678D02*
X013730Y014678D01*
X013730Y014559D02*
X012106Y014559D01*
X012074Y013967D02*
X012320Y013967D01*
X012439Y013848D02*
X011955Y013848D01*
X011941Y013256D02*
X012485Y013256D01*
X012485Y013374D02*
X010280Y013374D01*
X010161Y013493D02*
X012485Y013493D01*
X012485Y013611D02*
X010043Y013611D01*
X009924Y013730D02*
X012485Y013730D01*
X012700Y014322D02*
X013730Y014322D01*
X013730Y014204D02*
X012819Y014204D01*
X012937Y014085D02*
X013730Y014085D01*
X013730Y013967D02*
X013003Y013967D01*
X013005Y013848D02*
X013730Y013848D01*
X013730Y013730D02*
X013005Y013730D01*
X013005Y013611D02*
X013730Y013611D01*
X013730Y013493D02*
X013005Y013493D01*
X013005Y013374D02*
X013730Y013374D01*
X013730Y013256D02*
X013005Y013256D01*
X013005Y013137D02*
X013730Y013137D01*
X013730Y013019D02*
X013005Y013019D01*
X013005Y012900D02*
X013730Y012900D01*
X013730Y012782D02*
X013005Y012782D01*
X013005Y012663D02*
X013730Y012663D01*
X013730Y012545D02*
X013005Y012545D01*
X013005Y012426D02*
X013730Y012426D01*
X013730Y012308D02*
X013005Y012308D01*
X013005Y012189D02*
X013730Y012189D01*
X013730Y012071D02*
X013005Y012071D01*
X013005Y011952D02*
X013730Y011952D01*
X013730Y011834D02*
X013005Y011834D01*
X013005Y011715D02*
X013730Y011715D01*
X013730Y011597D02*
X013110Y011597D01*
X013121Y011478D02*
X013730Y011478D01*
X013730Y011360D02*
X013121Y011360D01*
X013121Y011241D02*
X013730Y011241D01*
X013730Y011123D02*
X013121Y011123D01*
X013121Y011004D02*
X013730Y011004D01*
X013730Y010886D02*
X011341Y010886D01*
X011440Y011004D02*
X011698Y011004D01*
X011709Y011597D02*
X011440Y011597D01*
X011898Y012308D02*
X012485Y012308D01*
X012485Y012426D02*
X012033Y012426D01*
X012112Y012545D02*
X012485Y012545D01*
X012485Y012663D02*
X012162Y012663D01*
X012170Y012782D02*
X012485Y012782D01*
X012485Y012900D02*
X012170Y012900D01*
X012123Y013019D02*
X012485Y013019D01*
X012485Y013137D02*
X012059Y013137D01*
X012485Y012189D02*
X010457Y012189D01*
X010457Y012071D02*
X012485Y012071D01*
X012485Y011952D02*
X010457Y011952D01*
X010457Y011834D02*
X012485Y011834D01*
X012485Y011715D02*
X010457Y011715D01*
X009937Y011715D02*
X009102Y011715D01*
X009102Y011658D02*
X008997Y011552D01*
X007873Y011552D01*
X007767Y011658D01*
X007767Y012782D01*
X007873Y012887D01*
X008997Y012887D01*
X009102Y012782D01*
X009102Y011658D01*
X009041Y011597D02*
X009780Y011597D01*
X009937Y011834D02*
X009102Y011834D01*
X009102Y011952D02*
X009937Y011952D01*
X009937Y012071D02*
X009102Y012071D01*
X009102Y012189D02*
X009937Y012189D01*
X009901Y012308D02*
X009102Y012308D01*
X009102Y012426D02*
X009729Y012426D01*
X009610Y012545D02*
X009102Y012545D01*
X009102Y012663D02*
X009492Y012663D01*
X009373Y012782D02*
X009102Y012782D01*
X009255Y012900D02*
X006854Y012900D01*
X006735Y013019D02*
X009136Y013019D01*
X009018Y013137D02*
X006617Y013137D01*
X007115Y013256D02*
X007819Y013256D01*
X007767Y013374D02*
X007233Y013374D01*
X007352Y013493D02*
X007767Y013493D01*
X007767Y013611D02*
X007452Y013611D01*
X007452Y013730D02*
X007767Y013730D01*
X007767Y013848D02*
X007452Y013848D01*
X007452Y013967D02*
X007767Y013967D01*
X007767Y014085D02*
X007452Y014085D01*
X007395Y014204D02*
X007767Y014204D01*
X007767Y014322D02*
X007276Y014322D01*
X007158Y014441D02*
X007776Y014441D01*
X006845Y014559D02*
X011113Y014559D01*
X011064Y014441D02*
X009093Y014441D01*
X009327Y014322D02*
X011050Y014322D01*
X011050Y014204D02*
X009450Y014204D01*
X009569Y014085D02*
X011091Y014085D01*
X011146Y013967D02*
X009687Y013967D01*
X009806Y013848D02*
X011264Y013848D01*
X011201Y014678D02*
X006726Y014678D01*
X006534Y014796D02*
X011357Y014796D01*
X012582Y014441D02*
X013730Y014441D01*
X013730Y010767D02*
X002225Y010767D01*
X002225Y010649D02*
X013730Y010649D01*
X013730Y010293D02*
X013695Y010293D01*
X013705Y009899D02*
X013110Y009899D01*
X013070Y009345D02*
X013150Y009345D01*
X013150Y009227D02*
X013070Y009227D01*
X013070Y009108D02*
X013150Y009108D01*
X013150Y008990D02*
X013070Y008990D01*
X013070Y008753D02*
X013150Y008753D01*
X013150Y008634D02*
X013070Y008634D01*
X013070Y008516D02*
X013150Y008516D01*
X013508Y006539D02*
X013508Y006044D01*
X013507Y006022D01*
X013502Y006001D01*
X013495Y005980D01*
X013486Y005961D01*
X013473Y005942D01*
X013459Y005926D01*
X013164Y005553D02*
X013086Y005553D01*
X012790Y005926D02*
X012790Y005039D01*
X012533Y005316D02*
X010732Y005316D01*
X010732Y005346D02*
X010403Y005346D01*
X010403Y005433D01*
X010317Y005433D01*
X010317Y005346D01*
X009987Y005346D01*
X010317Y005435D02*
X010403Y005435D01*
X010403Y005433D02*
X010403Y005756D01*
X010594Y005756D01*
X010634Y005745D01*
X010671Y005724D01*
X010701Y005694D01*
X010722Y005658D01*
X010732Y005617D01*
X010732Y005433D01*
X010403Y005433D01*
X010403Y005553D02*
X010317Y005553D01*
X010317Y005672D02*
X010403Y005672D01*
X010713Y005672D02*
X012413Y005672D01*
X012413Y005635D02*
X012519Y005529D01*
X012550Y005529D01*
X012550Y005334D01*
X012495Y005279D01*
X011251Y005279D01*
X011163Y005242D01*
X011095Y005175D01*
X010973Y005053D01*
X010883Y005053D01*
X010751Y004998D01*
X010744Y004990D01*
X010675Y005059D01*
X010701Y005084D01*
X010722Y005121D01*
X010732Y005162D01*
X010732Y005346D01*
X010732Y005435D02*
X012550Y005435D01*
X012495Y005553D02*
X010732Y005553D01*
X010732Y005198D02*
X011118Y005198D01*
X011000Y005079D02*
X010695Y005079D01*
X011254Y004487D02*
X014040Y004487D01*
X014040Y004605D02*
X011305Y004605D01*
X011323Y004724D02*
X012571Y004724D01*
X012413Y005635D02*
X012413Y006146D01*
X012413Y006027D02*
X009920Y006027D01*
X009920Y005909D02*
X012413Y005909D01*
X012413Y005790D02*
X009920Y005790D01*
X011547Y003657D02*
X012561Y003657D01*
X012550Y002354D02*
X011602Y002354D01*
X012550Y002235D02*
X008612Y002235D01*
X008643Y002117D02*
X012578Y002117D01*
X012627Y001998D02*
X008660Y001998D01*
X008660Y001880D02*
X012733Y001880D01*
X012935Y001761D02*
X008656Y001761D01*
X008625Y001643D02*
X014040Y001643D01*
X014040Y001761D02*
X013285Y001761D01*
X013487Y001880D02*
X014040Y001880D01*
X014040Y001998D02*
X013593Y001998D01*
X013642Y002117D02*
X014040Y002117D01*
X014040Y002235D02*
X013670Y002235D01*
X013670Y002354D02*
X014040Y002354D01*
X014040Y002472D02*
X013643Y002472D01*
X013593Y002591D02*
X014040Y002591D01*
X014040Y002709D02*
X013487Y002709D01*
X014040Y001524D02*
X008593Y001524D01*
X008529Y001406D02*
X014040Y001406D01*
X014040Y001287D02*
X008461Y001287D01*
X008350Y001169D02*
X014040Y001169D01*
X014040Y001050D02*
X008213Y001050D01*
X003879Y010886D02*
X002225Y010886D01*
X003521Y011004D02*
X003780Y011004D01*
X007391Y011597D02*
X007828Y011597D01*
X007767Y011715D02*
X007452Y011715D01*
X007452Y011834D02*
X007767Y011834D01*
X007767Y011952D02*
X007452Y011952D01*
X007452Y012071D02*
X007767Y012071D01*
X007767Y012189D02*
X007452Y012189D01*
X007452Y012308D02*
X007767Y012308D01*
X007767Y012426D02*
X007452Y012426D01*
X007452Y012545D02*
X007767Y012545D01*
X007767Y012663D02*
X007452Y012663D01*
X007452Y012782D02*
X007767Y012782D01*
X013851Y018825D02*
X014040Y018825D01*
X014040Y018707D02*
X013972Y018707D01*
X013990Y022143D02*
X014040Y022143D01*
X014040Y022499D02*
X001180Y022499D01*
D21*
X007110Y008039D03*
X006610Y007045D03*
X006110Y007414D03*
X008610Y007414D03*
X009110Y007045D03*
X009610Y008039D03*
X010954Y004694D03*
D22*
X010197Y011295D02*
X010197Y012708D01*
X010110Y012795D01*
X011610Y014295D02*
X012360Y014295D01*
X012745Y013910D01*
X012745Y011295D01*
X005023Y011295D02*
X005023Y012771D01*
X005047Y012795D01*
X003610Y014295D02*
X002860Y014295D01*
X002475Y013910D01*
X002475Y011295D01*
X002110Y018795D02*
X002110Y019232D01*
X002922Y020045D01*
X002922Y021482D01*
X002610Y021795D01*
X001860Y021795D01*
D23*
X005135Y019545D02*
X005135Y018620D01*
X005135Y019545D02*
X005385Y019795D01*
X005860Y019795D01*
X006110Y020045D01*
X006110Y021545D01*
X007110Y021545D02*
X007110Y018945D01*
X006785Y018620D01*
X008110Y018945D02*
X008435Y018620D01*
X008110Y018945D02*
X008110Y021545D01*
X009110Y021545D02*
X009110Y020045D01*
X009360Y019795D01*
X009835Y019795D01*
X010085Y019545D01*
X010085Y018620D01*
D24*
X009035Y013870D02*
X008435Y013870D01*
X009035Y013870D02*
X010110Y012795D01*
X011610Y012795D01*
X006785Y012220D02*
X006210Y012795D01*
X005047Y012795D01*
X003610Y012795D01*
X003610Y014295D02*
X006360Y014295D01*
X006785Y013870D01*
M02*
