G75*
G70*
%OFA0B0*%
%FSLAX24Y24*%
%IPPOS*%
%LPD*%
%AMOC8*
5,1,8,0,0,1.08239X$1,22.5*
%
%ADD10C,0.0000*%
%ADD11C,0.0030*%
%ADD12C,0.0010*%
D10*
X000720Y000734D02*
X000720Y022781D01*
X000722Y022807D01*
X000727Y022832D01*
X000735Y022856D01*
X000746Y022880D01*
X000761Y022901D01*
X000778Y022920D01*
X000797Y022937D01*
X000818Y022952D01*
X000842Y022963D01*
X000866Y022971D01*
X000891Y022976D01*
X000917Y022978D01*
X014303Y022978D01*
X014329Y022976D01*
X014354Y022971D01*
X014378Y022963D01*
X014402Y022952D01*
X014423Y022937D01*
X014442Y022920D01*
X014459Y022901D01*
X014474Y022879D01*
X014485Y022856D01*
X014493Y022832D01*
X014498Y022807D01*
X014500Y022781D01*
X014500Y000734D01*
X014498Y000708D01*
X014493Y000683D01*
X014485Y000659D01*
X014474Y000635D01*
X014459Y000614D01*
X014442Y000595D01*
X014423Y000578D01*
X014401Y000563D01*
X014378Y000552D01*
X014354Y000544D01*
X014329Y000539D01*
X014303Y000537D01*
X000917Y000537D01*
X000891Y000539D01*
X000866Y000544D01*
X000842Y000552D01*
X000818Y000563D01*
X000797Y000578D01*
X000778Y000595D01*
X000761Y000614D01*
X000746Y000636D01*
X000735Y000659D01*
X000727Y000683D01*
X000722Y000708D01*
X000720Y000734D01*
X004657Y009395D02*
X004659Y009443D01*
X004665Y009491D01*
X004675Y009538D01*
X004688Y009584D01*
X004706Y009629D01*
X004726Y009673D01*
X004751Y009715D01*
X004779Y009754D01*
X004809Y009791D01*
X004843Y009825D01*
X004880Y009857D01*
X004918Y009886D01*
X004959Y009911D01*
X005002Y009933D01*
X005047Y009951D01*
X005093Y009965D01*
X005140Y009976D01*
X005188Y009983D01*
X005236Y009986D01*
X005284Y009985D01*
X005332Y009980D01*
X005380Y009971D01*
X005426Y009959D01*
X005471Y009942D01*
X005515Y009922D01*
X005557Y009899D01*
X005597Y009872D01*
X005635Y009842D01*
X005670Y009809D01*
X005702Y009773D01*
X005732Y009735D01*
X005758Y009694D01*
X005780Y009651D01*
X005800Y009607D01*
X005815Y009562D01*
X005827Y009515D01*
X005835Y009467D01*
X005839Y009419D01*
X005839Y009371D01*
X005835Y009323D01*
X005827Y009275D01*
X005815Y009228D01*
X005800Y009183D01*
X005780Y009139D01*
X005758Y009096D01*
X005732Y009055D01*
X005702Y009017D01*
X005670Y008981D01*
X005635Y008948D01*
X005597Y008918D01*
X005557Y008891D01*
X005515Y008868D01*
X005471Y008848D01*
X005426Y008831D01*
X005380Y008819D01*
X005332Y008810D01*
X005284Y008805D01*
X005236Y008804D01*
X005188Y008807D01*
X005140Y008814D01*
X005093Y008825D01*
X005047Y008839D01*
X005002Y008857D01*
X004959Y008879D01*
X004918Y008904D01*
X004880Y008933D01*
X004843Y008965D01*
X004809Y008999D01*
X004779Y009036D01*
X004751Y009075D01*
X004726Y009117D01*
X004706Y009161D01*
X004688Y009206D01*
X004675Y009252D01*
X004665Y009299D01*
X004659Y009347D01*
X004657Y009395D01*
X007019Y001915D02*
X007021Y001963D01*
X007027Y002011D01*
X007037Y002058D01*
X007050Y002104D01*
X007068Y002149D01*
X007088Y002193D01*
X007113Y002235D01*
X007141Y002274D01*
X007171Y002311D01*
X007205Y002345D01*
X007242Y002377D01*
X007280Y002406D01*
X007321Y002431D01*
X007364Y002453D01*
X007409Y002471D01*
X007455Y002485D01*
X007502Y002496D01*
X007550Y002503D01*
X007598Y002506D01*
X007646Y002505D01*
X007694Y002500D01*
X007742Y002491D01*
X007788Y002479D01*
X007833Y002462D01*
X007877Y002442D01*
X007919Y002419D01*
X007959Y002392D01*
X007997Y002362D01*
X008032Y002329D01*
X008064Y002293D01*
X008094Y002255D01*
X008120Y002214D01*
X008142Y002171D01*
X008162Y002127D01*
X008177Y002082D01*
X008189Y002035D01*
X008197Y001987D01*
X008201Y001939D01*
X008201Y001891D01*
X008197Y001843D01*
X008189Y001795D01*
X008177Y001748D01*
X008162Y001703D01*
X008142Y001659D01*
X008120Y001616D01*
X008094Y001575D01*
X008064Y001537D01*
X008032Y001501D01*
X007997Y001468D01*
X007959Y001438D01*
X007919Y001411D01*
X007877Y001388D01*
X007833Y001368D01*
X007788Y001351D01*
X007742Y001339D01*
X007694Y001330D01*
X007646Y001325D01*
X007598Y001324D01*
X007550Y001327D01*
X007502Y001334D01*
X007455Y001345D01*
X007409Y001359D01*
X007364Y001377D01*
X007321Y001399D01*
X007280Y001424D01*
X007242Y001453D01*
X007205Y001485D01*
X007171Y001519D01*
X007141Y001556D01*
X007113Y001595D01*
X007088Y001637D01*
X007068Y001681D01*
X007050Y001726D01*
X007037Y001772D01*
X007027Y001819D01*
X007021Y001867D01*
X007019Y001915D01*
X009381Y009395D02*
X009383Y009443D01*
X009389Y009491D01*
X009399Y009538D01*
X009412Y009584D01*
X009430Y009629D01*
X009450Y009673D01*
X009475Y009715D01*
X009503Y009754D01*
X009533Y009791D01*
X009567Y009825D01*
X009604Y009857D01*
X009642Y009886D01*
X009683Y009911D01*
X009726Y009933D01*
X009771Y009951D01*
X009817Y009965D01*
X009864Y009976D01*
X009912Y009983D01*
X009960Y009986D01*
X010008Y009985D01*
X010056Y009980D01*
X010104Y009971D01*
X010150Y009959D01*
X010195Y009942D01*
X010239Y009922D01*
X010281Y009899D01*
X010321Y009872D01*
X010359Y009842D01*
X010394Y009809D01*
X010426Y009773D01*
X010456Y009735D01*
X010482Y009694D01*
X010504Y009651D01*
X010524Y009607D01*
X010539Y009562D01*
X010551Y009515D01*
X010559Y009467D01*
X010563Y009419D01*
X010563Y009371D01*
X010559Y009323D01*
X010551Y009275D01*
X010539Y009228D01*
X010524Y009183D01*
X010504Y009139D01*
X010482Y009096D01*
X010456Y009055D01*
X010426Y009017D01*
X010394Y008981D01*
X010359Y008948D01*
X010321Y008918D01*
X010281Y008891D01*
X010239Y008868D01*
X010195Y008848D01*
X010150Y008831D01*
X010104Y008819D01*
X010056Y008810D01*
X010008Y008805D01*
X009960Y008804D01*
X009912Y008807D01*
X009864Y008814D01*
X009817Y008825D01*
X009771Y008839D01*
X009726Y008857D01*
X009683Y008879D01*
X009642Y008904D01*
X009604Y008933D01*
X009567Y008965D01*
X009533Y008999D01*
X009503Y009036D01*
X009475Y009075D01*
X009450Y009117D01*
X009430Y009161D01*
X009412Y009206D01*
X009399Y009252D01*
X009389Y009299D01*
X009383Y009347D01*
X009381Y009395D01*
X010365Y021403D02*
X010367Y021451D01*
X010373Y021499D01*
X010383Y021546D01*
X010396Y021592D01*
X010414Y021637D01*
X010434Y021681D01*
X010459Y021723D01*
X010487Y021762D01*
X010517Y021799D01*
X010551Y021833D01*
X010588Y021865D01*
X010626Y021894D01*
X010667Y021919D01*
X010710Y021941D01*
X010755Y021959D01*
X010801Y021973D01*
X010848Y021984D01*
X010896Y021991D01*
X010944Y021994D01*
X010992Y021993D01*
X011040Y021988D01*
X011088Y021979D01*
X011134Y021967D01*
X011179Y021950D01*
X011223Y021930D01*
X011265Y021907D01*
X011305Y021880D01*
X011343Y021850D01*
X011378Y021817D01*
X011410Y021781D01*
X011440Y021743D01*
X011466Y021702D01*
X011488Y021659D01*
X011508Y021615D01*
X011523Y021570D01*
X011535Y021523D01*
X011543Y021475D01*
X011547Y021427D01*
X011547Y021379D01*
X011543Y021331D01*
X011535Y021283D01*
X011523Y021236D01*
X011508Y021191D01*
X011488Y021147D01*
X011466Y021104D01*
X011440Y021063D01*
X011410Y021025D01*
X011378Y020989D01*
X011343Y020956D01*
X011305Y020926D01*
X011265Y020899D01*
X011223Y020876D01*
X011179Y020856D01*
X011134Y020839D01*
X011088Y020827D01*
X011040Y020818D01*
X010992Y020813D01*
X010944Y020812D01*
X010896Y020815D01*
X010848Y020822D01*
X010801Y020833D01*
X010755Y020847D01*
X010710Y020865D01*
X010667Y020887D01*
X010626Y020912D01*
X010588Y020941D01*
X010551Y020973D01*
X010517Y021007D01*
X010487Y021044D01*
X010459Y021083D01*
X010434Y021125D01*
X010414Y021169D01*
X010396Y021214D01*
X010383Y021260D01*
X010373Y021307D01*
X010367Y021355D01*
X010365Y021403D01*
X003672Y021403D02*
X003674Y021451D01*
X003680Y021499D01*
X003690Y021546D01*
X003703Y021592D01*
X003721Y021637D01*
X003741Y021681D01*
X003766Y021723D01*
X003794Y021762D01*
X003824Y021799D01*
X003858Y021833D01*
X003895Y021865D01*
X003933Y021894D01*
X003974Y021919D01*
X004017Y021941D01*
X004062Y021959D01*
X004108Y021973D01*
X004155Y021984D01*
X004203Y021991D01*
X004251Y021994D01*
X004299Y021993D01*
X004347Y021988D01*
X004395Y021979D01*
X004441Y021967D01*
X004486Y021950D01*
X004530Y021930D01*
X004572Y021907D01*
X004612Y021880D01*
X004650Y021850D01*
X004685Y021817D01*
X004717Y021781D01*
X004747Y021743D01*
X004773Y021702D01*
X004795Y021659D01*
X004815Y021615D01*
X004830Y021570D01*
X004842Y021523D01*
X004850Y021475D01*
X004854Y021427D01*
X004854Y021379D01*
X004850Y021331D01*
X004842Y021283D01*
X004830Y021236D01*
X004815Y021191D01*
X004795Y021147D01*
X004773Y021104D01*
X004747Y021063D01*
X004717Y021025D01*
X004685Y020989D01*
X004650Y020956D01*
X004612Y020926D01*
X004572Y020899D01*
X004530Y020876D01*
X004486Y020856D01*
X004441Y020839D01*
X004395Y020827D01*
X004347Y020818D01*
X004299Y020813D01*
X004251Y020812D01*
X004203Y020815D01*
X004155Y020822D01*
X004108Y020833D01*
X004062Y020847D01*
X004017Y020865D01*
X003974Y020887D01*
X003933Y020912D01*
X003895Y020941D01*
X003858Y020973D01*
X003824Y021007D01*
X003794Y021044D01*
X003766Y021083D01*
X003741Y021125D01*
X003721Y021169D01*
X003703Y021214D01*
X003690Y021260D01*
X003680Y021307D01*
X003674Y021355D01*
X003672Y021403D01*
D11*
X003616Y019565D02*
X003520Y019565D01*
X003471Y019517D01*
X003520Y019420D02*
X003471Y019372D01*
X003471Y019323D01*
X003520Y019275D01*
X003616Y019275D01*
X003665Y019323D01*
X003766Y019323D02*
X003814Y019275D01*
X003911Y019275D01*
X003959Y019323D01*
X003959Y019517D01*
X003911Y019565D01*
X003814Y019565D01*
X003766Y019517D01*
X003665Y019517D02*
X003616Y019565D01*
X003665Y019517D02*
X003665Y019468D01*
X003616Y019420D01*
X003520Y019420D01*
X003370Y019468D02*
X003273Y019565D01*
X003273Y019275D01*
X003177Y019275D02*
X003370Y019275D01*
X004887Y019420D02*
X005080Y019420D01*
X005181Y019468D02*
X005230Y019420D01*
X005375Y019420D01*
X005375Y019565D02*
X005230Y019565D01*
X005181Y019517D01*
X005181Y019468D01*
X005230Y019420D02*
X005181Y019372D01*
X005181Y019323D01*
X005230Y019275D01*
X005375Y019275D01*
X005375Y019565D01*
X006574Y019420D02*
X006768Y019420D01*
X006869Y019468D02*
X006917Y019420D01*
X007062Y019420D01*
X006917Y019420D02*
X006869Y019372D01*
X006869Y019323D01*
X006917Y019275D01*
X007062Y019275D01*
X007062Y019565D01*
X006917Y019565D01*
X006869Y019517D01*
X006869Y019468D01*
X006671Y019517D02*
X006671Y019323D01*
X008199Y019420D02*
X008393Y019420D01*
X008494Y019420D02*
X008687Y019420D01*
X008687Y019468D02*
X008590Y019565D01*
X008494Y019468D01*
X008494Y019275D01*
X008687Y019275D02*
X008687Y019468D01*
X009824Y019420D02*
X010018Y019420D01*
X010119Y019420D02*
X010312Y019420D01*
X010312Y019468D02*
X010215Y019565D01*
X010119Y019468D01*
X010119Y019275D01*
X010312Y019275D02*
X010312Y019468D01*
X009921Y019517D02*
X009921Y019323D01*
X011217Y019372D02*
X011217Y019565D01*
X011410Y019565D02*
X011410Y019372D01*
X011314Y019275D01*
X011217Y019372D01*
X011512Y019468D02*
X011512Y019517D01*
X011560Y019565D01*
X011657Y019565D01*
X011705Y019517D01*
X011512Y019468D02*
X011705Y019275D01*
X011512Y019275D01*
X011806Y019275D02*
X012000Y019275D01*
X011903Y019275D02*
X011903Y019565D01*
X012000Y019468D01*
X012101Y019420D02*
X012294Y019420D01*
X012198Y019517D02*
X012198Y019323D01*
X011852Y016190D02*
X011659Y016190D01*
X011558Y016190D02*
X011558Y015997D01*
X011461Y015900D01*
X011364Y015997D01*
X011364Y016190D01*
X011659Y016045D02*
X011659Y015948D01*
X011707Y015900D01*
X011804Y015900D01*
X011852Y015948D01*
X011852Y016045D02*
X011756Y016093D01*
X011707Y016093D01*
X011659Y016045D01*
X011852Y016045D02*
X011852Y016190D01*
X011953Y016045D02*
X012147Y016045D01*
X012050Y016142D02*
X012050Y015948D01*
X010459Y015948D02*
X010411Y015900D01*
X010314Y015900D01*
X010266Y015948D01*
X010266Y016045D01*
X010363Y016045D01*
X010459Y016142D02*
X010459Y015948D01*
X010459Y016142D02*
X010411Y016190D01*
X010314Y016190D01*
X010266Y016142D01*
X010165Y016190D02*
X010165Y015900D01*
X009971Y015900D02*
X009971Y016190D01*
X009870Y016190D02*
X009870Y015900D01*
X009725Y015900D01*
X009677Y015948D01*
X009677Y016142D01*
X009725Y016190D01*
X009870Y016190D01*
X010165Y016190D02*
X009971Y015900D01*
X008933Y015900D02*
X008933Y016190D01*
X008836Y016093D01*
X008739Y016190D01*
X008739Y015900D01*
X008638Y015948D02*
X008638Y016142D01*
X008590Y016190D01*
X008493Y016190D01*
X008445Y016142D01*
X008445Y015948D01*
X008493Y015900D01*
X008590Y015900D01*
X008638Y015948D01*
X008343Y015948D02*
X008295Y015900D01*
X008198Y015900D01*
X008150Y015948D01*
X008150Y015997D01*
X008198Y016045D01*
X008295Y016045D01*
X008343Y016093D01*
X008343Y016142D01*
X008295Y016190D01*
X008198Y016190D01*
X008150Y016142D01*
X008049Y016190D02*
X007952Y016190D01*
X008000Y016190D02*
X008000Y015900D01*
X007952Y015900D02*
X008049Y015900D01*
X007308Y015900D02*
X007308Y016190D01*
X007211Y016093D01*
X007114Y016190D01*
X007114Y015900D01*
X007013Y015900D02*
X006916Y015900D01*
X006965Y015900D02*
X006965Y016190D01*
X007013Y016190D02*
X006916Y016190D01*
X006817Y016142D02*
X006817Y016093D01*
X006768Y016045D01*
X006671Y016045D01*
X006623Y015997D01*
X006623Y015948D01*
X006671Y015900D01*
X006768Y015900D01*
X006817Y015948D01*
X006817Y016142D02*
X006768Y016190D01*
X006671Y016190D01*
X006623Y016142D01*
X006522Y016142D02*
X006522Y015948D01*
X006474Y015900D01*
X006377Y015900D01*
X006328Y015948D01*
X006328Y016142D01*
X006377Y016190D01*
X006474Y016190D01*
X006522Y016142D01*
X005522Y016142D02*
X005522Y016093D01*
X005474Y016045D01*
X005377Y016045D01*
X005328Y015997D01*
X005328Y015948D01*
X005377Y015900D01*
X005474Y015900D01*
X005522Y015948D01*
X005522Y016142D02*
X005474Y016190D01*
X005377Y016190D01*
X005328Y016142D01*
X005227Y016142D02*
X005227Y015948D01*
X005179Y015900D01*
X005082Y015900D01*
X005034Y015948D01*
X004933Y015900D02*
X004933Y016190D01*
X005034Y016142D02*
X005082Y016190D01*
X005179Y016190D01*
X005227Y016142D01*
X004933Y015997D02*
X004739Y016190D01*
X004884Y016045D02*
X004739Y015900D01*
X003959Y015948D02*
X003911Y015900D01*
X003814Y015900D01*
X003766Y015948D01*
X003665Y015948D02*
X003616Y015900D01*
X003520Y015900D01*
X003471Y015948D01*
X003471Y015997D01*
X003520Y016045D01*
X003616Y016045D01*
X003665Y016093D01*
X003665Y016142D01*
X003616Y016190D01*
X003520Y016190D01*
X003471Y016142D01*
X003370Y016142D02*
X003322Y016190D01*
X003225Y016190D01*
X003177Y016142D01*
X003177Y016093D01*
X003370Y015900D01*
X003177Y015900D01*
X003766Y016142D02*
X003814Y016190D01*
X003911Y016190D01*
X003959Y016142D01*
X003959Y015948D01*
X006145Y022185D02*
X006330Y022185D01*
X006330Y022555D01*
X006145Y022555D01*
X006083Y022493D01*
X006083Y022432D01*
X006145Y022370D01*
X006330Y022370D01*
X006145Y022370D02*
X006083Y022308D01*
X006083Y022247D01*
X006145Y022185D01*
X005962Y022370D02*
X005715Y022370D01*
X006715Y022370D02*
X006962Y022370D01*
X007083Y022432D02*
X007145Y022370D01*
X007330Y022370D01*
X007330Y022555D02*
X007145Y022555D01*
X007083Y022493D01*
X007083Y022432D01*
X007145Y022370D02*
X007083Y022308D01*
X007083Y022247D01*
X007145Y022185D01*
X007330Y022185D01*
X007330Y022555D01*
X007715Y022370D02*
X007962Y022370D01*
X008083Y022370D02*
X008330Y022370D01*
X008330Y022432D02*
X008207Y022555D01*
X008083Y022432D01*
X008083Y022185D01*
X008330Y022185D02*
X008330Y022432D01*
X008715Y022370D02*
X008962Y022370D01*
X009083Y022370D02*
X009330Y022370D01*
X009330Y022432D02*
X009207Y022555D01*
X009083Y022432D01*
X009083Y022185D01*
X008838Y022247D02*
X008838Y022493D01*
X009330Y022432D02*
X009330Y022185D01*
X006838Y022247D02*
X006838Y022493D01*
D12*
X001705Y015387D02*
X001655Y015387D01*
X001630Y015362D01*
X001630Y015262D01*
X001655Y015237D01*
X001705Y015237D01*
X001730Y015262D01*
X001730Y015362D01*
X001705Y015387D01*
X001680Y015287D02*
X001630Y015237D01*
X001583Y015237D02*
X001482Y015337D01*
X001482Y015362D01*
X001508Y015387D01*
X001558Y015387D01*
X001583Y015362D01*
X001583Y015237D02*
X001482Y015237D01*
X001480Y016987D02*
X001480Y017137D01*
X001405Y017137D01*
X001380Y017112D01*
X001380Y017062D01*
X001405Y017037D01*
X001480Y017037D01*
X001430Y017037D02*
X001380Y016987D01*
X001333Y017012D02*
X001308Y016987D01*
X001258Y016987D01*
X001232Y017012D01*
X001232Y017037D01*
X001258Y017062D01*
X001333Y017062D01*
X001333Y017012D01*
X001333Y017062D02*
X001283Y017112D01*
X001232Y017137D01*
X008552Y005672D02*
X008552Y005572D01*
X008552Y005525D02*
X008602Y005475D01*
X008552Y005500D02*
X008552Y005450D01*
X008577Y005425D01*
X008678Y005425D01*
X008703Y005450D01*
X008703Y005500D01*
X008678Y005525D01*
X008577Y005525D01*
X008552Y005500D01*
X008552Y005622D02*
X008703Y005622D01*
X008652Y005572D01*
X009142Y005103D02*
X009142Y005052D01*
X009167Y005027D01*
X009217Y005027D02*
X009242Y005078D01*
X009242Y005103D01*
X009217Y005128D01*
X009167Y005128D01*
X009142Y005103D01*
X009217Y005027D02*
X009293Y005027D01*
X009293Y005128D01*
X009268Y004980D02*
X009217Y004980D01*
X009192Y004955D01*
X009192Y004880D01*
X009142Y004880D02*
X009293Y004880D01*
X009293Y004955D01*
X009268Y004980D01*
X009192Y004930D02*
X009142Y004980D01*
X006230Y004955D02*
X006230Y004880D01*
X006080Y004880D01*
X006130Y004880D02*
X006130Y004955D01*
X006155Y004980D01*
X006205Y004980D01*
X006230Y004955D01*
X006130Y004930D02*
X006080Y004980D01*
X006155Y005027D02*
X006155Y005128D01*
X006230Y005103D02*
X006155Y005027D01*
X006080Y005103D02*
X006230Y005103D01*
M02*
