G75*
G70*
%OFA0B0*%
%FSLAX24Y24*%
%IPPOS*%
%LPD*%
%AMOC8*
5,1,8,0,0,1.08239X$1,22.5*
%
%ADD10C,0.1261*%
%ADD11R,0.0340X0.0880*%
%ADD12R,0.0505X0.0493*%
%ADD13OC8,0.1055*%
%ADD14R,0.1055X0.1055*%
%ADD15R,0.0474X0.0513*%
%ADD16R,0.0552X0.0552*%
%ADD17C,0.0680*%
%ADD18C,0.0840*%
%ADD19C,0.0476*%
%ADD20C,0.0437*%
D10*
X005248Y009395D03*
X009972Y009395D03*
X007610Y001915D03*
X010956Y021403D03*
X004263Y021403D03*
D11*
X005610Y006255D03*
X006110Y006255D03*
X006610Y006255D03*
X007110Y006255D03*
X008110Y006255D03*
X008610Y006255D03*
X009110Y006255D03*
X009610Y006255D03*
X009610Y003835D03*
X009110Y003835D03*
X008610Y003835D03*
X008110Y003835D03*
X007110Y003835D03*
X006610Y003835D03*
X006110Y003835D03*
X005610Y003835D03*
D12*
X004860Y004700D03*
X004860Y005389D03*
X004010Y003389D03*
X004010Y002700D03*
X010360Y004700D03*
X010360Y005389D03*
X011210Y003321D03*
X011210Y002632D03*
D13*
X006785Y013870D03*
X011735Y016970D03*
D14*
X011735Y018620D03*
X010085Y018620D03*
X010085Y016970D03*
X008435Y016970D03*
X008435Y018620D03*
X006785Y018620D03*
X006785Y016970D03*
X005135Y016970D03*
X005135Y018620D03*
X003485Y018620D03*
X003485Y016970D03*
X006785Y012220D03*
X008435Y012220D03*
X008435Y013870D03*
D15*
X012075Y011295D03*
X012745Y011295D03*
X012790Y005926D03*
X013459Y005926D03*
X003145Y011295D03*
X002475Y011295D03*
D16*
X004197Y011295D03*
X005023Y011295D03*
X010197Y011295D03*
X011023Y011295D03*
X012682Y006539D03*
X013508Y006539D03*
D17*
X013410Y008899D02*
X012810Y008899D01*
X012810Y009899D02*
X013410Y009899D01*
X013660Y020795D02*
X013060Y020795D01*
X013060Y021795D02*
X013660Y021795D01*
X009110Y021845D02*
X009110Y021245D01*
X008110Y021245D02*
X008110Y021845D01*
X007110Y021845D02*
X007110Y021245D01*
X006110Y021245D02*
X006110Y021845D01*
X002160Y021795D02*
X001560Y021795D01*
X001560Y020795D02*
X002160Y020795D01*
D18*
X002110Y002295D03*
X002110Y003795D03*
X003610Y012795D03*
X003610Y014295D03*
X011610Y014295D03*
X011610Y012795D03*
X013110Y003795D03*
X013110Y002295D03*
D19*
X012790Y005039D03*
X010360Y004045D03*
X007610Y004045D03*
X007610Y006289D03*
X004860Y004045D03*
X001985Y005039D03*
X007610Y010795D03*
X013220Y016295D03*
X013220Y017795D03*
X013220Y019295D03*
X002110Y018795D03*
D20*
X007110Y008039D03*
X006610Y007045D03*
X006110Y007414D03*
X008610Y007414D03*
X009110Y007045D03*
X009610Y008039D03*
X010954Y004694D03*
M02*
