%
M48
M72
T01C0.0197
T02C0.0236
T03C0.0400
T04C0.0433
T05C0.0650
T06C0.1181
%
T01
X6110Y7414
X6610Y7045
X7110Y8039
X8610Y7414
X9110Y7045
X9610Y8039
X10954Y4694
T02
X10360Y4045
X12790Y5039
X7610Y4045
X7610Y6289
X4860Y4045
X1985Y5039
X7610Y10795
X13220Y16295
X13220Y17795
X13220Y19295
X2110Y18795
T03
X1860Y20795
X1860Y21795
X6110Y21545
X7110Y21545
X8110Y21545
X9110Y21545
X13360Y21795
X13360Y20795
X13110Y9899
X13110Y8899
T04
X2110Y2295
X2110Y3795
X3610Y12795
X3610Y14295
X11610Y14295
X11610Y12795
X13110Y3795
X13110Y2295
T05
X8435Y12220
X8435Y13870
X6785Y13870
X6785Y12220
X6785Y16970
X6785Y18620
X5135Y18620
X5135Y16970
X3485Y16970
X3485Y18620
X8435Y18620
X8435Y16970
X10085Y16970
X10085Y18620
X11735Y18620
X11735Y16970
T06
X10956Y21403
X4263Y21403
X5248Y9395
X9972Y9395
X7610Y1915
M30
