G75*
G70*
%OFA0B0*%
%FSLAX24Y24*%
%IPPOS*%
%LPD*%
%AMOC8*
5,1,8,0,0,1.08239X$1,22.5*
%
%ADD10OC8,0.0975*%
%ADD11R,0.0975X0.0975*%
%ADD12C,0.0600*%
%ADD13C,0.0760*%
%ADD14R,0.0433X0.0394*%
%ADD15R,0.0394X0.0551*%
%ADD16R,0.0394X0.0433*%
%ADD17R,0.0551X0.0394*%
%ADD18C,0.0396*%
%ADD19C,0.0120*%
%ADD20C,0.0357*%
%ADD21C,0.0240*%
%ADD22C,0.0320*%
%ADD23C,0.0660*%
%ADD24C,0.0160*%
D10*
X006785Y013870D03*
X011735Y016970D03*
D11*
X011735Y018620D03*
X010085Y018620D03*
X010085Y016970D03*
X008435Y016970D03*
X008435Y018620D03*
X006785Y018620D03*
X006785Y016970D03*
X005135Y016970D03*
X005135Y018620D03*
X003485Y018620D03*
X003485Y016970D03*
X006785Y012220D03*
X008435Y012220D03*
X008435Y013870D03*
D12*
X012810Y009899D02*
X013410Y009899D01*
X013410Y008899D02*
X012810Y008899D01*
X013060Y020795D02*
X013660Y020795D01*
X013660Y021795D02*
X013060Y021795D01*
X009110Y021845D02*
X009110Y021245D01*
X008110Y021245D02*
X008110Y021845D01*
X007110Y021845D02*
X007110Y021245D01*
X006110Y021245D02*
X006110Y021845D01*
X002160Y021795D02*
X001560Y021795D01*
X001560Y020795D02*
X002160Y020795D01*
D13*
X003610Y014295D03*
X003610Y012795D03*
X002110Y003795D03*
X002110Y002295D03*
X011610Y012795D03*
X011610Y014295D03*
X013110Y003795D03*
X013110Y002295D03*
D14*
X009610Y004710D03*
X009610Y005379D03*
X006610Y005379D03*
X006610Y004710D03*
D15*
X002110Y015362D03*
X002484Y016228D03*
X001736Y016228D03*
D16*
X001775Y017045D03*
X002445Y017045D03*
D17*
X007677Y005419D03*
X007677Y004671D03*
X008543Y005045D03*
D18*
X007610Y004045D03*
X007610Y006289D03*
X010360Y004045D03*
X012790Y005039D03*
X007610Y010795D03*
X004860Y004045D03*
X001985Y005039D03*
X002110Y018795D03*
X013220Y019295D03*
X013220Y017795D03*
X013220Y016295D03*
D19*
X013720Y016970D02*
X011735Y016970D01*
X013720Y016970D02*
X013970Y016720D01*
X013970Y005289D01*
X013720Y005039D01*
X012790Y005039D01*
X010954Y004694D02*
X009620Y004694D01*
X009610Y004710D01*
X009610Y005379D02*
X009095Y005374D01*
X009095Y005211D01*
X008922Y005039D01*
X008543Y005045D01*
X009095Y005374D02*
X009110Y007045D01*
X008610Y007414D02*
X006110Y007414D01*
X006610Y007045D02*
X006595Y005388D01*
X006610Y005379D01*
X006610Y004710D02*
X007637Y004704D01*
X007677Y004671D01*
X007110Y008039D02*
X009610Y008039D01*
D20*
X009610Y008039D03*
X009110Y007045D03*
X008610Y007414D03*
X007110Y008039D03*
X006610Y007045D03*
X006110Y007414D03*
X010954Y004694D03*
D21*
X001240Y001057D02*
X001240Y020351D01*
X001254Y020337D01*
X001452Y020255D01*
X001460Y020255D01*
X001460Y019700D01*
X001240Y019700D01*
X001460Y019700D02*
X001521Y019553D01*
X001633Y019441D01*
X001633Y019441D01*
X001881Y019193D01*
X001894Y019180D01*
X001862Y019166D01*
X001738Y019043D01*
X001672Y018882D01*
X001672Y018708D01*
X001738Y018547D01*
X001790Y018495D01*
X001790Y017501D01*
X001531Y017501D01*
X001442Y017465D01*
X001375Y017397D01*
X001338Y017309D01*
X001338Y016781D01*
X001375Y016692D01*
X001382Y016686D01*
X001336Y016639D01*
X001299Y016551D01*
X001299Y015905D01*
X001336Y015816D01*
X001403Y015749D01*
X001491Y015712D01*
X001684Y015712D01*
X001673Y015685D01*
X001673Y015038D01*
X001710Y014950D01*
X001777Y014883D01*
X001865Y014846D01*
X002354Y014846D01*
X002443Y014883D01*
X002510Y014950D01*
X002547Y015038D01*
X002547Y015685D01*
X002527Y015732D01*
X002710Y015732D01*
X002766Y015747D01*
X002816Y015776D01*
X002857Y015817D01*
X002886Y015867D01*
X002901Y015923D01*
X002901Y016228D01*
X002901Y016263D01*
X002950Y016242D01*
X004020Y016242D01*
X004108Y016279D01*
X004176Y016346D01*
X004212Y016435D01*
X004212Y017505D01*
X004176Y017593D01*
X004108Y017661D01*
X004020Y017697D01*
X002950Y017697D01*
X002861Y017661D01*
X002794Y017593D01*
X002765Y017522D01*
X002765Y018067D01*
X002794Y017996D01*
X002861Y017929D01*
X002950Y017892D01*
X004020Y017892D01*
X004108Y017929D01*
X004176Y017996D01*
X004212Y018085D01*
X004212Y019020D01*
X004407Y019020D01*
X004407Y018085D01*
X004444Y017996D01*
X004511Y017929D01*
X004600Y017892D01*
X005670Y017892D01*
X005758Y017929D01*
X005826Y017996D01*
X005862Y018085D01*
X005862Y019020D01*
X006057Y019020D01*
X006057Y018085D01*
X006094Y017996D01*
X006161Y017929D01*
X006250Y017892D01*
X007320Y017892D01*
X007408Y017929D01*
X007476Y017996D01*
X007512Y018085D01*
X007512Y019020D01*
X007707Y019020D01*
X007707Y018085D01*
X007744Y017996D01*
X007811Y017929D01*
X007900Y017892D01*
X008970Y017892D01*
X009058Y017929D01*
X009126Y017996D01*
X009162Y018085D01*
X009162Y019020D01*
X009357Y019020D01*
X009357Y018085D01*
X009394Y017996D01*
X009461Y017929D01*
X009550Y017892D01*
X010620Y017892D01*
X010708Y017929D01*
X010776Y017996D01*
X010812Y018085D01*
X010812Y019020D01*
X011007Y019020D01*
X011007Y018085D01*
X011044Y017996D01*
X011111Y017929D01*
X011200Y017892D01*
X012270Y017892D01*
X012358Y017929D01*
X012426Y017996D01*
X012462Y018085D01*
X012462Y019155D01*
X012426Y019243D01*
X012358Y019311D01*
X012270Y019347D01*
X012243Y019347D01*
X012449Y019554D01*
X012510Y019701D01*
X012510Y021379D01*
X012526Y021395D01*
X012696Y021395D01*
X012754Y021337D01*
X012882Y021284D01*
X012860Y021277D01*
X012787Y021240D01*
X012721Y021191D01*
X012663Y021134D01*
X012615Y021067D01*
X012578Y020994D01*
X012553Y020917D01*
X012540Y020836D01*
X012540Y020795D01*
X013360Y020795D01*
X013360Y020795D01*
X013360Y020275D01*
X013701Y020275D01*
X013782Y020288D01*
X013860Y020313D01*
X013932Y020350D01*
X013980Y020384D01*
X013980Y017134D01*
X013974Y017140D01*
X013890Y017224D01*
X013780Y017270D01*
X012462Y017270D01*
X012462Y017271D01*
X012036Y017697D01*
X011434Y017697D01*
X011007Y017271D01*
X011007Y016668D01*
X011434Y016242D01*
X012036Y016242D01*
X012462Y016668D01*
X012462Y016670D01*
X013596Y016670D01*
X013670Y016596D01*
X013670Y010376D01*
X013517Y010439D01*
X012702Y010439D01*
X012504Y010357D01*
X012352Y010205D01*
X012270Y010007D01*
X012270Y009792D01*
X012352Y009593D01*
X012504Y009441D01*
X012632Y009388D01*
X012610Y009381D01*
X012537Y009344D01*
X012471Y009296D01*
X012413Y009238D01*
X012365Y009172D01*
X012328Y009099D01*
X012303Y009021D01*
X012290Y008940D01*
X012290Y008899D01*
X012290Y008858D01*
X012303Y008777D01*
X012328Y008700D01*
X012365Y008627D01*
X012413Y008560D01*
X012471Y008503D01*
X012537Y008454D01*
X012610Y008417D01*
X012688Y008392D01*
X012769Y008379D01*
X013110Y008379D01*
X013451Y008379D01*
X013532Y008392D01*
X013610Y008417D01*
X013670Y008448D01*
X013670Y005413D01*
X013596Y005339D01*
X013110Y005339D01*
X013038Y005410D01*
X012877Y005477D01*
X012703Y005477D01*
X012542Y005410D01*
X012419Y005287D01*
X012352Y005126D01*
X012352Y004952D01*
X012419Y004791D01*
X012542Y004667D01*
X012703Y004601D01*
X012877Y004601D01*
X013038Y004667D01*
X013110Y004739D01*
X013780Y004739D01*
X013890Y004785D01*
X013980Y004874D01*
X013980Y001057D01*
X008323Y001057D01*
X008499Y001233D01*
X008645Y001486D01*
X008720Y001769D01*
X008720Y002061D01*
X008645Y002344D01*
X008499Y002597D01*
X008292Y002804D01*
X008039Y002950D01*
X007756Y003025D01*
X007464Y003025D01*
X007181Y002950D01*
X006928Y002804D01*
X006721Y002597D01*
X006575Y002344D01*
X006499Y002061D01*
X006499Y001769D01*
X006575Y001486D01*
X006721Y001233D01*
X006897Y001057D01*
X001240Y001057D01*
X001240Y001097D02*
X006857Y001097D01*
X006662Y001335D02*
X001240Y001335D01*
X001240Y001574D02*
X006552Y001574D01*
X006499Y001812D02*
X002504Y001812D01*
X002461Y001769D02*
X002636Y001944D01*
X002730Y002171D01*
X002730Y002418D01*
X002636Y002646D01*
X002461Y002820D01*
X002233Y002915D01*
X001987Y002915D01*
X001759Y002820D01*
X001584Y002646D01*
X001490Y002418D01*
X001490Y002171D01*
X001584Y001944D01*
X001759Y001769D01*
X001987Y001675D01*
X002233Y001675D01*
X002461Y001769D01*
X002680Y002051D02*
X006499Y002051D01*
X006560Y002289D02*
X002730Y002289D01*
X002684Y002528D02*
X006681Y002528D01*
X006891Y002766D02*
X002515Y002766D01*
X002399Y003243D02*
X012821Y003243D01*
X012759Y003269D02*
X012987Y003175D01*
X013233Y003175D01*
X013461Y003269D01*
X013636Y003444D01*
X013730Y003671D01*
X013730Y003918D01*
X013636Y004146D01*
X013461Y004320D01*
X013233Y004415D01*
X012987Y004415D01*
X012759Y004320D01*
X012584Y004146D01*
X012490Y003918D01*
X012490Y003671D01*
X012584Y003444D01*
X012759Y003269D01*
X012568Y003482D02*
X002651Y003482D01*
X002636Y003444D02*
X002730Y003671D01*
X002730Y003918D01*
X002636Y004146D01*
X002461Y004320D01*
X002233Y004415D01*
X001987Y004415D01*
X001759Y004320D01*
X001584Y004146D01*
X001490Y003918D01*
X001490Y003671D01*
X001584Y003444D01*
X001759Y003269D01*
X001987Y003175D01*
X002233Y003175D01*
X002461Y003269D01*
X002636Y003444D01*
X002730Y003720D02*
X012490Y003720D01*
X012507Y003959D02*
X002713Y003959D01*
X002584Y004197D02*
X012636Y004197D01*
X012535Y004674D02*
X011373Y004674D01*
X011373Y004611D02*
X011309Y004457D01*
X011191Y004340D01*
X011038Y004276D01*
X010871Y004276D01*
X010717Y004340D01*
X010663Y004394D01*
X010037Y004394D01*
X010030Y004377D01*
X009962Y004310D01*
X009874Y004273D01*
X009346Y004273D01*
X009257Y004310D01*
X009190Y004377D01*
X009153Y004466D01*
X009153Y004845D01*
X009133Y004825D01*
X009092Y004785D01*
X009090Y004784D01*
X009088Y004782D01*
X009044Y004764D01*
X009022Y004712D01*
X008955Y004644D01*
X008866Y004608D01*
X008220Y004608D01*
X008192Y004619D01*
X008192Y004426D01*
X008156Y004338D01*
X008088Y004270D01*
X008000Y004234D01*
X007354Y004234D01*
X007265Y004270D01*
X007198Y004338D01*
X007169Y004407D01*
X007042Y004408D01*
X007030Y004377D01*
X006962Y004310D01*
X006874Y004273D01*
X006346Y004273D01*
X006257Y004310D01*
X006190Y004377D01*
X006153Y004466D01*
X006153Y004955D01*
X006190Y005043D01*
X006192Y005045D01*
X006190Y005047D01*
X006153Y005135D01*
X006153Y005624D01*
X006190Y005712D01*
X006257Y005780D01*
X006299Y005797D01*
X006307Y006756D01*
X006255Y006808D01*
X006191Y006962D01*
X006191Y006995D01*
X006027Y006995D01*
X005873Y007059D01*
X005755Y007177D01*
X005691Y007331D01*
X005691Y007497D01*
X005755Y007651D01*
X005873Y007769D01*
X006027Y007832D01*
X006193Y007832D01*
X006347Y007769D01*
X006402Y007714D01*
X006843Y007714D01*
X006755Y007802D01*
X006691Y007956D01*
X006691Y008122D01*
X006755Y008276D01*
X006873Y008394D01*
X007027Y008457D01*
X007193Y008457D01*
X007347Y008394D01*
X007402Y008339D01*
X009318Y008339D01*
X009373Y008394D01*
X009439Y008421D01*
X009290Y008507D01*
X009083Y008713D01*
X008937Y008967D01*
X006283Y008967D01*
X006358Y009249D01*
X006358Y009541D01*
X006283Y009824D01*
X006136Y010077D01*
X005930Y010284D01*
X005676Y010430D01*
X005394Y010506D01*
X005101Y010506D01*
X004819Y010430D01*
X004566Y010284D01*
X004359Y010077D01*
X004213Y009824D01*
X004137Y009541D01*
X004137Y009249D01*
X004213Y008967D01*
X001240Y008967D01*
X001240Y008729D02*
X004350Y008729D01*
X004359Y008713D02*
X004566Y008507D01*
X004819Y008360D01*
X005101Y008285D01*
X005394Y008285D01*
X005676Y008360D01*
X005930Y008507D01*
X006136Y008713D01*
X006283Y008967D01*
X006347Y009206D02*
X008873Y009206D01*
X008862Y009249D02*
X008937Y008967D01*
X009074Y008729D02*
X006145Y008729D01*
X005901Y008490D02*
X009318Y008490D01*
X008862Y009249D02*
X008862Y009541D01*
X008937Y009824D01*
X009083Y010077D01*
X009290Y010284D01*
X009543Y010430D01*
X009826Y010506D01*
X010118Y010506D01*
X010401Y010430D01*
X010654Y010284D01*
X010861Y010077D01*
X011007Y009824D01*
X011083Y009541D01*
X011083Y009249D01*
X011007Y008967D01*
X012294Y008967D01*
X012290Y008899D02*
X013110Y008899D01*
X013110Y008379D01*
X013110Y008899D01*
X013110Y008899D01*
X012290Y008899D01*
X012318Y008729D02*
X010870Y008729D01*
X010861Y008713D02*
X011007Y008967D01*
X011071Y009206D02*
X012390Y009206D01*
X012501Y009444D02*
X011083Y009444D01*
X011045Y009683D02*
X012315Y009683D01*
X012270Y009921D02*
X010951Y009921D01*
X010778Y010160D02*
X012333Y010160D01*
X012604Y010398D02*
X010456Y010398D01*
X009920Y011737D02*
X009711Y011650D01*
X009148Y011650D01*
X009126Y011596D01*
X009058Y011529D01*
X008970Y011492D01*
X007900Y011492D01*
X007811Y011529D01*
X007744Y011596D01*
X007707Y011685D01*
X007707Y012755D01*
X007744Y012843D01*
X007811Y012911D01*
X007900Y012947D01*
X008970Y012947D01*
X009058Y012911D01*
X009126Y012843D01*
X009148Y012790D01*
X009290Y012790D01*
X009290Y014158D01*
X009377Y014368D01*
X009787Y014778D01*
X009997Y014865D01*
X011366Y014865D01*
X011487Y014915D01*
X011733Y014915D01*
X011961Y014820D01*
X012136Y014646D01*
X012230Y014418D01*
X012230Y014171D01*
X012136Y013944D01*
X011961Y013769D01*
X011733Y013675D01*
X011487Y013675D01*
X011366Y013725D01*
X010430Y013725D01*
X010430Y012369D01*
X010343Y012159D01*
X010183Y011999D01*
X009920Y011737D01*
X010013Y011829D02*
X013670Y011829D01*
X013670Y011591D02*
X009120Y011591D01*
X009488Y010398D02*
X005731Y010398D01*
X006054Y010160D02*
X009166Y010160D01*
X008993Y009921D02*
X006226Y009921D01*
X006320Y009683D02*
X008899Y009683D01*
X008862Y009444D02*
X006358Y009444D01*
X006745Y008252D02*
X001240Y008252D01*
X001240Y008490D02*
X004594Y008490D01*
X004359Y008713D02*
X004213Y008967D01*
X004149Y009206D02*
X001240Y009206D01*
X001240Y009444D02*
X004137Y009444D01*
X004175Y009683D02*
X001240Y009683D01*
X001240Y009921D02*
X004269Y009921D01*
X004442Y010160D02*
X001240Y010160D01*
X001240Y010398D02*
X004764Y010398D01*
X003961Y012269D02*
X003733Y012175D01*
X003487Y012175D01*
X003259Y012269D01*
X003084Y012444D01*
X002990Y012671D01*
X002990Y012918D01*
X003084Y013146D01*
X003259Y013320D01*
X003487Y013415D01*
X003733Y013415D01*
X003961Y013320D01*
X004136Y013146D01*
X004230Y012918D01*
X004230Y012671D01*
X004136Y012444D01*
X003961Y012269D01*
X003998Y012306D02*
X006057Y012306D01*
X006057Y012068D02*
X001240Y012068D01*
X001240Y012306D02*
X003222Y012306D01*
X003042Y012545D02*
X001240Y012545D01*
X001240Y012783D02*
X002990Y012783D01*
X003033Y013022D02*
X001240Y013022D01*
X001240Y013260D02*
X003199Y013260D01*
X003336Y013737D02*
X001240Y013737D01*
X001240Y013499D02*
X006127Y013499D01*
X006057Y013568D02*
X006484Y013142D01*
X007086Y013142D01*
X007512Y013568D01*
X007512Y014171D01*
X007086Y014597D01*
X006484Y014597D01*
X006057Y014171D01*
X006057Y013568D01*
X006057Y013737D02*
X003884Y013737D01*
X003961Y013769D02*
X004136Y013944D01*
X004230Y014171D01*
X004230Y014418D01*
X004136Y014646D01*
X003961Y014820D01*
X003733Y014915D01*
X003487Y014915D01*
X003259Y014820D01*
X003084Y014646D01*
X002990Y014418D01*
X002990Y014171D01*
X003084Y013944D01*
X003259Y013769D01*
X003487Y013675D01*
X003733Y013675D01*
X003961Y013769D01*
X004149Y013976D02*
X006057Y013976D01*
X006101Y014214D02*
X004230Y014214D01*
X004216Y014453D02*
X006339Y014453D01*
X007231Y014453D02*
X007727Y014453D01*
X007744Y014493D02*
X007707Y014405D01*
X007707Y013335D01*
X007744Y013246D01*
X007811Y013179D01*
X007900Y013142D01*
X008970Y013142D01*
X009058Y013179D01*
X009126Y013246D01*
X009162Y013335D01*
X009162Y014405D01*
X009126Y014493D01*
X009058Y014561D01*
X008970Y014597D01*
X007900Y014597D01*
X007811Y014561D01*
X007744Y014493D01*
X007707Y014214D02*
X007469Y014214D01*
X007512Y013976D02*
X007707Y013976D01*
X007707Y013737D02*
X007512Y013737D01*
X007443Y013499D02*
X007707Y013499D01*
X007738Y013260D02*
X007204Y013260D01*
X007320Y012947D02*
X006250Y012947D01*
X006161Y012911D01*
X006094Y012843D01*
X006057Y012755D01*
X006057Y011685D01*
X006094Y011596D01*
X006161Y011529D01*
X006250Y011492D01*
X007320Y011492D01*
X007408Y011529D01*
X007476Y011596D01*
X007512Y011685D01*
X007512Y012755D01*
X007476Y012843D01*
X007408Y012911D01*
X007320Y012947D01*
X007501Y012783D02*
X007719Y012783D01*
X007707Y012545D02*
X007512Y012545D01*
X007512Y012306D02*
X007707Y012306D01*
X007707Y012068D02*
X007512Y012068D01*
X007512Y011829D02*
X007707Y011829D01*
X007749Y011591D02*
X007470Y011591D01*
X006366Y013260D02*
X004021Y013260D01*
X004187Y013022D02*
X009290Y013022D01*
X009290Y013260D02*
X009132Y013260D01*
X009162Y013499D02*
X009290Y013499D01*
X009290Y013737D02*
X009162Y013737D01*
X009162Y013976D02*
X009290Y013976D01*
X009313Y014214D02*
X009162Y014214D01*
X009143Y014453D02*
X009462Y014453D01*
X009700Y014691D02*
X004090Y014691D01*
X003130Y014691D02*
X001240Y014691D01*
X001240Y014453D02*
X003004Y014453D01*
X002990Y014214D02*
X001240Y014214D01*
X001240Y013976D02*
X003071Y013976D01*
X002490Y014930D02*
X013670Y014930D01*
X013670Y015168D02*
X002547Y015168D01*
X002547Y015407D02*
X013670Y015407D01*
X013670Y015645D02*
X002547Y015645D01*
X002890Y015884D02*
X013670Y015884D01*
X013670Y016122D02*
X002901Y016122D01*
X002901Y016228D02*
X002484Y016228D01*
X002901Y016228D01*
X002484Y016228D02*
X002484Y016228D01*
X002765Y017553D02*
X002777Y017553D01*
X002765Y017792D02*
X013980Y017792D01*
X013980Y018030D02*
X012440Y018030D01*
X012462Y018269D02*
X013980Y018269D01*
X013980Y018507D02*
X012462Y018507D01*
X012462Y018746D02*
X013980Y018746D01*
X013980Y018984D02*
X012462Y018984D01*
X012434Y019223D02*
X013980Y019223D01*
X013980Y019461D02*
X012357Y019461D01*
X012510Y019700D02*
X013980Y019700D01*
X013980Y019938D02*
X012510Y019938D01*
X012510Y020177D02*
X013980Y020177D01*
X013360Y020275D02*
X013360Y020795D01*
X013360Y020795D01*
X012540Y020795D01*
X012540Y020754D01*
X012553Y020673D01*
X012578Y020595D01*
X012615Y020522D01*
X012663Y020456D01*
X012721Y020398D01*
X012787Y020350D01*
X012860Y020313D01*
X012938Y020288D01*
X013019Y020275D01*
X013360Y020275D01*
X013360Y020415D02*
X013360Y020415D01*
X013360Y020654D02*
X013360Y020654D01*
X012704Y020415D02*
X012510Y020415D01*
X012510Y020654D02*
X012559Y020654D01*
X012549Y020892D02*
X012510Y020892D01*
X012510Y021131D02*
X012661Y021131D01*
X012722Y021369D02*
X012510Y021369D01*
X011007Y018984D02*
X010812Y018984D01*
X010812Y018746D02*
X011007Y018746D01*
X011007Y018507D02*
X010812Y018507D01*
X010812Y018269D02*
X011007Y018269D01*
X011030Y018030D02*
X010790Y018030D01*
X010657Y017662D02*
X010601Y017677D01*
X010127Y017677D01*
X010127Y017012D01*
X010042Y017012D01*
X010042Y016927D01*
X009377Y016927D01*
X009377Y016453D01*
X009392Y016397D01*
X009421Y016347D01*
X009462Y016306D01*
X009512Y016277D01*
X009568Y016262D01*
X010042Y016262D01*
X010042Y016927D01*
X010127Y016927D01*
X010127Y016262D01*
X010601Y016262D01*
X010657Y016277D01*
X010707Y016306D01*
X010748Y016347D01*
X010777Y016397D01*
X010792Y016453D01*
X010792Y016927D01*
X010127Y016927D01*
X010127Y017012D01*
X010792Y017012D01*
X010792Y017486D01*
X010777Y017542D01*
X010748Y017592D01*
X010707Y017633D01*
X010657Y017662D01*
X010771Y017553D02*
X011290Y017553D01*
X011051Y017315D02*
X010792Y017315D01*
X010792Y017076D02*
X011007Y017076D01*
X011007Y016838D02*
X010792Y016838D01*
X010792Y016599D02*
X011077Y016599D01*
X011315Y016361D02*
X010756Y016361D01*
X010127Y016361D02*
X010042Y016361D01*
X010042Y016599D02*
X010127Y016599D01*
X010127Y016838D02*
X010042Y016838D01*
X010042Y017012D02*
X009377Y017012D01*
X009377Y017486D01*
X009392Y017542D01*
X009421Y017592D01*
X009462Y017633D01*
X009512Y017662D01*
X009568Y017677D01*
X010042Y017677D01*
X010042Y017012D01*
X010042Y017076D02*
X010127Y017076D01*
X010127Y017315D02*
X010042Y017315D01*
X010042Y017553D02*
X010127Y017553D01*
X009399Y017553D02*
X009142Y017553D01*
X009126Y017593D02*
X009058Y017661D01*
X008970Y017697D01*
X007900Y017697D01*
X007811Y017661D01*
X007744Y017593D01*
X007707Y017505D01*
X007707Y016435D01*
X007744Y016346D01*
X007811Y016279D01*
X007900Y016242D01*
X008970Y016242D01*
X009058Y016279D01*
X009126Y016346D01*
X009162Y016435D01*
X009162Y017505D01*
X009126Y017593D01*
X009162Y017315D02*
X009377Y017315D01*
X009377Y017076D02*
X009162Y017076D01*
X009162Y016838D02*
X009377Y016838D01*
X009377Y016599D02*
X009162Y016599D01*
X009132Y016361D02*
X009414Y016361D01*
X009380Y018030D02*
X009140Y018030D01*
X009162Y018269D02*
X009357Y018269D01*
X009357Y018507D02*
X009162Y018507D01*
X009162Y018746D02*
X009357Y018746D01*
X009357Y018984D02*
X009162Y018984D01*
X007730Y018030D02*
X007490Y018030D01*
X007512Y018269D02*
X007707Y018269D01*
X007707Y018507D02*
X007512Y018507D01*
X007512Y018746D02*
X007707Y018746D01*
X007707Y018984D02*
X007512Y018984D01*
X007320Y017697D02*
X006250Y017697D01*
X006161Y017661D01*
X006094Y017593D01*
X006057Y017505D01*
X006057Y016435D01*
X006094Y016346D01*
X006161Y016279D01*
X006250Y016242D01*
X007320Y016242D01*
X007408Y016279D01*
X007476Y016346D01*
X007512Y016435D01*
X007512Y017505D01*
X007476Y017593D01*
X007408Y017661D01*
X007320Y017697D01*
X007492Y017553D02*
X007727Y017553D01*
X007707Y017315D02*
X007512Y017315D01*
X007512Y017076D02*
X007707Y017076D01*
X007707Y016838D02*
X007512Y016838D01*
X007512Y016599D02*
X007707Y016599D01*
X007738Y016361D02*
X007482Y016361D01*
X006088Y016361D02*
X005832Y016361D01*
X005826Y016346D02*
X005862Y016435D01*
X005862Y017505D01*
X005826Y017593D01*
X005758Y017661D01*
X005670Y017697D01*
X004600Y017697D01*
X004511Y017661D01*
X004444Y017593D01*
X004407Y017505D01*
X004407Y016435D01*
X004444Y016346D01*
X004511Y016279D01*
X004600Y016242D01*
X005670Y016242D01*
X005758Y016279D01*
X005826Y016346D01*
X005862Y016599D02*
X006057Y016599D01*
X006057Y016838D02*
X005862Y016838D01*
X005862Y017076D02*
X006057Y017076D01*
X006057Y017315D02*
X005862Y017315D01*
X005842Y017553D02*
X006077Y017553D01*
X006080Y018030D02*
X005840Y018030D01*
X005862Y018269D02*
X006057Y018269D01*
X006057Y018507D02*
X005862Y018507D01*
X005862Y018746D02*
X006057Y018746D01*
X006057Y018984D02*
X005862Y018984D01*
X004407Y018984D02*
X004212Y018984D01*
X004212Y018746D02*
X004407Y018746D01*
X004407Y018507D02*
X004212Y018507D01*
X004212Y018269D02*
X004407Y018269D01*
X004430Y018030D02*
X004190Y018030D01*
X004192Y017553D02*
X004427Y017553D01*
X004407Y017315D02*
X004212Y017315D01*
X004212Y017076D02*
X004407Y017076D01*
X004407Y016838D02*
X004212Y016838D01*
X004212Y016599D02*
X004407Y016599D01*
X004438Y016361D02*
X004182Y016361D01*
X002780Y018030D02*
X002765Y018030D01*
X001790Y018030D02*
X001240Y018030D01*
X001240Y017792D02*
X001790Y017792D01*
X001790Y017553D02*
X001240Y017553D01*
X001240Y017315D02*
X001341Y017315D01*
X001338Y017076D02*
X001240Y017076D01*
X001240Y016838D02*
X001338Y016838D01*
X001319Y016599D02*
X001240Y016599D01*
X001240Y016361D02*
X001299Y016361D01*
X001299Y016122D02*
X001240Y016122D01*
X001240Y015884D02*
X001308Y015884D01*
X001240Y015645D02*
X001673Y015645D01*
X001673Y015407D02*
X001240Y015407D01*
X001240Y015168D02*
X001673Y015168D01*
X001730Y014930D02*
X001240Y014930D01*
X001240Y011829D02*
X006057Y011829D01*
X006099Y011591D02*
X001240Y011591D01*
X001240Y011352D02*
X013670Y011352D01*
X013670Y011114D02*
X001240Y011114D01*
X001240Y010875D02*
X013670Y010875D01*
X013670Y010637D02*
X001240Y010637D01*
X001240Y008013D02*
X006691Y008013D01*
X006782Y007775D02*
X006332Y007775D01*
X005888Y007775D02*
X001240Y007775D01*
X001240Y007536D02*
X005708Y007536D01*
X005705Y007298D02*
X001240Y007298D01*
X001240Y007059D02*
X005873Y007059D01*
X006250Y006821D02*
X001240Y006821D01*
X001240Y006582D02*
X006306Y006582D01*
X006304Y006344D02*
X001240Y006344D01*
X001240Y006105D02*
X006301Y006105D01*
X006299Y005867D02*
X001240Y005867D01*
X001240Y005628D02*
X006155Y005628D01*
X006153Y005390D02*
X001240Y005390D01*
X001240Y005151D02*
X006153Y005151D01*
X006153Y004913D02*
X001240Y004913D01*
X001240Y004674D02*
X006153Y004674D01*
X006166Y004436D02*
X001240Y004436D01*
X001240Y004197D02*
X001636Y004197D01*
X001507Y003959D02*
X001240Y003959D01*
X001240Y003720D02*
X001490Y003720D01*
X001568Y003482D02*
X001240Y003482D01*
X001240Y003243D02*
X001821Y003243D01*
X001705Y002766D02*
X001240Y002766D01*
X001240Y002528D02*
X001535Y002528D01*
X001490Y002289D02*
X001240Y002289D01*
X001240Y002051D02*
X001540Y002051D01*
X001716Y001812D02*
X001240Y001812D01*
X001240Y003005D02*
X007387Y003005D01*
X007833Y003005D02*
X013980Y003005D01*
X013980Y003243D02*
X013399Y003243D01*
X013233Y002915D02*
X012987Y002915D01*
X012759Y002820D01*
X012584Y002646D01*
X012490Y002418D01*
X012490Y002171D01*
X012584Y001944D01*
X012759Y001769D01*
X012987Y001675D01*
X013233Y001675D01*
X013461Y001769D01*
X013636Y001944D01*
X013730Y002171D01*
X013730Y002418D01*
X013636Y002646D01*
X013461Y002820D01*
X013233Y002915D01*
X013515Y002766D02*
X013980Y002766D01*
X013980Y002528D02*
X013684Y002528D01*
X013730Y002289D02*
X013980Y002289D01*
X013980Y002051D02*
X013680Y002051D01*
X013504Y001812D02*
X013980Y001812D01*
X013980Y001574D02*
X008668Y001574D01*
X008720Y001812D02*
X012716Y001812D01*
X012540Y002051D02*
X008720Y002051D01*
X008659Y002289D02*
X012490Y002289D01*
X012535Y002528D02*
X008538Y002528D01*
X008329Y002766D02*
X012705Y002766D01*
X013651Y003482D02*
X013980Y003482D01*
X013980Y003720D02*
X013730Y003720D01*
X013713Y003959D02*
X013980Y003959D01*
X013980Y004197D02*
X013584Y004197D01*
X013980Y004436D02*
X011288Y004436D01*
X011373Y004611D02*
X011373Y004778D01*
X011309Y004931D01*
X011191Y005049D01*
X011038Y005113D01*
X010871Y005113D01*
X010717Y005049D01*
X010663Y004994D01*
X010050Y004994D01*
X010030Y005043D01*
X010028Y005045D01*
X010030Y005047D01*
X010066Y005135D01*
X010066Y005624D01*
X010030Y005712D01*
X009962Y005780D01*
X009874Y005816D01*
X009399Y005816D01*
X009407Y006750D01*
X009465Y006808D01*
X009528Y006962D01*
X009528Y007128D01*
X009465Y007282D01*
X009347Y007400D01*
X009193Y007463D01*
X009028Y007463D01*
X009028Y007497D01*
X008965Y007651D01*
X008877Y007739D01*
X009318Y007739D01*
X009373Y007684D01*
X009527Y007620D01*
X009693Y007620D01*
X009847Y007684D01*
X009965Y007802D01*
X010028Y007956D01*
X010028Y008122D01*
X009965Y008276D01*
X009956Y008285D01*
X010118Y008285D01*
X010401Y008360D01*
X010654Y008507D01*
X010861Y008713D01*
X010626Y008490D02*
X012488Y008490D01*
X013110Y008490D02*
X013110Y008490D01*
X013110Y008729D02*
X013110Y008729D01*
X013110Y008899D02*
X013110Y008899D01*
X013670Y008252D02*
X009975Y008252D01*
X010028Y008013D02*
X013670Y008013D01*
X013670Y007775D02*
X009938Y007775D01*
X009449Y007298D02*
X013670Y007298D01*
X013670Y007536D02*
X009012Y007536D01*
X008691Y006995D02*
X008527Y006995D01*
X008373Y007059D01*
X008318Y007114D01*
X007028Y007114D01*
X007028Y006962D01*
X006965Y006808D01*
X006907Y006750D01*
X006899Y005806D01*
X006962Y005780D01*
X007030Y005712D01*
X007066Y005624D01*
X007066Y005135D01*
X007030Y005047D01*
X007028Y005045D01*
X007030Y005043D01*
X007045Y005008D01*
X007201Y005007D01*
X007253Y005059D01*
X007225Y005087D01*
X007196Y005137D01*
X007181Y005193D01*
X007181Y005419D01*
X007677Y005419D01*
X007677Y005419D01*
X007677Y005836D01*
X007981Y005836D01*
X008037Y005821D01*
X008088Y005792D01*
X008128Y005751D01*
X008157Y005701D01*
X008172Y005645D01*
X008172Y005462D01*
X008220Y005482D01*
X008796Y005482D01*
X008807Y006756D01*
X008755Y006808D01*
X008691Y006962D01*
X008691Y006995D01*
X008750Y006821D02*
X006970Y006821D01*
X007028Y007059D02*
X008373Y007059D01*
X008806Y006582D02*
X006906Y006582D01*
X006904Y006344D02*
X008804Y006344D01*
X008802Y006105D02*
X006901Y006105D01*
X006899Y005867D02*
X008799Y005867D01*
X008797Y005628D02*
X008172Y005628D01*
X007677Y005628D02*
X007677Y005628D01*
X007677Y005836D02*
X007677Y005419D01*
X007677Y005419D01*
X007181Y005419D01*
X007181Y005645D01*
X007196Y005701D01*
X007225Y005751D01*
X007266Y005792D01*
X007316Y005821D01*
X007372Y005836D01*
X007677Y005836D01*
X007181Y005628D02*
X007065Y005628D01*
X007066Y005390D02*
X007181Y005390D01*
X007192Y005151D02*
X007066Y005151D01*
X007610Y004045D02*
X010360Y004045D01*
X010066Y005151D02*
X012363Y005151D01*
X012368Y004913D02*
X011317Y004913D01*
X012521Y005390D02*
X010066Y005390D01*
X010065Y005628D02*
X013670Y005628D01*
X013670Y005867D02*
X009399Y005867D01*
X009402Y006105D02*
X013670Y006105D01*
X013670Y006344D02*
X009404Y006344D01*
X009406Y006582D02*
X013670Y006582D01*
X013670Y006821D02*
X009470Y006821D01*
X009528Y007059D02*
X013670Y007059D01*
X013647Y005390D02*
X013059Y005390D01*
X013045Y004674D02*
X013980Y004674D01*
X013980Y001335D02*
X008558Y001335D01*
X008362Y001097D02*
X013980Y001097D01*
X009166Y004436D02*
X008192Y004436D01*
X007610Y004045D02*
X004860Y004045D01*
X008984Y004674D02*
X009153Y004674D01*
X013616Y010398D02*
X013670Y010398D01*
X013670Y012068D02*
X010252Y012068D01*
X010404Y012306D02*
X011222Y012306D01*
X011259Y012269D02*
X011487Y012175D01*
X011733Y012175D01*
X011961Y012269D01*
X012136Y012444D01*
X012230Y012671D01*
X012230Y012918D01*
X012136Y013146D01*
X011961Y013320D01*
X011733Y013415D01*
X011487Y013415D01*
X011259Y013320D01*
X011084Y013146D01*
X010990Y012918D01*
X010990Y012671D01*
X011084Y012444D01*
X011259Y012269D01*
X011042Y012545D02*
X010430Y012545D01*
X010430Y012783D02*
X010990Y012783D01*
X011033Y013022D02*
X010430Y013022D01*
X010430Y013260D02*
X011199Y013260D01*
X011884Y013737D02*
X013670Y013737D01*
X013670Y013499D02*
X010430Y013499D01*
X012021Y013260D02*
X013670Y013260D01*
X013670Y013022D02*
X012187Y013022D01*
X012230Y012783D02*
X013670Y012783D01*
X013670Y012545D02*
X012177Y012545D01*
X011998Y012306D02*
X013670Y012306D01*
X013670Y013976D02*
X012149Y013976D01*
X012230Y014214D02*
X013670Y014214D01*
X013670Y014453D02*
X012216Y014453D01*
X012090Y014691D02*
X013670Y014691D01*
X013670Y016361D02*
X012155Y016361D01*
X012393Y016599D02*
X013666Y016599D01*
X013980Y017315D02*
X012419Y017315D01*
X012180Y017553D02*
X013980Y017553D01*
X006069Y012783D02*
X004230Y012783D01*
X004177Y012545D02*
X006057Y012545D01*
X001790Y018269D02*
X001240Y018269D01*
X001240Y018507D02*
X001778Y018507D01*
X001672Y018746D02*
X001240Y018746D01*
X001240Y018984D02*
X001714Y018984D01*
X001851Y019223D02*
X001240Y019223D01*
X001240Y019461D02*
X001613Y019461D01*
X001460Y019938D02*
X001240Y019938D01*
X001240Y020177D02*
X001460Y020177D01*
D22*
X001860Y019780D02*
X001860Y020795D01*
X001860Y019780D02*
X002220Y019420D01*
X011720Y019420D01*
X011735Y019405D01*
X012110Y019780D01*
X012110Y021545D01*
X012360Y021795D01*
X013360Y021795D01*
X011735Y019405D02*
X011735Y018620D01*
D23*
X011610Y014295D02*
X010110Y014295D01*
X009860Y014045D01*
X009860Y012482D01*
X009597Y012220D01*
X008435Y012220D01*
D24*
X003485Y018620D02*
X002685Y018620D01*
X002445Y018379D01*
X002445Y017045D01*
X001775Y017045D02*
X001736Y017005D01*
X001736Y016228D01*
X002110Y015362D02*
X002110Y018795D01*
M02*
